<?xml version="1.0" standalone="no" ?>
<!DOCTYPE svg PUBLIC "-//W3C//DTD SVG 1.1//EN" "http://www.w3.org/Graphics/SVG/1.1/DTD/svg11.dtd">
<svg width="351px" height="307px" viewBox="0 0 351 307" style="background-color: #ffffff00" xmlns="http://www.w3.org/2000/svg" xmlns:xlink="http://www.w3.org/1999/xlink" version="1.1" >
<path stroke="none" fill="#0000ff" transform="matrix(0.0833333 0 0 0.0833333 -274.583 -296)" d="M 4222.58,6268.54 L 4232.58,6262.77 L 4242.58,6268.54 L 4242.58,6857 L 4222.58,6868.54 L 4222.58,6268.54 Z " />
<path stroke="none" fill="#0000ff" transform="matrix(0.0833333 0 0 0.0833333 -274.583 -296)" d="M 4294.58,6304.34 L 4314.58,6304.34 L 4314.58,6821.2 L 4294.58,6821.2 L 4294.58,6304.34 Z " />
<path stroke="none" fill="#0000ff" transform="matrix(0.0833333 0 0 0.0833333 -274.583 -296)" d="M 4222.58,6868.54 L 4242.58,6857 L 4722.2,7133.9 L 4782.2,7191.64 L 4222.58,6868.54 Z " />
<path stroke="none" fill="#0000ff" transform="matrix(0.0833333 0 0 0.0833333 -274.583 -296)" d="M 4782.2,7191.64 L 4722.2,7133.9 L 5231.81,6839.68 L 5311.81,6885.87 L 4782.2,7191.64 Z " />
<path stroke="none" fill="#0000ff" transform="matrix(0.0833333 0 0 0.0833333 -274.583 -296)" d="M 4757.2,7053.65 L 4747.2,7036.33 L 5164.81,6795.22 L 5174.81,6812.54 L 4757.2,7053.65 Z " />
<path stroke="none" fill="#0000ff" transform="matrix(0.0833333 0 0 0.0833333 -274.583 -296)" d="M 5311.81,6885.87 L 5231.81,6839.68 L 5231.81,6285.86 L 5271.81,6262.77 L 5311.81,6251.22 L 5311.81,6885.87 Z " />
<path stroke="none" fill="#0000ff" transform="matrix(0.0833333 0 0 0.0833333 -274.583 -296)" d="M 5301.81,6233.9 L 5271.81,6262.77 L 5231.81,6285.86 L 4722.2,5991.64 L 4752.2,5962.77 L 4762.2,5922.36 L 5301.81,6233.9 Z " />
<path stroke="none" fill="#0000ff" transform="matrix(0.0833333 0 0 0.0833333 -274.583 -296)" d="M 5174.81,6313 L 5164.81,6330.32 L 4747.2,6089.21 L 4757.2,6071.89 L 5174.81,6313 Z " />
<path stroke="none" fill="#0000ff" transform="matrix(0.0833333 0 0 0.0833333 -274.583 -296)" d="M 4742.2,5957 L 4752.2,5962.77 L 4722.2,5991.64 L 4242.58,6268.54 L 4232.58,6262.77 L 4232.58,6251.22 L 4742.2,5957 Z " />
<path stroke="none" fill="#0000ff" transform="matrix(0.0833333 0 0 0.0833333 -274.583 -296)" d="M 5024.16,4370.1 L 5021.17,4358.95 L 5029.33,4350.78 L 5497.49,4476.23 L 5492.31,4495.54 L 5024.16,4370.1 Z " />
<path stroke="none" fill="#0000ff" transform="matrix(0.0833333 0 0 0.0833333 -274.583 -296)" d="M 4762.2,5922.36 L 4752.2,5962.77 L 4742.2,5957 L 4742.2,5480.94 L 4762.2,5480.94 L 4762.2,5922.36 Z " />
<text x="0" y="0" stroke="none" fill="#0000ff" transform="matrix(0.0833333 0 0 0.0833333 186.171 86.6451)" font-style="normal" font-weight="normal" font-size="198.479px" font-family="Arial" >
R</text>
<text x="0" y="0" stroke="none" fill="#0000ff" transform="matrix(0.0833333 0 0 0.0833333 198.116 80.1868)" font-style="normal" font-weight="normal" font-size="148.859px" font-family="Arial" >
1</text>
<path stroke="none" fill="#0000ff" transform="matrix(0.0833333 0 0 0.0833333 -274.583 -296)" d="M 3981.7,4649.43 L 4017.35,4627.92 L 3995.84,4663.57 L 3677.1,4982.31 L 3662.96,4968.17 L 3981.7,4649.43 Z " />
<text x="0" y="0" stroke="none" fill="#0000ff" transform="matrix(0.0833333 0 0 0.0833333 18.868 131.474)" font-style="normal" font-weight="normal" font-size="198.479px" font-family="Arial" >
R</text>
<path stroke="none" fill="#0000ff" transform="matrix(0.0833333 0 0 0.0833333 -274.583 -296)" d="M 5010.01,4355.96 L 5021.17,4358.95 L 5024.16,4370.1 L 4608.06,4786.2 L 4596.9,4783.21 L 4618.41,4747.57 L 5010.01,4355.96 Z " />
<path stroke="none" fill="#0000ff" transform="matrix(0.0833333 0 0 0.0833333 -274.583 -296)" d="M 4857.71,3787.56 L 4874.04,3771.23 L 5029.33,4350.78 L 5021.17,4358.95 L 5010.01,4355.96 L 4857.71,3787.56 Z " />
<path stroke="none" fill="#0000ff" transform="matrix(0.0833333 0 0 0.0833333 -274.583 -296)" d="M 4797.43,3840.77 L 4816.75,3835.59 L 4950.52,4334.84 L 4931.2,4340.02 L 4797.43,3840.77 Z " />
<path stroke="none" fill="#0000ff" transform="matrix(0.0833333 0 0 0.0833333 -274.583 -296)" d="M 4322.77,3644.22 L 4249.87,3603.98 L 4874.04,3771.23 L 4857.71,3787.56 L 4322.77,3644.22 Z " />
<path stroke="none" fill="#0000ff" transform="matrix(0.0833333 0 0 0.0833333 -274.583 -296)" d="M 3906.67,4060.32 L 3817.44,4036.41 L 4249.87,3603.98 L 4322.77,3644.22 L 3906.67,4060.32 Z " />
<path stroke="none" fill="#0000ff" transform="matrix(0.0833333 0 0 0.0833333 -274.583 -296)" d="M 3982.89,4085.92 L 3968.75,4071.78 L 4309.73,3730.8 L 4323.88,3744.94 L 3982.89,4085.92 Z " />
<path stroke="none" fill="#0000ff" transform="matrix(0.0833333 0 0 0.0833333 -274.583 -296)" d="M 4050.01,4595.26 L 4017.35,4627.92 L 3981.7,4649.43 L 3817.44,4036.41 L 3906.67,4060.32 L 4050.01,4595.26 Z " />
<path stroke="none" fill="#0000ff" transform="matrix(0.0833333 0 0 0.0833333 -274.583 -296)" d="M 4618.41,4747.57 L 4596.9,4783.21 L 4597.7,4824.84 L 3995.84,4663.57 L 4017.35,4627.92 L 4050.01,4595.26 L 4618.41,4747.57 Z " />
<path stroke="none" fill="#0000ff" transform="matrix(0.0833333 0 0 0.0833333 -274.583 -296)" d="M 4569.01,4659.79 L 4563.83,4679.11 L 4098.04,4554.3 L 4103.22,4534.98 L 4569.01,4659.79 Z " />
<path stroke="none" fill="#0000ff" transform="matrix(0.0833333 0 0 0.0833333 -274.583 -296)" d="M 4734.64,5258.63 L 4715.33,5263.81 L 4597.7,4824.84 L 4596.9,4783.21 L 4608.06,4786.2 L 4734.64,5258.63 Z " />
<text x="0" y="0" stroke="none" fill="#0000ff" transform="matrix(0.0833333 0 0 0.0833333 115.025 157.314)" font-style="normal" font-weight="normal" font-size="197.719px" font-family="Arial" >
O</text>
<text x="0" y="0" stroke="none" fill="#0000ff" transform="matrix(0.0833333 0 0 0.0833333 3.81228 207.398)" font-style="normal" font-weight="normal" font-size="200px" font-family="Arial" >
OHC</text>
<path stroke="none" fill="#0000ff" transform="matrix(0.0833333 0 0 0.0833333 -274.583 -296)" d="M 4232.58,6251.22 L 4232.58,6262.77 L 4222.58,6268.54 L 3808.3,6029.36 L 3818.3,6012.04 L 4232.58,6251.22 Z " />
<path stroke="none" fill="#0000ff" transform="matrix(0.0833333 0 0 0.0833333 -274.583 -296)" d="M 5311.81,6251.22 L 5271.81,6262.77 L 5301.81,6233.9 L 5780.86,5957.32 L 5791.43,5962.77 L 5791.43,5974.32 L 5311.81,6251.22 Z " />
<text x="0" y="0" stroke="none" fill="#ff0000" transform="matrix(0.0833333 0 0 0.0833333 245.319 232.398)" font-style="normal" font-weight="normal" font-size="200px" font-family="Arial" >
N</text>
<text x="0" y="0" stroke="none" fill="#ff0000" transform="matrix(0.0833333 0 0 0.0833333 190.119 157.356)" font-style="normal" font-weight="normal" font-size="198.479px" font-family="Arial" >
HN</text>
<path stroke="none" fill="#800000" transform="matrix(0.0833333 0 0 0.0833333 -274.583 -296)" d="M 5791.43,5974.32 L 5791.43,5962.77 L 5801.99,5957.32 L 6212.1,6194.1 L 6202.1,6211.42 L 5791.43,5974.32 Z " />
<path stroke="none" fill="#ff0000" transform="matrix(0.0833333 0 0 0.0833333 -274.583 -296)" d="M 6419.66,6211.61 L 6409.66,6194.29 L 6820.66,5957 L 6840.66,5968.54 L 6419.66,6211.61 Z " />
<path stroke="none" fill="#ff0000" transform="matrix(0.0833333 0 0 0.0833333 -274.583 -296)" d="M 6840.66,5968.54 L 6820.66,5957 L 6820.66,5368.54 L 6830.66,5362.77 L 6840.66,5368.54 L 6840.66,5968.54 Z " />
<path stroke="none" fill="#ff0000" transform="matrix(0.0833333 0 0 0.0833333 -274.583 -296)" d="M 6830.66,5351.22 L 6830.66,5362.77 L 6820.66,5368.54 L 6311.04,5074.32 L 6311.04,5062.77 L 6321.04,5057 L 6830.66,5351.22 Z " />
<path stroke="none" fill="#ff0000" transform="matrix(0.0833333 0 0 0.0833333 -274.583 -296)" d="M 6835.66,5270.97 L 6825.66,5288.29 L 6378.04,5029.86 L 6388.04,5012.54 L 6835.66,5270.97 Z " />
<path stroke="none" fill="#ff0000" transform="matrix(0.0833333 0 0 0.0833333 -274.583 -296)" d="M 6301.04,5057 L 6311.04,5062.77 L 6311.04,5074.32 L 5898.73,5312.37 L 5888.73,5295.05 L 6301.04,5057 Z " />
<path stroke="none" fill="#800000" transform="matrix(0.0833333 0 0 0.0833333 -274.583 -296)" d="M 5731.43,5481.77 L 5851.43,5481.77 L 5801.99,5957.32 L 5791.43,5962.77 L 5780.86,5957.32 L 5731.43,5481.77 Z " />
<path stroke="none" fill="#ff0000" transform="matrix(0.0833333 0 0 0.0833333 -274.583 -296)" d="M 6840.66,5368.54 L 6830.66,5362.77 L 6830.66,5351.22 L 7340.27,5057 L 7360.27,5068.54 L 6840.66,5368.54 Z " />
<path stroke="none" fill="#ff0000" transform="matrix(0.0833333 0 0 0.0833333 -274.583 -296)" d="M 7360.27,5068.54 L 7340.27,5057 L 7340.27,4468.54 L 7360.27,4457 L 7360.27,5068.54 Z " />
<path stroke="none" fill="#ff0000" transform="matrix(0.0833333 0 0 0.0833333 -274.583 -296)" d="M 7288.27,5021.2 L 7268.27,5021.2 L 7268.27,4504.34 L 7288.27,4504.34 L 7288.27,5021.2 Z " />
<path stroke="none" fill="#ff0000" transform="matrix(0.0833333 0 0 0.0833333 -274.583 -296)" d="M 7360.27,4457 L 7340.27,4468.54 L 7089.73,4323.89 L 7100.99,4307.3 L 7360.27,4457 L 7360.27,4457 Z " />
<path stroke="none" fill="#ff0000" transform="matrix(0.0833333 0 0 0.0833333 -274.583 -296)" d="M 6830.66,4174.32 L 6830.66,4151.22 L 7014.16,4257.17 L 7002.9,4273.76 L 6830.66,4174.32 L 6830.66,4174.32 Z " />
<path stroke="none" fill="#ff0000" transform="matrix(0.0833333 0 0 0.0833333 -274.583 -296)" d="M 6830.66,4151.22 L 6830.66,4174.32 L 6321.04,4468.54 L 6301.04,4457 L 6830.66,4151.22 Z " />
<path stroke="none" fill="#ff0000" transform="matrix(0.0833333 0 0 0.0833333 -274.583 -296)" d="M 6825.66,4237.25 L 6835.66,4254.57 L 6388.04,4513 L 6378.04,4495.68 L 6825.66,4237.25 Z " />
<path stroke="none" fill="#ff0000" transform="matrix(0.0833333 0 0 0.0833333 -274.583 -296)" d="M 6301.04,4457 L 6321.04,4468.54 L 6321.04,5057 L 6311.04,5062.77 L 6301.04,5057 L 6301.04,4457 Z " />
<text x="0" y="0" stroke="none" fill="#ff0000" transform="matrix(0.0833333 0 0 0.0833333 245.365 282.356)" font-style="normal" font-weight="normal" font-size="198.479px" font-family="Arial" >
R</text>
<text x="0" y="0" stroke="none" fill="#ff0000" transform="matrix(0.0833333 0 0 0.0833333 257.309 275.898)" font-style="normal" font-weight="normal" font-size="148.859px" font-family="Arial" >
3</text>
<path stroke="none" fill="#ff0000" transform="matrix(0.0833333 0 0 0.0833333 -274.583 -296)" d="M 6301.04,6380.1 L 6321.04,6380.1 L 6321.04,6718.77 L 6301.04,6718.77 L 6301.04,6380.1 Z " />
<text x="0" y="0" stroke="none" fill="#ff0000" transform="matrix(0.0833333 0 0 0.0833333 328.177 36.9547)" font-style="normal" font-weight="normal" font-size="198.479px" font-family="Arial" >
R</text>
<text x="0" y="0" stroke="none" fill="#ff0000" transform="matrix(0.0833333 0 0 0.0833333 340.122 30.4964)" font-style="normal" font-weight="normal" font-size="148.859px" font-family="Arial" >
2</text>
<path stroke="none" fill="#ff0000" transform="matrix(0.0833333 0 0 0.0833333 -274.583 -296)" d="M 6953.4,4453.54 L 6936.85,4442.31 L 7220.73,4024.02 L 7237.28,4035.25 L 6953.4,4453.54 Z " />
<text x="0" y="0" stroke="none" fill="#000000" transform="matrix(0.0833333 0 0 0.0833333 51.9196 204.869)" font-style="italic" font-weight="normal" font-size="415.676px" font-family="Arial" >
(aS)</text>
<text x="0" y="0" stroke="none" fill="#000000" transform="matrix(0.0833333 0 0 0.0833333 43.2391 144.105)" font-style="italic" font-weight="normal" font-size="415.676px" font-family="Arial" >
(aR)</text>
<text x="0" y="0" stroke="none" fill="#ff0000" transform="matrix(0.0833333 0 0 0.0833333 331.458 232.439)" font-style="normal" font-weight="bold" font-size="200px" font-family="Arial" >
O</text>
<path stroke="none" fill="#ff0000" transform="matrix(0.0833333 0 0 0.0833333 -274.583 -296)" d="M 6825.66,5929.86 L 6835.66,5912.54 L 7277.37,6167.56 L 7267.37,6184.88 L 6825.66,5929.86 Z " />
<path stroke="none" fill="#ff0000" transform="matrix(0.0833333 0 0 0.0833333 -274.583 -296)" d="M 6789.66,5992.22 L 6799.66,5974.9 L 7241.37,6229.92 L 7231.37,6247.24 L 6789.66,5992.22 Z " />
</svg>
