<?xml version="1.0" standalone="no" ?>
<!DOCTYPE svg PUBLIC "-//W3C//DTD SVG 1.1//EN" "http://www.w3.org/Graphics/SVG/1.1/DTD/svg11.dtd">
<svg width="317px" height="330px" viewBox="0 0 317 330" style="background-color: #ffffff00" xmlns="http://www.w3.org/2000/svg" xmlns:xlink="http://www.w3.org/1999/xlink" version="1.1" >
<text x="0" y="0" stroke="none" fill="#0000ff" transform="matrix(0.0833333 0 0 0.0833333 164.035 181.337)" font-style="normal" font-weight="bold" font-size="198.479px" font-family="Arial" >
N</text>
<path stroke="none" fill="#0000ff" transform="matrix(0.0833333 0 0 0.0833333 -291.583 -284)" d="M 4375.69,5434.2 L 4338.61,5320.08 L 4358.08,5315.3 L 4394.25,5426.61 L 4375.69,5434.2 Z " />
<path stroke="none" fill="#0000ff" transform="matrix(0.0833333 0 0 0.0833333 -291.583 -284)" d="M 4426.41,5413.47 L 4391.83,5307.03 L 4411.31,5302.26 L 4444.98,5405.88 L 4426.41,5413.47 Z " />
<path stroke="none" fill="#0000ff" transform="matrix(0.0833333 0 0 0.0833333 -291.583 -284)" d="M 4477.13,5392.74 L 4445.05,5293.99 L 4464.53,5289.22 L 4495.7,5385.15 L 4477.13,5392.74 Z " />
<path stroke="none" fill="#0000ff" transform="matrix(0.0833333 0 0 0.0833333 -291.583 -284)" d="M 4527.86,5372.01 L 4498.27,5280.95 L 4517.75,5276.18 L 4546.42,5364.42 L 4527.86,5372.01 Z " />
<path stroke="none" fill="#0000ff" transform="matrix(0.0833333 0 0 0.0833333 -291.583 -284)" d="M 4578.58,5351.27 L 4551.49,5267.91 L 4570.97,5263.14 L 4597.14,5343.69 L 4578.58,5351.27 Z " />
<path stroke="none" fill="#0000ff" transform="matrix(0.0833333 0 0 0.0833333 -291.583 -284)" d="M 4629.3,5330.54 L 4604.72,5254.87 L 4624.2,5250.1 L 4647.87,5322.95 L 4629.3,5330.54 Z " />
<path stroke="none" fill="#0000ff" transform="matrix(0.0833333 0 0 0.0833333 -291.583 -284)" d="M 4680.03,5309.81 L 4657.94,5241.83 L 4677.42,5237.05 L 4698.59,5302.22 L 4680.03,5309.81 Z " />
<path stroke="none" fill="#0000ff" transform="matrix(0.0833333 0 0 0.0833333 -291.583 -284)" d="M 4730.75,5289.08 L 4711.16,5228.79 L 4730.64,5224.01 L 4749.31,5281.49 L 4730.75,5289.08 Z " />
<path stroke="none" fill="#0000ff" transform="matrix(0.0833333 0 0 0.0833333 -291.583 -284)" d="M 4781.47,5268.34 L 4764.38,5215.74 L 4783.86,5210.97 L 4800.04,5260.76 L 4781.47,5268.34 Z " />
<path stroke="none" fill="#0000ff" transform="matrix(0.0833333 0 0 0.0833333 -291.583 -284)" d="M 4832.2,5247.61 L 4817.6,5202.7 L 4837.08,5197.93 L 4850.76,5240.02 L 4832.2,5247.61 Z " />
<path stroke="none" fill="#0000ff" transform="matrix(0.0833333 0 0 0.0833333 -291.583 -284)" d="M 4882.92,5226.88 L 4870.83,5189.66 L 4890.31,5184.89 L 4901.48,5219.29 L 4882.92,5226.88 Z " />
<path stroke="none" fill="#0000ff" transform="matrix(0.0833333 0 0 0.0833333 -291.583 -284)" d="M 4933.64,5206.15 L 4924.05,5176.62 L 4943.53,5171.85 L 4952.21,5198.56 L 4933.64,5206.15 Z " />
<path stroke="none" fill="#0000ff" transform="matrix(0.0833333 0 0 0.0833333 -291.583 -284)" d="M 4984.37,5185.41 L 4977.27,5163.58 L 4996.75,5158.81 L 5002.93,5177.83 L 4984.37,5185.41 Z " />
<path stroke="none" fill="#0000ff" transform="matrix(0.0833333 0 0 0.0833333 -291.583 -284)" d="M 5039.5,5155.43 L 5063.01,5147.79 L 5443.42,5424.17 L 5431.66,5440.35 L 5039.5,5155.43 Z " />
<path stroke="none" fill="#800000" transform="matrix(0.0833333 0 0 0.0833333 -291.583 -284)" d="M 5063.01,5147.79 L 5039.5,5155.43 L 5226.31,4580.49 L 5237.59,4578.13 L 5244.85,4588.13 L 5063.01,5147.79 Z " />
<path stroke="none" fill="#ff0000" transform="matrix(0.0833333 0 0 0.0833333 -291.583 -284)" d="M 5244.85,4588.13 L 5237.59,4578.13 L 5243.32,4568.13 L 5835.49,4568.13 L 5840.58,4578.13 L 5833.32,4588.13 L 5244.85,4588.13 Z " />
<path stroke="none" fill="#6a0000" transform="matrix(0.0833333 0 0 0.0833333 -291.583 -284)" d="M 5833.32,4588.13 L 5840.58,4578.13 L 5851.67,4579.89 L 6038.67,5155.43 L 6015.16,5147.79 L 5833.32,4588.13 Z " />
<path stroke="none" fill="#6a0000" transform="matrix(0.0833333 0 0 0.0833333 -291.583 -284)" d="M 5778.5,4653.58 L 5797.52,4647.4 L 5951.36,5120.88 L 5932.34,5127.06 L 5778.5,4653.58 Z " />
<path stroke="none" fill="#0000ff" transform="matrix(0.0833333 0 0 0.0833333 -291.583 -284)" d="M 6015.16,5147.79 L 6038.67,5155.43 L 5645.64,5440.98 L 5633.88,5424.8 L 6015.16,5147.79 Z " />
<path stroke="none" fill="#ff0000" transform="matrix(0.0833333 0 0 0.0833333 -291.583 -284)" d="M 5851.67,4579.89 L 5840.58,4578.13 L 5835.49,4568.13 L 6190.31,4079.75 L 6199.71,4100.85 L 5851.67,4579.89 Z " />
<text x="0" y="0" stroke="none" fill="#ff0000" transform="matrix(0.0833333 0 0 0.0833333 197.797 17.4532)" font-style="normal" font-weight="bold" font-size="198.479px" font-family="Arial" >
O</text>
<path stroke="none" fill="#ff0000" transform="matrix(0.0833333 0 0 0.0833333 -291.583 -284)" d="M 6179.59,4120.03 L 6161.32,4128.17 L 5954.98,3664.72 L 5973.25,3656.59 L 6179.59,4120.03 Z " />
<path stroke="none" fill="#ff0000" transform="matrix(0.0833333 0 0 0.0833333 -291.583 -284)" d="M 6245.69,4090.6 L 6227.42,4098.73 L 6021.09,3635.29 L 6039.36,3627.16 L 6245.69,4090.6 Z " />
<text x="0" y="0" stroke="none" fill="#ff0000" transform="matrix(0.0833333 0 0 0.0833333 268.669 68.6107)" font-style="normal" font-weight="bold" font-size="198.479px" font-family="Arial" >
H</text>
<path stroke="none" fill="#ff0000" transform="matrix(0.0833333 0 0 0.0833333 -291.583 -284)" d="M 6199.71,4100.85 L 6190.31,4079.75 L 6699.92,4133.31 L 6697.83,4153.2 L 6199.71,4100.85 Z " />
<text x="0" y="0" stroke="none" fill="#ff0000" transform="matrix(0.0833333 0 0 0.0833333 109.374 63.3583)" font-style="normal" font-weight="bold" font-size="198.479px" font-family="Arial" >
R</text>
<path stroke="none" fill="#ff0000" transform="matrix(0.0833333 0 0 0.0833333 -291.583 -284)" d="M 5243.32,4568.13 L 5237.59,4578.13 L 5226.31,4580.49 L 4917.38,4239.48 L 5014.46,4168.94 L 5243.32,4568.13 Z " />
<path stroke="none" fill="#0000ff" transform="matrix(0.0833333 0 0 0.0833333 -291.583 -284)" d="M 5529.09,6103.26 L 5539.09,6109.03 L 5539.09,6120.58 L 5026.88,6416.3 L 5006.88,6404.75 L 5529.09,6103.26 Z " />
<path stroke="none" fill="#0000ff" transform="matrix(0.0833333 0 0 0.0833333 -291.583 -284)" d="M 5534.09,6183.92 L 5544.09,6201.24 L 5094.24,6460.96 L 5084.24,6443.64 L 5534.09,6183.92 Z " />
<path stroke="none" fill="#0000ff" transform="matrix(0.0833333 0 0 0.0833333 -291.583 -284)" d="M 5006.88,6404.75 L 5026.88,6416.3 L 5026.88,7007.75 L 5006.88,7019.29 L 5006.88,6404.75 Z " />
<path stroke="none" fill="#0000ff" transform="matrix(0.0833333 0 0 0.0833333 -291.583 -284)" d="M 5006.88,7019.29 L 5026.88,7007.75 L 5539.09,7303.47 L 5539.09,7326.56 L 5006.88,7019.29 Z " />
<path stroke="none" fill="#0000ff" transform="matrix(0.0833333 0 0 0.0833333 -291.583 -284)" d="M 5084.24,6980.4 L 5094.24,6963.08 L 5544.09,7222.8 L 5534.09,7240.12 L 5084.24,6980.4 Z " />
<path stroke="none" fill="#0000ff" transform="matrix(0.0833333 0 0 0.0833333 -291.583 -284)" d="M 5539.09,7326.56 L 5539.09,7303.47 L 6051.29,7007.75 L 6071.29,7019.29 L 5539.09,7326.56 Z " />
<path stroke="none" fill="#0000ff" transform="matrix(0.0833333 0 0 0.0833333 -291.583 -284)" d="M 6071.29,7019.29 L 6051.29,7007.75 L 6051.29,6416.3 L 6061.29,6410.53 L 6071.29,6416.3 L 6071.29,7019.29 Z " />
<path stroke="none" fill="#0000ff" transform="matrix(0.0833333 0 0 0.0833333 -291.583 -284)" d="M 5998.93,6971.74 L 5978.93,6971.74 L 5978.93,6452.3 L 5998.93,6452.3 L 5998.93,6971.74 Z " />
<path stroke="none" fill="#0000ff" transform="matrix(0.0833333 0 0 0.0833333 -291.583 -284)" d="M 6061.29,6398.98 L 6061.29,6410.53 L 6051.29,6416.3 L 5539.09,6120.58 L 5539.09,6109.03 L 5549.09,6103.26 L 6061.29,6398.98 Z " />
<text x="0" y="0" stroke="none" fill="#0000ff" transform="matrix(0.0833333 0 0 0.0833333 251.526 231.586)" font-style="normal" font-weight="bold" font-size="198.479px" font-family="Arial" >
S</text>
<path stroke="none" fill="#0000ff" transform="matrix(0.0833333 0 0 0.0833333 -291.583 -284)" d="M 6071.29,6416.3 L 6061.29,6410.53 L 6061.29,6398.98 L 6483.06,6155.47 L 6493.06,6172.79 L 6071.29,6416.3 Z " />
<text x="0" y="0" stroke="none" fill="#440021" transform="matrix(0.0833333 0 0 0.0833333 294.586 256.711)" font-style="normal" font-weight="bold" font-size="198.479px" font-family="Arial" >
R</text>
<text x="0" y="0" stroke="none" fill="#440021" transform="matrix(0.0833333 0 0 0.0833333 306.531 250.211)" font-style="normal" font-weight="bold" font-size="148.859px" font-family="Arial" >
1</text>
<path stroke="none" fill="#008000" transform="matrix(0.0833333 0 0 0.0833333 -291.583 -284)" d="M 6674.31,6173.01 L 6684.31,6155.69 L 7004.33,6340.45 L 6994.33,6357.78 L 6674.31,6173.01 Z " />
<path stroke="none" fill="#0000ff" transform="matrix(0.0833333 0 0 0.0833333 -291.583 -284)" d="M 5529.09,5619.54 L 5549.09,5619.54 L 5549.09,6103.26 L 5539.09,6109.03 L 5529.09,6103.26 L 5529.09,5619.54 Z " />
<text x="0" y="0" stroke="none" fill="#0000ff" transform="matrix(0.0833333 0 0 0.0833333 3.40331 128.318)" font-style="normal" font-weight="bold" font-size="200px" font-family="Arial" >
Ar</text>
<path stroke="none" fill="#0000ff" transform="matrix(0.0833333 0 0 0.0833333 -291.583 -284)" d="M 4312.42,5386.41 L 4299.04,5401.28 L 3780.87,4934.71 L 3794.25,4919.85 L 4312.42,5386.41 Z " />
<text x="0" y="0" stroke="none" fill="#0000ff" transform="matrix(0.0833333 0 0 0.0833333 47.1641 235.925)" font-style="normal" font-weight="bold" font-size="200px" font-family="Arial" >
O</text>
<path stroke="none" fill="#0000ff" transform="matrix(0.0833333 0 0 0.0833333 -291.583 -284)" d="M 4347.6,5374.98 L 4367.17,5379.14 L 4221.69,6063.53 L 4202.13,6059.37 L 4347.6,5374.98 Z " />
<path stroke="none" fill="#0000ff" transform="matrix(0.0833333 0 0 0.0833333 -291.583 -284)" d="M 4255.59,5355.43 L 4275.15,5359.58 L 4129.68,6043.97 L 4110.12,6039.81 L 4255.59,5355.43 Z " />
</svg>
