<?xml version="1.0" standalone="no" ?>
<!DOCTYPE svg PUBLIC "-//W3C//DTD SVG 1.1//EN" "http://www.w3.org/Graphics/SVG/1.1/DTD/svg11.dtd">
<svg width="357px" height="332px" viewBox="0 0 357 332" style="background-color: #ffffff00" xmlns="http://www.w3.org/2000/svg" xmlns:xlink="http://www.w3.org/1999/xlink" version="1.1" >
<path stroke="none" fill="#0000ff" transform="matrix(0.0833333 0 0 0.0833333 -271.583 -282)" d="M 3306.97,5504.6 L 3326.97,5516.15 L 3326.97,6104.6 L 3306.97,6116.15 L 3306.97,5504.6 Z " />
<path stroke="none" fill="#0000ff" transform="matrix(0.0833333 0 0 0.0833333 -271.583 -282)" d="M 3378.97,5551.94 L 3398.97,5551.94 L 3398.97,6068.81 L 3378.97,6068.81 L 3378.97,5551.94 Z " />
<path stroke="none" fill="#0000ff" transform="matrix(0.0833333 0 0 0.0833333 -271.583 -282)" d="M 3306.97,6116.15 L 3326.97,6104.6 L 3836.56,6398.83 L 3836.55,6421.92 L 3306.97,6116.15 Z " />
<path stroke="none" fill="#0000ff" transform="matrix(0.0833333 0 0 0.0833333 -271.583 -282)" d="M 3836.55,6421.92 L 3836.56,6398.83 L 4346.55,6104.6 L 4356.55,6110.38 L 4356.55,6121.92 L 3836.55,6421.92 Z " />
<path stroke="none" fill="#0000ff" transform="matrix(0.0833333 0 0 0.0833333 -271.583 -282)" d="M 3841.57,6335.86 L 3831.57,6318.54 L 4279.52,6060.11 L 4289.51,6077.43 L 3841.57,6335.86 Z " />
<path stroke="none" fill="#0000ff" transform="matrix(0.0833333 0 0 0.0833333 -271.583 -282)" d="M 4366.55,6104.6 L 4356.55,6110.38 L 4346.55,6104.6 L 4346.55,5516.15 L 4356.55,5510.37 L 4366.55,5516.15 L 4366.55,6104.6 Z " />
<path stroke="none" fill="#0000ff" transform="matrix(0.0833333 0 0 0.0833333 -271.583 -282)" d="M 4356.55,5498.83 L 4356.55,5510.37 L 4346.55,5516.15 L 3836.56,5221.92 L 3836.55,5198.83 L 4356.55,5498.83 Z " />
<path stroke="none" fill="#0000ff" transform="matrix(0.0833333 0 0 0.0833333 -271.583 -282)" d="M 4289.51,5543.32 L 4279.52,5560.64 L 3831.57,5302.21 L 3841.57,5284.89 L 4289.51,5543.32 Z " />
<path stroke="none" fill="#0000ff" transform="matrix(0.0833333 0 0 0.0833333 -271.583 -282)" d="M 3836.55,5198.83 L 3836.56,5221.92 L 3326.97,5516.15 L 3306.97,5504.6 L 3836.55,5198.83 Z " />
<text x="0" y="0" stroke="none" fill="#0000ff" transform="matrix(0.0833333 0 0 0.0833333 129.203 258.74)" font-style="normal" font-weight="bold" font-size="200px" font-family="Arial" >
S</text>
<text x="0" y="0" stroke="none" fill="#0000ff" transform="matrix(0.0833333 0 0 0.0833333 128.743 158.74)" font-style="normal" font-weight="bold" font-size="200px" font-family="Arial" >
N</text>
<path stroke="none" fill="#0000ff" transform="matrix(0.0833333 0 0 0.0833333 -271.583 -282)" d="M 4356.55,6121.92 L 4356.55,6110.38 L 4366.55,6104.6 L 4788.27,6348.09 L 4778.27,6365.41 L 4356.55,6121.92 Z " />
<path stroke="none" fill="#6a0000" transform="matrix(0.0833333 0 0 0.0833333 -271.583 -282)" d="M 4972.01,6366.57 L 4962.01,6349.25 L 5385.72,6104.6 L 5395.72,6110.38 L 5383.84,6128.78 L 4972.01,6366.57 Z " />
<path stroke="none" fill="#0000ff" transform="matrix(0.0833333 0 0 0.0833333 -271.583 -282)" d="M 5405.72,6110.38 L 5395.72,6110.38 L 5385.72,6104.6 L 5385.72,5516.81 L 5395.72,5510.37 L 5405.72,5514.83 L 5405.72,6110.38 Z " />
<path stroke="none" fill="#0000ff" transform="matrix(0.0833333 0 0 0.0833333 -271.583 -282)" d="M 5395.01,5497.56 L 5395.72,5510.37 L 5385.72,5516.81 L 4954.59,5324.95 L 5014.59,5221.03 L 5395.01,5497.56 Z " />
<path stroke="none" fill="#0000ff" transform="matrix(0.0833333 0 0 0.0833333 -271.583 -282)" d="M 4761.61,5264.95 L 4771.62,5282.27 L 4366.55,5516.15 L 4356.55,5510.37 L 4356.55,5498.83 L 4761.61,5264.95 Z " />
<path stroke="none" fill="#6a0000" transform="matrix(0.0833333 0 0 0.0833333 -271.583 -282)" d="M 5405.72,5514.83 L 5395.72,5510.37 L 5395.01,5497.56 L 5829.46,5106.55 L 5853.65,5111.7 L 5405.72,5514.83 Z " />
<path stroke="none" fill="#008000" transform="matrix(0.0833333 0 0 0.0833333 -271.583 -282)" d="M 5853.65,5111.7 L 5829.46,5106.55 L 5591.21,4571.49 L 5597.39,4560.79 L 5608.6,4561.38 L 5853.65,5111.7 Z " />
<path stroke="none" fill="#6a0000" transform="matrix(0.0833333 0 0 0.0833333 -271.583 -282)" d="M 5591.28,4551.38 L 5597.39,4560.79 L 5591.21,4571.49 L 5008.99,4632.48 L 4992.45,4614.1 L 5591.28,4551.38 Z " />
<path stroke="none" fill="#6a0000" transform="matrix(0.0833333 0 0 0.0833333 -271.583 -282)" d="M 5551.85,4627.89 L 5553.93,4647.78 L 5061.32,4699.38 L 5059.24,4679.49 L 5551.85,4627.89 Z " />
<path stroke="none" fill="#0000ff" transform="matrix(0.0833333 0 0 0.0833333 -271.583 -282)" d="M 4992.45,4614.1 L 5008.99,4632.48 L 4910.47,5096.76 L 4890.91,5092.61 L 4992.45,4614.1 Z " />
<path stroke="none" fill="#ff0000" transform="matrix(0.0833333 0 0 0.0833333 -271.583 -282)" d="M 5608.6,4561.38 L 5597.39,4560.79 L 5591.28,4551.38 L 5885.84,4041.21 L 5908.94,4041.21 L 5608.6,4561.38 Z " />
<text x="0" y="0" stroke="none" fill="#ff0000" transform="matrix(0.0833333 0 0 0.0833333 188.848 18.0102)" font-style="normal" font-weight="bold" font-size="200px" font-family="Arial" >
H</text>
<path stroke="none" fill="#ff0000" transform="matrix(0.0833333 0 0 0.0833333 -271.583 -282)" d="M 5908.94,4041.21 L 5885.84,4041.21 L 5654.9,3641.23 L 5672.22,3631.22 L 5908.94,4041.21 Z " />
<path stroke="none" fill="#0000ff" transform="matrix(0.0833333 0 0 0.0833333 -271.583 -282)" d="M 5437.56,6146.08 L 5447.56,6128.76 L 5465.9,6137 L 5453.87,6157.84 L 5437.56,6146.08 Z " />
<path stroke="none" fill="#0000ff" transform="matrix(0.0833333 0 0 0.0833333 -271.583 -282)" d="M 5485.64,6180.76 L 5501.63,6153.06 L 5519.97,6161.3 L 5501.94,6192.52 L 5485.64,6180.76 Z " />
<path stroke="none" fill="#0000ff" transform="matrix(0.0833333 0 0 0.0833333 -271.583 -282)" d="M 5533.71,6215.44 L 5555.7,6177.35 L 5574.04,6185.59 L 5550.02,6227.21 L 5533.71,6215.44 Z " />
<path stroke="none" fill="#0000ff" transform="matrix(0.0833333 0 0 0.0833333 -271.583 -282)" d="M 5581.79,6250.12 L 5609.78,6201.65 L 5628.11,6209.89 L 5598.09,6261.89 L 5581.79,6250.12 Z " />
<path stroke="none" fill="#0000ff" transform="matrix(0.0833333 0 0 0.0833333 -271.583 -282)" d="M 5629.86,6284.81 L 5663.85,6225.95 L 5682.18,6234.19 L 5646.16,6296.57 L 5629.86,6284.81 Z " />
<path stroke="none" fill="#0000ff" transform="matrix(0.0833333 0 0 0.0833333 -271.583 -282)" d="M 5677.94,6319.49 L 5717.92,6250.24 L 5736.25,6258.48 L 5694.24,6331.25 L 5677.94,6319.49 Z " />
<path stroke="none" fill="#0000ff" transform="matrix(0.0833333 0 0 0.0833333 -271.583 -282)" d="M 5726.01,6354.17 L 5771.99,6274.54 L 5790.33,6282.78 L 5742.31,6365.93 L 5726.01,6354.17 Z " />
<path stroke="none" fill="#0000ff" transform="matrix(0.0833333 0 0 0.0833333 -271.583 -282)" d="M 5774.09,6388.85 L 5826.06,6298.83 L 5844.4,6307.07 L 5790.39,6400.61 L 5774.09,6388.85 Z " />
<path stroke="none" fill="#0000ff" transform="matrix(0.0833333 0 0 0.0833333 -271.583 -282)" d="M 5822.16,6423.53 L 5880.13,6323.13 L 5898.47,6331.37 L 5838.46,6435.29 L 5822.16,6423.53 Z " />
<text x="0" y="0" stroke="none" fill="#ff0000" transform="matrix(0.0833333 0 0 0.0833333 258.119 160.684)" font-style="normal" font-weight="bold" font-size="200px" font-family="Arial" >
R</text>
<path stroke="none" fill="#ff0000" transform="matrix(0.0833333 0 0 0.0833333 -271.583 -282)" d="M 5892.31,5130.12 L 5896.46,5110.55 L 5916.5,5112.46 L 5911.4,5136.51 L 5892.31,5130.12 Z " />
<path stroke="none" fill="#ff0000" transform="matrix(0.0833333 0 0 0.0833333 -271.583 -282)" d="M 5949.03,5149.12 L 5956.01,5116.22 L 5976.05,5118.13 L 5968.12,5155.52 L 5949.03,5149.12 Z " />
<path stroke="none" fill="#ff0000" transform="matrix(0.0833333 0 0 0.0833333 -271.583 -282)" d="M 6005.76,5168.13 L 6015.57,5121.89 L 6035.61,5123.8 L 6024.84,5174.52 L 6005.76,5168.13 Z " />
<path stroke="none" fill="#ff0000" transform="matrix(0.0833333 0 0 0.0833333 -271.583 -282)" d="M 6062.48,5187.13 L 6075.12,5127.56 L 6095.16,5129.47 L 6081.57,5193.52 L 6062.48,5187.13 Z " />
<path stroke="none" fill="#ff0000" transform="matrix(0.0833333 0 0 0.0833333 -271.583 -282)" d="M 6119.2,5206.13 L 6134.67,5133.24 L 6154.71,5135.14 L 6138.29,5212.53 L 6119.2,5206.13 Z " />
<path stroke="none" fill="#ff0000" transform="matrix(0.0833333 0 0 0.0833333 -271.583 -282)" d="M 6175.93,5225.14 L 6194.23,5138.91 L 6214.27,5140.81 L 6195.01,5231.53 L 6175.93,5225.14 Z " />
<path stroke="none" fill="#ff0000" transform="matrix(0.0833333 0 0 0.0833333 -271.583 -282)" d="M 6232.65,5244.14 L 6253.78,5144.58 L 6273.82,5146.48 L 6251.74,5250.54 L 6232.65,5244.14 Z " />
<path stroke="none" fill="#ff0000" transform="matrix(0.0833333 0 0 0.0833333 -271.583 -282)" d="M 6289.37,5263.15 L 6313.33,5150.25 L 6333.37,5152.16 L 6308.46,5269.54 L 6289.37,5263.15 Z " />
<path stroke="none" fill="#0000ff" transform="matrix(0.0833333 0 0 0.0833333 -271.583 -282)" d="M 5905.31,6404.6 L 5925.31,6416.15 L 5925.31,7005.02 L 5905.31,7016.57 L 5905.31,6404.6 Z " />
<path stroke="none" fill="#0000ff" transform="matrix(0.0833333 0 0 0.0833333 -271.583 -282)" d="M 5977.36,6451.97 L 5997.36,6451.97 L 5997.36,6969.2 L 5977.36,6969.2 L 5977.36,6451.97 Z " />
<path stroke="none" fill="#0000ff" transform="matrix(0.0833333 0 0 0.0833333 -271.583 -282)" d="M 5905.31,7016.57 L 5925.31,7005.02 L 6434.89,7299.25 L 6434.89,7322.34 L 5905.31,7016.57 Z " />
<path stroke="none" fill="#0000ff" transform="matrix(0.0833333 0 0 0.0833333 -271.583 -282)" d="M 6434.89,7322.34 L 6434.89,7299.25 L 6944.89,7005.02 L 6964.89,7016.57 L 6434.89,7322.34 Z " />
<path stroke="none" fill="#0000ff" transform="matrix(0.0833333 0 0 0.0833333 -271.583 -282)" d="M 6439.9,7236.28 L 6429.91,7218.95 L 6877.85,6960.52 L 6887.85,6977.85 L 6439.9,7236.28 Z " />
<path stroke="none" fill="#0000ff" transform="matrix(0.0833333 0 0 0.0833333 -271.583 -282)" d="M 6964.89,7016.57 L 6944.89,7005.02 L 6944.89,6416.15 L 6964.89,6404.6 L 6964.89,7016.57 Z " />
<path stroke="none" fill="#0000ff" transform="matrix(0.0833333 0 0 0.0833333 -271.583 -282)" d="M 6964.89,6404.6 L 6944.89,6416.15 L 6434.89,6121.92 L 6434.89,6098.83 L 6964.89,6404.6 Z " />
<path stroke="none" fill="#0000ff" transform="matrix(0.0833333 0 0 0.0833333 -271.583 -282)" d="M 6887.85,6443.32 L 6877.85,6460.65 L 6429.91,6202.22 L 6439.9,6184.89 L 6887.85,6443.32 Z " />
<path stroke="none" fill="#0000ff" transform="matrix(0.0833333 0 0 0.0833333 -271.583 -282)" d="M 6434.89,6098.83 L 6434.89,6121.92 L 5925.31,6416.15 L 5905.31,6404.6 L 6434.89,6098.83 Z " />
<text x="0" y="0" stroke="none" fill="#0000ff" transform="matrix(0.0833333 0 0 0.0833333 171.578 283.74)" font-style="normal" font-weight="bold" font-size="200px" font-family="Arial" >
OH</text>
<path stroke="none" fill="#0000ff" transform="matrix(0.0833333 0 0 0.0833333 -271.583 -282)" d="M 5383.84,6128.78 L 5395.72,6110.38 L 5405.72,6110.38 L 5455.72,6599.71 L 5335.72,6599.71 L 5383.84,6128.78 Z " />
<text x="0" y="0" stroke="none" fill="#0000ff" transform="matrix(0.0833333 0 0 0.0833333 333.848 284.434)" font-style="normal" font-weight="bold" font-size="200px" font-family="Arial" >
R</text>
<text x="0" y="0" stroke="none" fill="#0000ff" transform="matrix(0.0833333 0 0 0.0833333 345.884 277.892)" font-style="normal" font-weight="bold" font-size="150px" font-family="Arial" >
1</text>
<path stroke="none" fill="#0000ff" transform="matrix(0.0833333 0 0 0.0833333 -271.583 -282)" d="M 6736.97,6728.71 L 6736.97,6708.71 L 7240.17,6708.71 L 7240.17,6728.71 L 6736.97,6728.71 Z " />
<text x="0" y="0" stroke="none" fill="#ff0000" transform="matrix(0.0833333 0 0 0.0833333 263.384 61.3089)" font-style="normal" font-weight="bold" font-size="200px" font-family="Arial" >
O</text>
<path stroke="none" fill="#ff0000" transform="matrix(0.0833333 0 0 0.0833333 -271.583 -282)" d="M 5876.6,4015.21 L 5876.6,3995.21 L 6388.61,3995.21 L 6388.61,4015.21 L 5876.6,4015.21 Z " />
<path stroke="none" fill="#ff0000" transform="matrix(0.0833333 0 0 0.0833333 -271.583 -282)" d="M 5876.6,4087.21 L 5876.6,4067.21 L 6388.61,4067.21 L 6388.61,4087.21 L 5876.6,4087.21 Z " />
</svg>
