<?xml version="1.0" standalone="no" ?>
<!DOCTYPE svg PUBLIC "-//W3C//DTD SVG 1.1//EN" "http://www.w3.org/Graphics/SVG/1.1/DTD/svg11.dtd">
<svg width="364px" height="336px" viewBox="0 0 364 336" style="background-color: #ffffff00" xmlns="http://www.w3.org/2000/svg" xmlns:xlink="http://www.w3.org/1999/xlink" version="1.1" >
<path stroke="none" fill="#0000ff" transform="matrix(0.0833333 0 0 0.0833333 -268.583 -281)" d="M 3263.55,6445.48 L 3283.55,6457.03 L 3283.55,7045.48 L 3263.55,7057.03 L 3263.55,6445.48 Z " />
<path stroke="none" fill="#0000ff" transform="matrix(0.0833333 0 0 0.0833333 -268.583 -281)" d="M 3335.55,6492.83 L 3355.55,6492.83 L 3355.55,7009.69 L 3335.55,7009.69 L 3335.55,6492.83 Z " />
<path stroke="none" fill="#0000ff" transform="matrix(0.0833333 0 0 0.0833333 -268.583 -281)" d="M 3263.55,7057.03 L 3283.55,7045.48 L 3793.16,7339.71 L 3793.16,7362.8 L 3263.55,7057.03 Z " />
<path stroke="none" fill="#0000ff" transform="matrix(0.0833333 0 0 0.0833333 -268.583 -281)" d="M 3793.16,7362.8 L 3793.16,7339.71 L 4302.78,7045.48 L 4312.78,7051.26 L 4313.92,7062.14 L 3793.16,7362.8 Z " />
<path stroke="none" fill="#0000ff" transform="matrix(0.0833333 0 0 0.0833333 -268.583 -281)" d="M 3798.16,7276.78 L 3788.16,7259.46 L 4235.78,7001.03 L 4245.78,7018.35 L 3798.16,7276.78 Z " />
<path stroke="none" fill="#0000ff" transform="matrix(0.0833333 0 0 0.0833333 -268.583 -281)" d="M 4322.78,7043.99 L 4312.78,7051.26 L 4302.78,7045.48 L 4302.78,6457.03 L 4312.78,6451.26 L 4322.78,6490.07 L 4322.78,7043.99 Z " />
<path stroke="none" fill="#0000ff" transform="matrix(0.0833333 0 0 0.0833333 -268.583 -281)" d="M 4278.96,6420.19 L 4312.78,6451.26 L 4302.78,6457.03 L 3793.16,6162.8 L 3793.16,6139.71 L 4278.96,6420.19 Z " />
<path stroke="none" fill="#0000ff" transform="matrix(0.0833333 0 0 0.0833333 -268.583 -281)" d="M 4245.78,6484.17 L 4235.78,6501.49 L 3788.16,6243.06 L 3798.16,6225.74 L 4245.78,6484.17 Z " />
<path stroke="none" fill="#0000ff" transform="matrix(0.0833333 0 0 0.0833333 -268.583 -281)" d="M 3793.16,6139.71 L 3793.16,6162.8 L 3283.55,6457.03 L 3263.55,6445.48 L 3793.16,6139.71 Z " />
<text x="0" y="0" stroke="none" fill="#0000ff" transform="matrix(0.0833333 0 0 0.0833333 128.874 328.556)" font-style="normal" font-weight="normal" font-size="200px" font-family="Arial" >
R</text>
<text x="0" y="0" stroke="none" fill="#0000ff" transform="matrix(0.0833333 0 0 0.0833333 140.91 332.222)" font-style="normal" font-weight="normal" font-size="150px" font-family="Arial" >
1</text>
<path stroke="none" fill="#0000ff" transform="matrix(0.0833333 0 0 0.0833333 -268.583 -281)" d="M 4313.92,7062.14 L 4312.78,7051.26 L 4322.78,7043.99 L 4741.47,7180.03 L 4735.29,7199.05 L 4313.92,7062.14 Z " />
<path stroke="none" fill="#0000ff" transform="matrix(0.0833333 0 0 0.0833333 -268.583 -281)" d="M 4941.73,7173.42 L 4925.54,7161.66 L 5223.72,6751.26 L 5248.44,6751.26 L 4941.73,7173.42 Z " />
<path stroke="none" fill="#0000ff" transform="matrix(0.0833333 0 0 0.0833333 -268.583 -281)" d="M 5248.44,6751.26 L 5223.72,6751.26 L 4898.13,6303.12 L 4883.41,6265.85 L 4894.5,6264.09 L 5248.44,6751.26 Z " />
<path stroke="none" fill="#000000" transform="matrix(0.0833333 0 0 0.0833333 -268.583 -281)" d="M 4886.94,6222.64 L 4883.41,6265.85 L 4898.13,6303.12 L 4322.78,6490.07 L 4312.78,6451.26 L 4278.96,6420.19 L 4886.94,6222.64 Z " />
<path stroke="none" fill="#0000ff" transform="matrix(0.0833333 0 0 0.0833333 -268.583 -281)" d="M 4894.5,6264.09 L 4883.41,6265.85 L 4886.94,6222.64 L 5057.53,5697.61 L 5068.82,5695.21 L 5065.84,5736.74 L 4894.5,6264.09 Z " />
<path stroke="none" fill="#0000ff" transform="matrix(0.0833333 0 0 0.0833333 -268.583 -281)" d="M 4835.78,6211.8 L 4816.76,6205.62 L 4977.99,5709.41 L 4997.01,5715.59 L 4835.78,6211.8 Z " />
<path stroke="none" fill="#0000ff" transform="matrix(0.0833333 0 0 0.0833333 -268.583 -281)" d="M 5049.21,5658.49 L 5068.82,5695.21 L 5057.53,5697.61 L 4663.78,5260.31 L 4667.34,5249.33 L 4678.64,5246.93 L 5049.21,5658.49 Z " />
<path stroke="none" fill="#000000" transform="matrix(0.0833333 0 0 0.0833333 -268.583 -281)" d="M 5065.84,5736.74 L 5068.82,5695.21 L 5049.21,5658.49 L 5669.46,5526.65 L 5641.96,5614.28 L 5065.84,5736.74 Z " />
<path stroke="none" fill="#008000" transform="matrix(0.0833333 0 0 0.0833333 -268.583 -281)" d="M 5641.96,5614.28 L 5669.46,5526.65 L 5944.16,5050.85 L 5955.71,5050.85 L 5944.16,5090.85 L 5641.96,5614.28 Z " />
<path stroke="none" fill="#008000" transform="matrix(0.0833333 0 0 0.0833333 -268.583 -281)" d="M 5618.04,5511.7 L 5600.72,5501.7 L 5863.91,5045.85 L 5881.23,5055.85 L 5618.04,5511.7 Z " />
<text x="0" y="0" stroke="none" fill="#ff0000" transform="matrix(0.0833333 0 0 0.0833333 271.708 146.404)" font-style="normal" font-weight="normal" font-size="200px" font-family="Arial" >
N</text>
<path stroke="none" fill="#000000" transform="matrix(0.0833333 0 0 0.0833333 -268.583 -281)" d="M 5944.16,5090.85 L 5955.71,5050.85 L 5944.16,5010.85 L 6459.49,5010.85 L 6459.49,5090.85 L 5944.16,5090.85 Z " />
<path stroke="none" fill="#000000" transform="matrix(0.0833333 0 0 0.0833333 -268.583 -281)" d="M 5944.16,5010.85 L 5955.71,5050.85 L 5944.16,5050.85 L 5649.94,4541.23 L 5655.71,4531.23 L 5667.26,4531.23 L 5944.16,5010.85 Z " />
<path stroke="none" fill="#0000ff" transform="matrix(0.0833333 0 0 0.0833333 -268.583 -281)" d="M 4678.64,5246.93 L 4667.34,5249.33 L 4659.62,5240.75 L 4841.46,4681.09 L 4864.05,4676.29 L 4678.64,5246.93 Z " />
<path stroke="none" fill="#0000ff" transform="matrix(0.0833333 0 0 0.0833333 -268.583 -281)" d="M 4621.22,5190.63 L 4602.2,5184.45 L 4761.92,4692.89 L 4780.94,4699.07 L 4621.22,5190.63 Z " />
<path stroke="none" fill="#0000ff" transform="matrix(0.0833333 0 0 0.0833333 -268.583 -281)" d="M 4864.05,4676.29 L 4841.46,4681.09 L 4447.71,4243.79 L 4454.84,4221.82 L 4864.05,4676.29 Z " />
<path stroke="none" fill="#0000ff" transform="matrix(0.0833333 0 0 0.0833333 -268.583 -281)" d="M 4454.84,4221.82 L 4447.71,4243.79 L 3872.11,4366.13 L 3856.66,4348.97 L 4454.84,4221.82 Z " />
<path stroke="none" fill="#0000ff" transform="matrix(0.0833333 0 0 0.0833333 -268.583 -281)" d="M 4423.51,4302.09 L 4427.66,4321.66 L 3922.1,4429.12 L 3917.94,4409.55 L 4423.51,4302.09 Z " />
<path stroke="none" fill="#0000ff" transform="matrix(0.0833333 0 0 0.0833333 -268.583 -281)" d="M 3856.66,4348.97 L 3872.11,4366.13 L 3690.27,4925.79 L 3667.68,4930.59 L 3856.66,4348.97 Z " />
<path stroke="none" fill="#0000ff" transform="matrix(0.0833333 0 0 0.0833333 -268.583 -281)" d="M 3667.68,4930.59 L 3690.27,4925.79 L 4084.02,5363.09 L 4076.89,5385.06 L 3667.68,4930.59 Z " />
<path stroke="none" fill="#0000ff" transform="matrix(0.0833333 0 0 0.0833333 -268.583 -281)" d="M 3752.87,4917.59 L 3767.73,4904.21 L 4113.58,5288.31 L 4098.71,5301.7 L 3752.87,4917.59 Z " />
<path stroke="none" fill="#0000ff" transform="matrix(0.0833333 0 0 0.0833333 -268.583 -281)" d="M 4076.89,5385.06 L 4084.02,5363.09 L 4659.62,5240.75 L 4667.34,5249.33 L 4663.78,5260.31 L 4076.89,5385.06 Z " />
<path stroke="none" fill="#008000" transform="matrix(0.0833333 0 0 0.0833333 -268.583 -281)" d="M 5667.26,4531.23 L 5655.71,4531.23 L 5649.94,4521.23 L 5944.16,4011.62 L 5967.26,4011.62 L 5667.26,4531.23 Z " />
<path stroke="none" fill="#008000" transform="matrix(0.0833333 0 0 0.0833333 -268.583 -281)" d="M 5622.8,4464.23 L 5605.48,4454.23 L 5863.91,4006.62 L 5881.23,4016.62 L 5622.8,4464.23 Z " />
<path stroke="none" fill="#008000" transform="matrix(0.0833333 0 0 0.0833333 -268.583 -281)" d="M 5967.26,4011.62 L 5944.16,4011.62 L 5822.28,3800.51 L 5839.6,3790.51 L 5967.26,4011.62 L 5967.26,4011.62 Z " />
<path stroke="none" fill="#008000" transform="matrix(0.0833333 0 0 0.0833333 -268.583 -281)" d="M 5649.94,3502 L 5661.48,3482 L 5789.6,3703.9 L 5772.28,3713.9 L 5649.94,3502 L 5649.94,3502 Z " />
<path stroke="none" fill="#008000" transform="matrix(0.0833333 0 0 0.0833333 -268.583 -281)" d="M 5661.48,3482 L 5649.94,3502 L 5061.48,3502 L 5049.94,3482 L 5661.48,3482 Z " />
<path stroke="none" fill="#008000" transform="matrix(0.0833333 0 0 0.0833333 -268.583 -281)" d="M 5614.14,3554 L 5614.14,3574 L 5097.28,3574 L 5097.28,3554 L 5614.14,3554 Z " />
<path stroke="none" fill="#008000" transform="matrix(0.0833333 0 0 0.0833333 -268.583 -281)" d="M 5049.94,3482 L 5061.48,3502 L 4767.26,4011.62 L 4744.16,4011.62 L 5049.94,3482 Z " />
<path stroke="none" fill="#008000" transform="matrix(0.0833333 0 0 0.0833333 -268.583 -281)" d="M 4744.16,4011.62 L 4767.26,4011.62 L 5061.48,4521.23 L 5049.94,4541.23 L 4744.16,4011.62 Z " />
<path stroke="none" fill="#008000" transform="matrix(0.0833333 0 0 0.0833333 -268.583 -281)" d="M 4830.19,4016.62 L 4847.51,4006.62 L 5105.94,4454.23 L 5088.62,4464.23 L 4830.19,4016.62 Z " />
<path stroke="none" fill="#008000" transform="matrix(0.0833333 0 0 0.0833333 -268.583 -281)" d="M 5049.94,4541.23 L 5061.48,4521.23 L 5649.94,4521.23 L 5655.71,4531.23 L 5649.94,4541.23 L 5049.94,4541.23 Z " />
<text x="0" y="0" stroke="none" fill="#0000ff" transform="matrix(0.0833333 0 0 0.0833333 211.275 288.105)" font-style="normal" font-weight="normal" font-size="200px" font-family="Arial" >
O</text>
<path stroke="none" fill="#0000ff" transform="matrix(0.0833333 0 0 0.0833333 -268.583 -281)" d="M 5209.93,6725.26 L 5209.93,6705.26 L 5728.3,6705.26 L 5728.3,6725.26 L 5209.93,6725.26 Z " />
<path stroke="none" fill="#0000ff" transform="matrix(0.0833333 0 0 0.0833333 -268.583 -281)" d="M 5209.93,6797.26 L 5209.93,6777.26 L 5728.3,6777.26 L 5728.3,6797.26 L 5209.93,6797.26 Z " />
<text x="0" y="0" stroke="none" fill="#ff0000" transform="matrix(0.0833333 0 0 0.0833333 349.11 171.404)" font-style="normal" font-weight="normal" font-size="200px" font-family="Arial" >
Y</text>
<path stroke="none" fill="#ff0000" transform="matrix(0.0833333 0 0 0.0833333 -268.583 -281)" d="M 6627.18,5166.23 L 6643.36,5154.47 L 6912.2,5524.5 L 6904.56,5548.02 L 6627.18,5166.23 Z " />
<path stroke="none" fill="#ff0000" transform="matrix(0.0833333 0 0 0.0833333 -268.583 -281)" d="M 6904.56,5548.02 L 6912.2,5524.5 L 7405.22,5364.31 L 7411.4,5383.33 L 6904.56,5548.02 Z " />
<path stroke="none" fill="#ff0000" transform="matrix(0.0833333 0 0 0.0833333 -268.583 -281)" d="M 7489.01,5248.18 L 7469.01,5248.18 L 7469.01,4758.12 L 7489.01,4743.58 L 7489.01,5248.18 Z " />
<path stroke="none" fill="#ff0000" transform="matrix(0.0833333 0 0 0.0833333 -268.583 -281)" d="M 7489.01,4743.58 L 7469.01,4758.12 L 6912.2,4577.2 L 6904.56,4553.68 L 7489.01,4743.58 Z " />
<path stroke="none" fill="#ff0000" transform="matrix(0.0833333 0 0 0.0833333 -268.583 -281)" d="M 6904.56,4553.68 L 6912.2,4577.2 L 6636.38,4956.82 L 6620.2,4945.07 L 6904.56,4553.68 Z " />
<path stroke="#ff0000" stroke-width="20" fill="none" transform="matrix(0.0833333 0 0 0.0833333 -268.583 -281)" d="M 6948.88,5685.29 A 527.914,527.914 0 0 0 7031.47,5163.88" />
<path stroke="#ff0000" stroke-width="20" fill="none" transform="matrix(0.0833333 0 0 0.0833333 -268.583 -281)" d="M 6873.99,5130.24 A 533.107,533.107 0 0 0 6736.01,5645.18" />
<text x="0" y="0" stroke="none" fill="#ff0000" transform="matrix(0.0833333 0 0 0.0833333 320.714 203.489)" font-style="normal" font-weight="normal" font-size="415.676px" font-family="Arial" >
n</text>
<text x="0" y="0" stroke="none" fill="#008000" transform="matrix(0.0833333 0 0 0.0833333 232.936 22.4885)" font-style="normal" font-weight="normal" font-size="200px" font-family="Arial" >
R</text>
<text x="0" y="0" stroke="none" fill="#008000" transform="matrix(0.0833333 0 0 0.0833333 244.972 15.9885)" font-style="normal" font-weight="normal" font-size="150px" font-family="Arial" >
2</text>
<path stroke="none" fill="#008000" transform="matrix(0.0833333 0 0 0.0833333 -268.583 -281)" d="M 5617.54,3872.52 L 5607.54,3855.2 L 5985.58,3636.94 L 5995.58,3654.26 L 5617.54,3872.52 Z " />
</svg>
