<?xml version="1.0" standalone="no" ?>
<!DOCTYPE svg PUBLIC "-//W3C//DTD SVG 1.1//EN" "http://www.w3.org/Graphics/SVG/1.1/DTD/svg11.dtd">
<svg width="1146px" height="246px" viewBox="0 0 1146 246" style="background-color: #ffffff00" xmlns="http://www.w3.org/2000/svg" xmlns:xlink="http://www.w3.org/1999/xlink" version="1.1" >
<path stroke="none" fill="#000000" transform="matrix(0.0833333 0 0 0.0833333 -56.6667 -193)" d="M 3137.28,4162.03 L 3207.84,4162.03 L 3207.84,4174.03 L 3137.28,4174.03 Z " />
<path stroke="none" fill="#000000" transform="matrix(0.0833333 0 0 0.0833333 -56.6667 -193)" d="M 3178.56,4132.75 L 3178.56,4203.31 L 3166.56,4203.31 L 3166.56,4132.75 Z " />
<path stroke="none" fill="#ff0000" transform="matrix(0.0833333 0 0 0.0833333 -56.6667 -193)" d="M 1623.38,4040.19 L 1615.88,4035.86 L 1615.88,4027.2 L 1909.28,3857.75 L 1909.28,3875.08 L 1623.38,4040.19 Z " />
<path stroke="none" fill="#ff0000" transform="matrix(0.0833333 0 0 0.0833333 -56.6667 -193)" d="M 1909.28,3875.08 L 1909.28,3857.75 L 2202.67,4027.2 L 2202.67,4044.52 L 1909.28,3875.08 Z " />
<path stroke="none" fill="#ff0000" transform="matrix(0.0833333 0 0 0.0833333 -56.6667 -193)" d="M 1936.03,3820.1 L 1943.53,3807.11 L 2206.44,3958.95 L 2198.94,3971.94 L 1936.03,3820.1 Z " />
<path stroke="none" fill="#ff0000" transform="matrix(0.0833333 0 0 0.0833333 -56.6667 -193)" d="M 2202.67,4044.52 L 2202.67,4027.2 L 2496.38,3857.75 L 2496.38,3875.07 L 2202.67,4044.52 Z " />
<text x="0" y="0" stroke="none" fill="#ff0000" transform="matrix(0.0833333 0 0 0.0833333 166.766 153.356)" font-style="normal" font-weight="normal" font-size="240px" font-family="Arial" >
O</text>
<path stroke="none" fill="#ff0000" transform="matrix(0.0833333 0 0 0.0833333 -56.6667 -193)" d="M 2496.38,3875.07 L 2496.38,3857.75 L 2689.69,3969.4 L 2682.19,3982.38 L 2496.38,3875.07 Z " />
<path stroke="none" fill="#ff0000" transform="matrix(0.0833333 0 0 0.0833333 -56.6667 -193)" d="M 2492.62,3943.33 L 2500.12,3930.34 L 2659.19,4022.21 L 2651.69,4035.2 L 2492.62,3943.33 Z " />
<text x="0" y="0" stroke="none" fill="#0000ff" transform="matrix(0.0833333 0 0 0.0833333 288.027 186.366)" font-style="normal" font-weight="normal" font-size="240px" font-family="Arial" >
S</text>
<text x="0" y="0" stroke="none" fill="#0000ff" transform="matrix(0.0833333 0 0 0.0833333 287.476 140.813)" font-style="normal" font-weight="normal" font-size="240px" font-family="Arial" >
N</text>
<path stroke="none" fill="#0000ff" transform="matrix(0.0833333 0 0 0.0833333 -56.6667 -193)" d="M 3887.86,4359.34 L 3902.86,4348.45 L 4113.1,4416.89 L 4108.46,4431.15 L 3887.86,4359.34 Z " />
<path stroke="none" fill="#0000ff" transform="matrix(0.0833333 0 0 0.0833333 -56.6667 -193)" d="M 4291.97,4367.12 L 4279.84,4358.3 L 4405.73,4185.07 L 4424.27,4185.07 L 4291.97,4367.12 Z " />
<path stroke="none" fill="#0000ff" transform="matrix(0.0833333 0 0 0.0833333 -56.6667 -193)" d="M 4424.27,4185.07 L 4405.73,4185.07 L 4301.21,4041.26 L 4313.34,4032.44 L 4424.27,4185.07 Z " />
<path stroke="none" fill="#0000ff" transform="matrix(0.0833333 0 0 0.0833333 -56.6667 -193)" d="M 4345.89,4180.66 L 4333.75,4189.48 L 4252.01,4077.01 L 4264.15,4068.2 L 4345.89,4180.66 Z " />
<path stroke="none" fill="#0000ff" transform="matrix(0.0833333 0 0 0.0833333 -56.6667 -193)" d="M 4093.79,3943.77 L 4098.43,3958.04 L 3902.86,4021.7 L 3895.36,4016.25 L 3896.21,4008.09 L 4093.79,3943.77 Z " />
<path stroke="none" fill="#0000ff" transform="matrix(0.0833333 0 0 0.0833333 -56.6667 -193)" d="M 4264.46,3788.25 L 4250.19,3783.61 L 4315.07,3584.31 L 4326.65,3597.18 L 4264.46,3788.25 Z " />
<path stroke="none" fill="#0000ff" transform="matrix(0.0833333 0 0 0.0833333 -56.6667 -193)" d="M 4326.65,3597.18 L 4315.07,3584.31 L 4645.17,3514.02 L 4656.77,3526.89 L 4326.65,3597.18 Z " />
<text x="0" y="0" stroke="none" fill="#0000ff" transform="matrix(0.0833333 0 0 0.0833333 221.353 135.453)" font-style="normal" font-weight="normal" font-size="240px" font-family="Arial" >
Me</text>
<path stroke="none" fill="#0000ff" transform="matrix(0.0833333 0 0 0.0833333 -56.6667 -193)" d="M 3902.86,4348.45 L 3887.86,4359.34 L 3887.86,4020.58 L 3895.36,4016.25 L 3902.86,4021.7 L 3902.86,4348.45 Z " />
<path stroke="none" fill="#0000ff" transform="matrix(0.0833333 0 0 0.0833333 -56.6667 -193)" d="M 3963.63,4309.76 L 3948.63,4309.76 L 3948.63,4060.38 L 3963.63,4060.38 L 3963.63,4309.76 Z " />
<path stroke="none" fill="#0000ff" transform="matrix(0.0833333 0 0 0.0833333 -56.6667 -193)" d="M 3896.21,4008.09 L 3895.36,4016.25 L 3887.86,4020.58 L 3703.06,3913.91 L 3710.56,3900.92 L 3896.21,4008.09 Z " />
<text x="0" y="0" stroke="none" fill="#0000ff" transform="matrix(0.0833333 0 0 0.0833333 276.979 123.393)" font-style="normal" font-weight="normal" font-size="240px" font-family="Arial" >
Br</text>
<text x="0" y="0" stroke="none" fill="#0000ff" transform="matrix(0.0833333 0 0 0.0833333 1068.43 177.732)" font-style="normal" font-weight="normal" font-size="240px" font-family="Arial" >
N</text>
<text x="0" y="0" stroke="none" fill="#0000ff" transform="matrix(0.0833333 0 0 0.0833333 1068.43 194.357)" font-style="normal" font-weight="normal" font-size="240px" font-family="Arial" >
H</text>
<path stroke="none" fill="#0000ff" transform="matrix(0.0833333 0 0 0.0833333 -56.6667 -193)" d="M 13311,4162.97 L 13312.3,4154.64 L 13321.1,4151.78 L 13479.7,4266.94 L 13470.8,4279.08 L 13311,4162.97 Z " />
<path stroke="none" fill="#6a0000" transform="matrix(0.0833333 0 0 0.0833333 -56.6667 -193)" d="M 13321.1,4151.78 L 13312.3,4154.64 L 13306.4,4148.71 L 13409.2,3832.12 L 13417.6,3830.8 L 13423,3838.3 L 13321.1,4151.78 Z " />
<path stroke="none" fill="#6a0000" transform="matrix(0.0833333 0 0 0.0833333 -56.6667 -193)" d="M 13391.5,4133.55 L 13377.2,4128.91 L 13454.9,3889.78 L 13469.2,3894.41 L 13391.5,4133.55 Z " />
<path stroke="none" fill="#ff0000" transform="matrix(0.0833333 0 0 0.0833333 -56.6667 -193)" d="M 13423,3838.3 L 13417.6,3830.8 L 13421.4,3823.3 L 13754.2,3823.3 L 13758.1,3830.8 L 13752.6,3838.3 L 13423,3838.3 Z " />
<path stroke="none" fill="#6a0000" transform="matrix(0.0833333 0 0 0.0833333 -56.6667 -193)" d="M 13752.6,3838.3 L 13758.1,3830.8 L 13766.4,3832.12 L 13872.1,4157.51 L 13854.5,4151.78 L 13752.6,3838.3 Z " />
<path stroke="none" fill="#6a0000" transform="matrix(0.0833333 0 0 0.0833333 -56.6667 -193)" d="M 13706.4,3894.41 L 13720.7,3889.78 L 13798.4,4128.91 L 13784.1,4133.55 L 13706.4,3894.41 Z " />
<path stroke="none" fill="#0000ff" transform="matrix(0.0833333 0 0 0.0833333 -56.6667 -193)" d="M 13854.5,4151.78 L 13872.1,4157.51 L 13703.9,4279.71 L 13695.1,4267.57 L 13854.5,4151.78 Z " />
<path stroke="none" fill="#ff0000" transform="matrix(0.0833333 0 0 0.0833333 -56.6667 -193)" d="M 13766.4,3832.12 L 13758.1,3830.8 L 13754.2,3823.3 L 13949.6,3554.43 L 13966.8,3556.24 L 13766.4,3832.12 Z " />
<text x="0" y="0" stroke="none" fill="#ff0000" transform="matrix(0.0833333 0 0 0.0833333 1087.75 85.1888)" font-style="normal" font-weight="normal" font-size="240px" font-family="Arial" >
H</text>
<path stroke="none" fill="#ff0000" transform="matrix(0.0833333 0 0 0.0833333 -56.6667 -193)" d="M 13966.8,3556.24 L 13949.6,3554.43 L 13874.8,3386.54 L 13888.5,3380.44 L 13966.8,3556.24 Z " />
<text x="0" y="0" stroke="none" fill="#ff0000" transform="matrix(0.0833333 0 0 0.0833333 1126.96 114.077)" font-style="normal" font-weight="normal" font-size="240px" font-family="Arial" >
O</text>
<path stroke="none" fill="#ff0000" transform="matrix(0.0833333 0 0 0.0833333 -56.6667 -193)" d="M 13943,3530.46 L 13944.6,3515.54 L 14180.6,3540.35 L 14179,3555.27 L 13943,3530.46 Z " />
<path stroke="none" fill="#ff0000" transform="matrix(0.0833333 0 0 0.0833333 -56.6667 -193)" d="M 13936.6,3591.42 L 13938.2,3576.5 L 14174.2,3601.3 L 14172.6,3616.22 L 13936.6,3591.42 Z " />
<path stroke="none" fill="#0000ff" transform="matrix(0.0833333 0 0 0.0833333 -56.6667 -193)" d="M 13003.3,4249.05 L 12999.7,4266.03 L 12746.6,4038.17 L 12748.4,4029.7 L 12756.7,4027.02 L 13003.3,4249.05 Z " />
<text x="0" y="0" stroke="none" fill="#ff0000" transform="matrix(0.0833333 0 0 0.0833333 1037.56 111.111)" font-style="normal" font-weight="normal" font-size="240px" font-family="Arial" >
R</text>
<path stroke="none" fill="#ff0000" transform="matrix(0.0833333 0 0 0.0833333 -56.6667 -193)" d="M 13421.4,3823.3 L 13417.6,3830.8 L 13409.2,3832.12 L 13307.4,3691.98 L 13319.6,3683.16 L 13421.4,3823.3 Z " />
<path stroke="none" fill="#0000ff" transform="matrix(0.0833333 0 0 0.0833333 -56.6667 -193)" d="M 12742,4023.9 L 12748.4,4029.7 L 12746.6,4038.17 L 12422.8,4143.39 L 12426.4,4126.45 L 12742,4023.9 Z " />
<path stroke="none" fill="#0000ff" transform="matrix(0.0833333 0 0 0.0833333 -56.6667 -193)" d="M 12693.5,3975.21 L 12698.2,3989.47 L 12441.6,4072.83 L 12437,4058.56 L 12693.5,3975.21 Z " />
<path stroke="none" fill="#0000ff" transform="matrix(0.0833333 0 0 0.0833333 -56.6667 -193)" d="M 12426.4,4126.45 L 12422.8,4143.39 L 12163.3,3909.75 L 12179.8,3904.4 L 12426.4,4126.45 Z " />
<path stroke="none" fill="#0000ff" transform="matrix(0.0833333 0 0 0.0833333 -56.6667 -193)" d="M 12179.8,3904.4 L 12163.3,3909.75 L 12194,3765.65 L 12208.4,3769.97 L 12179.8,3904.4 L 12179.8,3904.4 Z " />
<path stroke="none" fill="#0000ff" transform="matrix(0.0833333 0 0 0.0833333 -56.6667 -193)" d="M 12235.9,3568.22 L 12248.8,3579.81 L 12228.2,3676.74 L 12213.8,3672.41 L 12235.9,3568.22 L 12235.9,3568.22 Z " />
<path stroke="none" fill="#0000ff" transform="matrix(0.0833333 0 0 0.0833333 -56.6667 -193)" d="M 12246.2,3886.77 L 12231.5,3883.65 L 12252.9,3783.32 L 12267.3,3787.64 L 12246.2,3886.77 L 12246.2,3886.77 Z " />
<path stroke="none" fill="#0000ff" transform="matrix(0.0833333 0 0 0.0833333 -56.6667 -193)" d="M 12287.6,3619.81 L 12302.3,3622.93 L 12287.1,3694.41 L 12272.7,3690.08 L 12287.6,3619.81 L 12287.6,3619.81 Z " />
<path stroke="none" fill="#0000ff" transform="matrix(0.0833333 0 0 0.0833333 -56.6667 -193)" d="M 12248.8,3579.81 L 12235.9,3568.22 L 12568,3460.32 L 12564.4,3477.27 L 12248.8,3579.81 Z " />
<path stroke="none" fill="#0000ff" transform="matrix(0.0833333 0 0 0.0833333 -56.6667 -193)" d="M 12564.4,3477.27 L 12568,3460.32 L 12827.5,3693.96 L 12811,3699.31 L 12564.4,3477.27 Z " />
<path stroke="none" fill="#0000ff" transform="matrix(0.0833333 0 0 0.0833333 -56.6667 -193)" d="M 12546.5,3543.59 L 12556.5,3532.45 L 12756.9,3712.93 L 12746.9,3724.08 L 12546.5,3543.59 Z " />
<path stroke="none" fill="#0000ff" transform="matrix(0.0833333 0 0 0.0833333 -56.6667 -193)" d="M 12811,3699.31 L 12827.5,3693.96 L 12756.7,4027.02 L 12748.4,4029.7 L 12742,4023.9 L 12811,3699.31 Z " />
<text x="0" y="0" stroke="none" fill="#0000ff" transform="matrix(0.0833333 0 0 0.0833333 1013.11 197.383)" font-style="normal" font-weight="normal" font-size="240px" font-family="Arial" >
O</text>
<path stroke="none" fill="#0000ff" transform="matrix(0.0833333 0 0 0.0833333 -56.6667 -193)" d="M 13027.8,4244.82 L 13042.5,4247.94 L 12992.7,4482.49 L 12978,4479.37 L 13027.8,4244.82 Z " />
<path stroke="none" fill="#0000ff" transform="matrix(0.0833333 0 0 0.0833333 -56.6667 -193)" d="M 12967.9,4232.3 L 12982.5,4235.42 L 12932.7,4469.75 L 12918,4466.63 L 12967.9,4232.3 Z " />
<text x="0" y="0" stroke="none" fill="#0000ff" transform="matrix(0.0833333 0 0 0.0833333 923.339 110.494)" font-style="normal" font-weight="normal" font-size="180px" font-family="Arial" >
1</text>
<text x="0" y="0" stroke="none" fill="#0000ff" transform="matrix(0.0833333 0 0 0.0833333 931.681 118.327)" font-style="normal" font-weight="normal" font-size="240px" font-family="Arial" >
R</text>
<path stroke="none" fill="#0000ff" transform="matrix(0.0833333 0 0 0.0833333 -56.6667 -193)" d="M 12359.4,3757.87 L 12355.1,3772.24 L 12061.8,3684.24 L 12066.1,3669.87 L 12359.4,3757.87 Z " />
<path stroke="none" fill="#000000" transform="matrix(0.0833333 0 0 0.0833333 -56.6667 -193)" d="M 11528,4150.86 L 10448.2,4150.86 L 10448.2,4135.86 L 11528,4135.86 Z " />
<path stroke="none" fill="#000000" transform="matrix(0.0833333 0 0 0.0833333 -56.6667 -193)" d="M 11658.2,4143.36 C 11658.2,4143.36 11508.2,4181.86 11508.2,4181.86 C 11508.2,4181.86 11527,4160.21 11527,4143.36 C 11527,4126.08 11508.2,4103.86 11508.2,4103.86 C 11508.2,4103.86 11658.2,4143.36 11658.2,4143.36 C 11658.2,4143.36 11658.2,4143.36 11658.2,4143.36 " />
<path stroke="#000000" stroke-width="1" fill="none" transform="matrix(0.0833333 0 0 0.0833333 -56.6667 -193)" d="M 11658.2,4143.36 C 11658.2,4143.36 11508.2,4181.86 11508.2,4181.86 C 11508.2,4181.86 11527,4160.21 11527,4143.36 C 11527,4126.08 11508.2,4103.86 11508.2,4103.86 C 11508.2,4103.86 11658.2,4143.36 11658.2,4143.36 C 11658.2,4143.36 11658.2,4143.36 11658.2,4143.36 " />
<text x="0" y="0" stroke="none" fill="#440021" transform="matrix(0.0833333 0 0 0.0833333 435.912 171.787)" font-style="normal" font-weight="normal" font-size="240px" font-family="Arial" >
N</text>
<text x="0" y="0" stroke="none" fill="#440021" transform="matrix(0.0833333 0 0 0.0833333 435.912 188.412)" font-style="normal" font-weight="normal" font-size="240px" font-family="Arial" >
H</text>
<path stroke="none" fill="#440021" transform="matrix(0.0833333 0 0 0.0833333 -56.6667 -193)" d="M 5666.72,3833.07 L 5681.72,3843.96 L 5681.72,4172.83 L 5666.72,4183.72 L 5666.72,3833.07 Z " />
<path stroke="none" fill="#440021" transform="matrix(0.0833333 0 0 0.0833333 -56.6667 -193)" d="M 5666.72,4183.72 L 5681.72,4172.83 L 5879.67,4237.21 L 5875.03,4251.47 L 5666.72,4183.72 Z " />
<path stroke="none" fill="#440021" transform="matrix(0.0833333 0 0 0.0833333 -56.6667 -193)" d="M 6086.07,4174.58 L 6073.94,4165.76 L 6188.29,4008.55 L 6197.56,4008.55 L 6201.38,4016.05 L 6086.07,4174.58 Z " />
<path stroke="none" fill="#440021" transform="matrix(0.0833333 0 0 0.0833333 -56.6667 -193)" d="M 6201.38,4001.05 L 6197.56,4008.55 L 6188.29,4008.55 L 5994.74,3742.16 L 6000.47,3724.52 L 6201.38,4001.05 Z " />
<path stroke="none" fill="#440021" transform="matrix(0.0833333 0 0 0.0833333 -56.6667 -193)" d="M 6000.47,3724.52 L 5994.74,3742.16 L 5681.72,3843.96 L 5666.72,3833.07 L 6000.47,3724.52 Z " />
<path stroke="none" fill="#440021" transform="matrix(0.0833333 0 0 0.0833333 -56.6667 -193)" d="M 6201.38,4016.05 L 6197.56,4008.55 L 6201.38,4001.05 L 6531.89,4001.05 L 6537.64,4008.55 L 6530.14,4016.05 L 6201.38,4016.05 Z " />
<path stroke="none" fill="#440021" transform="matrix(0.0833333 0 0 0.0833333 -56.6667 -193)" d="M 6547.42,4001.05 L 6537.64,4008.55 L 6531.89,4001.05 L 6617.44,3682.05 L 6625.81,3679.81 L 6631.93,3685.94 L 6547.42,4001.05 Z " />
<path stroke="none" fill="#440021" transform="matrix(0.0833333 0 0 0.0833333 -56.6667 -193)" d="M 6545.14,4016.05 L 6537.64,4008.55 L 6547.42,4001.05 L 6874.22,4001.05 L 6877.72,4008.55 L 6872.47,4016.05 L 6545.14,4016.05 Z " />
<path stroke="none" fill="#440021" transform="matrix(0.0833333 0 0 0.0833333 -56.6667 -193)" d="M 6631.93,3685.94 L 6625.81,3679.81 L 6628.05,3671.45 L 6948.11,3585.83 L 6960.36,3598.08 L 6631.93,3685.94 Z " />
<path stroke="none" fill="#440021" transform="matrix(0.0833333 0 0 0.0833333 -56.6667 -193)" d="M 6646.02,3618.82 L 6642.15,3604.33 L 6902.32,3534.73 L 6906.2,3549.22 L 6646.02,3618.82 Z " />
<path stroke="none" fill="#440021" transform="matrix(0.0833333 0 0 0.0833333 -56.6667 -193)" d="M 6960.36,3598.08 L 6948.11,3585.83 L 7033.73,3265.77 L 7050.45,3261.29 L 6960.36,3598.08 Z " />
<path stroke="none" fill="#440021" transform="matrix(0.0833333 0 0 0.0833333 -56.6667 -193)" d="M 7050.45,3261.29 L 7033.73,3265.77 L 6799.59,3031.32 L 6804.08,3014.59 L 7050.45,3261.29 Z " />
<path stroke="none" fill="#440021" transform="matrix(0.0833333 0 0 0.0833333 -56.6667 -193)" d="M 6979.16,3276.51 L 6968.54,3287.11 L 6778.22,3096.53 L 6788.83,3085.93 L 6979.16,3276.51 Z " />
<path stroke="none" fill="#440021" transform="matrix(0.0833333 0 0 0.0833333 -56.6667 -193)" d="M 6804.08,3014.59 L 6799.59,3031.32 L 6479.21,3117.25 L 6466.96,3105 L 6804.08,3014.59 Z " />
<path stroke="none" fill="#440021" transform="matrix(0.0833333 0 0 0.0833333 -56.6667 -193)" d="M 6466.96,3105 L 6479.21,3117.25 L 6393.6,3437.31 L 6376.87,3441.8 L 6466.96,3105 Z " />
<path stroke="none" fill="#440021" transform="matrix(0.0833333 0 0 0.0833333 -56.6667 -193)" d="M 6515.83,3159.14 L 6530.32,3163.01 L 6460.73,3423.16 L 6446.24,3419.29 L 6515.83,3159.14 Z " />
<path stroke="none" fill="#440021" transform="matrix(0.0833333 0 0 0.0833333 -56.6667 -193)" d="M 6376.87,3441.8 L 6393.6,3437.31 L 6628.05,3671.45 L 6625.81,3679.81 L 6617.44,3682.05 L 6376.87,3441.8 Z " />
<path stroke="none" fill="#440021" transform="matrix(0.0833333 0 0 0.0833333 -56.6667 -193)" d="M 6872.47,4016.05 L 6877.72,4008.55 L 6886.25,4010.06 L 6999.62,4321.4 L 6988.49,4334.67 L 6872.47,4016.05 Z " />
<path stroke="none" fill="#440021" transform="matrix(0.0833333 0 0 0.0833333 -56.6667 -193)" d="M 6940.27,4023.38 L 6954.36,4018.25 L 7046.51,4271.32 L 7032.42,4276.46 L 6940.27,4023.38 Z " />
<path stroke="none" fill="#440021" transform="matrix(0.0833333 0 0 0.0833333 -56.6667 -193)" d="M 6988.49,4334.67 L 6999.62,4321.4 L 7325.93,4378.89 L 7331.86,4395.16 L 6988.49,4334.67 Z " />
<path stroke="none" fill="#440021" transform="matrix(0.0833333 0 0 0.0833333 -56.6667 -193)" d="M 7331.86,4395.16 L 7325.93,4378.89 L 7538.88,4125.03 L 7555.93,4128.04 L 7331.86,4395.16 Z " />
<path stroke="none" fill="#440021" transform="matrix(0.0833333 0 0 0.0833333 -56.6667 -193)" d="M 7310.46,4325.44 L 7298.97,4315.8 L 7472.06,4109.46 L 7483.55,4119.1 L 7310.46,4325.44 Z " />
<path stroke="none" fill="#440021" transform="matrix(0.0833333 0 0 0.0833333 -56.6667 -193)" d="M 7555.93,4128.04 L 7538.88,4125.03 L 7425.51,3813.69 L 7436.64,3800.42 L 7555.93,4128.04 Z " />
<path stroke="none" fill="#440021" transform="matrix(0.0833333 0 0 0.0833333 -56.6667 -193)" d="M 7436.64,3800.42 L 7425.51,3813.69 L 7099.19,3756.2 L 7093.27,3739.93 L 7436.64,3800.42 Z " />
<path stroke="none" fill="#440021" transform="matrix(0.0833333 0 0 0.0833333 -56.6667 -193)" d="M 7386.96,3853.81 L 7384.35,3868.59 L 7119.11,3821.85 L 7121.71,3807.08 L 7386.96,3853.81 Z " />
<path stroke="none" fill="#440021" transform="matrix(0.0833333 0 0 0.0833333 -56.6667 -193)" d="M 7093.27,3739.93 L 7099.19,3756.2 L 6886.25,4010.06 L 6877.72,4008.55 L 6874.22,4001.05 L 7093.27,3739.93 Z " />
<text x="0" y="0" stroke="none" fill="#440021" transform="matrix(0.0833333 0 0 0.0833333 480.358 183.097)" font-style="normal" font-weight="normal" font-size="240px" font-family="Arial" >
OTMS</text>
<path stroke="none" fill="#440021" transform="matrix(0.0833333 0 0 0.0833333 -56.6667 -193)" d="M 6530.14,4016.05 L 6537.64,4008.55 L 6545.14,4016.05 L 6545.14,4301.17 L 6530.14,4301.17 L 6530.14,4016.05 Z " />
<path stroke="none" fill="#0000ff" transform="matrix(0.0833333 0 0 0.0833333 -56.6667 -193)" d="M 13306.4,4148.71 L 13312.3,4154.64 L 13311,4162.97 L 12999.7,4266.03 L 13003.3,4249.05 L 13306.4,4148.71 Z " />
<path stroke="#0000ff" stroke-width="12" fill="none" transform="matrix(0.0833333 0 0 0.0833333 -56.6667 -193)" d="M 4300.96,3876.79 A 62,62 0 1 1 4424.96,3876.79 A 62,62 0 1 1 4300.96,3876.79 Z " />
<path stroke="none" fill="#0000ff" transform="matrix(0.0833333 0 0 0.0833333 -56.6667 -193)" d="M 4327.24,3870.34 L 4397.79,3870.34 L 4397.79,3882.34 L 4327.24,3882.34 Z " />
<path stroke="none" fill="#0000ff" transform="matrix(0.0833333 0 0 0.0833333 -56.6667 -193)" d="M 4368.52,3841.06 L 4368.52,3911.62 L 4356.52,3911.62 L 4356.52,3841.06 Z " />
<path stroke="#0000ff" stroke-width="12" fill="none" transform="matrix(0.0833333 0 0 0.0833333 -56.6667 -193)" d="M 3977.08,3504.29 A 62,62 0 1 1 4101.08,3504.29 A 62,62 0 1 1 3977.08,3504.29 Z " />
<path stroke="none" fill="#0000ff" transform="matrix(0.0833333 0 0 0.0833333 -56.6667 -193)" d="M 4003.36,3497.85 L 4073.91,3497.85 L 4073.91,3509.85 L 4003.36,3509.85 Z " />
<path stroke="none" fill="#000000" transform="matrix(0.0833333 0 0 0.0833333 -56.6667 -193)" d="M 5203.51,4270.51 L 5274.06,4270.51 L 5274.06,4282.51 L 5203.51,4282.51 Z " />
<path stroke="none" fill="#000000" transform="matrix(0.0833333 0 0 0.0833333 -56.6667 -193)" d="M 5244.79,4241.23 L 5244.79,4311.79 L 5232.79,4311.79 L 5232.79,4241.23 Z " />
<text x="0" y="0" stroke="none" fill="#008000" transform="matrix(0.0833333 0 0 0.0833333 653.226 187.384)" font-style="normal" font-weight="normal" font-size="240px" font-family="Arial" >
N</text>
<path stroke="none" fill="#008000" transform="matrix(0.0833333 0 0 0.0833333 -56.6667 -193)" d="M 8303.43,3956.28 L 8318.43,3964.94 L 8318.43,4296.28 L 8303.43,4304.94 L 8303.43,3956.28 Z " />
<path stroke="none" fill="#008000" transform="matrix(0.0833333 0 0 0.0833333 -56.6667 -193)" d="M 8364.63,3995.94 L 8379.63,3995.94 L 8379.63,4265.27 L 8364.63,4265.27 L 8364.63,3995.94 Z " />
<path stroke="none" fill="#008000" transform="matrix(0.0833333 0 0 0.0833333 -56.6667 -193)" d="M 8303.43,4304.94 L 8318.43,4296.28 L 8491.05,4395.94 L 8483.55,4408.93 L 8303.43,4304.94 Z " />
<path stroke="none" fill="#008000" transform="matrix(0.0833333 0 0 0.0833333 -56.6667 -193)" d="M 8726.21,4409.5 L 8718.71,4396.51 L 8892.32,4296.28 L 8907.32,4304.94 L 8726.21,4409.5 Z " />
<path stroke="none" fill="#008000" transform="matrix(0.0833333 0 0 0.0833333 -56.6667 -193)" d="M 8695.61,4356.5 L 8688.11,4343.51 L 8834.87,4258.78 L 8842.37,4271.77 L 8695.61,4356.5 Z " />
<path stroke="none" fill="#008000" transform="matrix(0.0833333 0 0 0.0833333 -56.6667 -193)" d="M 8907.32,4304.94 L 8892.32,4296.28 L 8892.32,3964.94 L 8907.32,3956.28 L 8907.32,4304.94 Z " />
<path stroke="none" fill="#008000" transform="matrix(0.0833333 0 0 0.0833333 -56.6667 -193)" d="M 8907.32,3956.28 L 8892.32,3964.94 L 8605.38,3799.27 L 8605.38,3790.61 L 8612.88,3786.28 L 8907.32,3956.28 Z " />
<path stroke="none" fill="#008000" transform="matrix(0.0833333 0 0 0.0833333 -56.6667 -193)" d="M 8842.37,3989.45 L 8834.87,4002.44 L 8601.63,3867.77 L 8609.13,3854.78 L 8842.37,3989.45 Z " />
<path stroke="none" fill="#008000" transform="matrix(0.0833333 0 0 0.0833333 -56.6667 -193)" d="M 8597.88,3786.28 L 8605.38,3790.61 L 8605.38,3799.27 L 8318.43,3964.94 L 8303.43,3956.28 L 8597.88,3786.28 Z " />
<text x="0" y="0" stroke="none" fill="#008000" transform="matrix(0.0833333 0 0 0.0833333 653.226 102.384)" font-style="normal" font-weight="normal" font-size="240px" font-family="Arial" >
N</text>
<path stroke="none" fill="#008000" transform="matrix(0.0833333 0 0 0.0833333 -56.6667 -193)" d="M 8612.88,3786.28 L 8605.38,3790.61 L 8597.88,3786.28 L 8597.88,3584.11 L 8612.88,3584.11 L 8612.88,3786.28 Z " />
<text x="0" y="0" stroke="none" fill="#008000" transform="matrix(0.0833333 0 0 0.0833333 613.689 88.2172)" font-style="normal" font-weight="normal" font-size="240px" font-family="Arial" >
Me</text>
<path stroke="none" fill="#008000" transform="matrix(0.0833333 0 0 0.0833333 -56.6667 -193)" d="M 8491.05,3375.94 L 8483.55,3388.93 L 8411.08,3347.09 L 8418.58,3334.1 L 8491.05,3375.94 Z " />
<text x="0" y="0" stroke="none" fill="#008000" transform="matrix(0.0833333 0 0 0.0833333 676.655 88.2172)" font-style="normal" font-weight="normal" font-size="240px" font-family="Arial" >
Me</text>
<path stroke="none" fill="#008000" transform="matrix(0.0833333 0 0 0.0833333 -56.6667 -193)" d="M 8726.21,3389.5 L 8718.71,3376.51 L 8758.61,3353.48 L 8766.11,3366.47 L 8726.21,3389.5 Z " />
<path stroke="none" fill="#000000" transform="matrix(0.0833333 0 0 0.0833333 -56.6667 -193)" d="M 7894.77,4146.53 L 7965.32,4146.53 L 7965.32,4158.53 L 7894.77,4158.53 Z " />
<path stroke="none" fill="#000000" transform="matrix(0.0833333 0 0 0.0833333 -56.6667 -193)" d="M 7936.05,4117.26 L 7936.05,4187.81 L 7924.05,4187.81 L 7924.05,4117.26 Z " />
<path stroke="none" fill="#000000" transform="matrix(0.0833333 0 0 0.0833333 -56.6667 -193)" d="M 9186.16,4162.03 L 9256.71,4162.03 L 9256.71,4174.03 L 9186.16,4174.03 Z " />
<path stroke="none" fill="#000000" transform="matrix(0.0833333 0 0 0.0833333 -56.6667 -193)" d="M 9227.44,4132.75 L 9227.44,4203.31 L 9215.44,4203.31 L 9215.44,4132.75 Z " />
<text x="0" y="0" stroke="none" fill="#000000" transform="matrix(0.0833333 0 0 0.0833333 91.3859 237.103)" font-style="normal" font-weight="bold" font-size="240px" font-family="Arial" >
I</text>
<text x="0" y="0" stroke="none" fill="#000000" transform="matrix(0.0833333 0 0 0.0833333 280.36 237.103)" font-style="normal" font-weight="bold" font-size="240px" font-family="Arial" >
II</text>
<text x="0" y="0" stroke="none" fill="#000000" transform="matrix(0.0833333 0 0 0.0833333 437.048 237.103)" font-style="normal" font-weight="bold" font-size="240px" font-family="Arial" >
IV</text>
<text x="0" y="0" stroke="none" fill="#000000" transform="matrix(0.0833333 0 0 0.0833333 650.972 237.103)" font-style="normal" font-weight="bold" font-size="240px" font-family="Arial" >
V</text>
<text x="0" y="0" stroke="none" fill="#000000" transform="matrix(0.0833333 0 0 0.0833333 1040.56 237.103)" font-style="normal" font-weight="bold" font-size="240px" font-family="Arial" >
III</text>
<path stroke="none" fill="#ff0000" transform="matrix(0.0833333 0 0 0.0833333 -56.6667 -193)" d="M 1615.88,4027.2 L 1615.88,4035.86 L 1608.38,4040.19 L 1321.38,3874.61 L 1321.38,3857.29 L 1615.88,4027.2 Z " />
<path stroke="none" fill="#ff0000" transform="matrix(0.0833333 0 0 0.0833333 -56.6667 -193)" d="M 1558.43,4064.71 L 1550.93,4077.7 L 1317.64,3943.1 L 1325.13,3930.11 L 1558.43,4064.71 Z " />
<path stroke="none" fill="#ff0000" transform="matrix(0.0833333 0 0 0.0833333 -56.6667 -193)" d="M 1321.38,3857.29 L 1321.38,3874.61 L 1034.48,4040.19 L 1019.48,4031.53 L 1321.38,3857.29 Z " />
<path stroke="none" fill="#ff0000" transform="matrix(0.0833333 0 0 0.0833333 -56.6667 -193)" d="M 1019.48,4031.53 L 1034.48,4040.19 L 1034.48,4139.93 L 1019.48,4139.93 L 1019.48,4031.53 L 1019.48,4031.53 Z " />
<path stroke="none" fill="#ff0000" transform="matrix(0.0833333 0 0 0.0833333 -56.6667 -193)" d="M 1034.48,4371.53 L 1019.48,4380.19 L 1019.48,4234.93 L 1034.48,4234.93 L 1034.48,4371.53 L 1034.48,4371.53 Z " />
<path stroke="none" fill="#ff0000" transform="matrix(0.0833333 0 0 0.0833333 -56.6667 -193)" d="M 1080.68,4071.2 L 1095.68,4071.2 L 1095.68,4139.93 L 1080.68,4139.93 L 1080.68,4071.2 L 1080.68,4071.2 Z " />
<path stroke="none" fill="#ff0000" transform="matrix(0.0833333 0 0 0.0833333 -56.6667 -193)" d="M 1095.68,4340.52 L 1080.68,4340.52 L 1080.68,4234.93 L 1095.68,4234.93 L 1095.68,4340.52 L 1095.68,4340.52 Z " />
<path stroke="none" fill="#ff0000" transform="matrix(0.0833333 0 0 0.0833333 -56.6667 -193)" d="M 1019.48,4380.19 L 1034.48,4371.53 L 1321.38,4537.12 L 1321.38,4554.44 L 1019.48,4380.19 Z " />
<path stroke="none" fill="#ff0000" transform="matrix(0.0833333 0 0 0.0833333 -56.6667 -193)" d="M 1321.38,4554.44 L 1321.38,4537.12 L 1608.38,4371.53 L 1623.38,4380.19 L 1321.38,4554.44 Z " />
<path stroke="none" fill="#ff0000" transform="matrix(0.0833333 0 0 0.0833333 -56.6667 -193)" d="M 1325.13,4481.62 L 1317.64,4468.62 L 1550.93,4334.02 L 1558.43,4347.01 L 1325.13,4481.62 Z " />
<path stroke="none" fill="#ff0000" transform="matrix(0.0833333 0 0 0.0833333 -56.6667 -193)" d="M 1623.38,4380.19 L 1608.38,4371.53 L 1608.38,4040.19 L 1615.88,4035.86 L 1623.38,4040.19 L 1623.38,4380.19 Z " />
<text x="0" y="0" stroke="none" fill="#ff0000" transform="matrix(0.0833333 0 0 0.0833333 4.16402 163.786)" font-style="normal" font-weight="normal" font-size="240px" font-family="Arial" >
R</text>
<path stroke="none" fill="#ff0000" transform="matrix(0.0833333 0 0 0.0833333 -56.6667 -193)" d="M 1156.63,4179.93 L 1156.63,4194.93 L 937.968,4194.93 L 937.968,4179.93 L 1156.63,4179.93 Z " />
<path stroke="none" fill="#0000ff" transform="matrix(0.0833333 0 0 0.0833333 -56.6667 -193)" d="M 4656.77,3526.89 L 4645.17,3514.02 L 4747.45,3198.86 L 4755.92,3197.06 L 4761.72,3203.49 L 4656.77,3526.89 Z " />
<text x="0" y="0" stroke="none" fill="#0000ff" transform="matrix(0.0833333 0 0 0.0833333 342.102 129.254)" font-style="normal" font-weight="normal" font-size="240px" font-family="Arial" >
O</text>
<path stroke="none" fill="#0000ff" transform="matrix(0.0833333 0 0 0.0833333 -56.6667 -193)" d="M 4656.31,3491.87 L 4667.45,3481.83 L 4826.75,3658.63 L 4815.61,3668.67 L 4656.31,3491.87 Z " />
<path stroke="none" fill="#0000ff" transform="matrix(0.0833333 0 0 0.0833333 -56.6667 -193)" d="M 4610.84,3532.84 L 4621.98,3522.8 L 4781.29,3699.59 L 4770.15,3709.64 L 4610.84,3532.84 Z " />
<path stroke="none" fill="#0000ff" transform="matrix(0.0833333 0 0 0.0833333 -56.6667 -193)" d="M 4761.72,3203.49 L 4755.92,3197.06 L 4758.6,3188.82 L 5082.67,3119.82 L 5094.26,3132.69 L 4761.72,3203.49 Z " />
<path stroke="none" fill="#0000ff" transform="matrix(0.0833333 0 0 0.0833333 -56.6667 -193)" d="M 4779.3,3137.18 L 4776.17,3122.51 L 5039.6,3066.42 L 5042.72,3081.09 L 4779.3,3137.18 Z " />
<path stroke="none" fill="#0000ff" transform="matrix(0.0833333 0 0 0.0833333 -56.6667 -193)" d="M 5094.26,3132.69 L 5082.67,3119.82 L 5184.95,2804.66 L 5201.89,2801.05 L 5094.26,3132.69 Z " />
<path stroke="none" fill="#0000ff" transform="matrix(0.0833333 0 0 0.0833333 -56.6667 -193)" d="M 5201.89,2801.05 L 5184.95,2804.66 L 5132.1,2746.01 L 5143.24,2735.96 L 5201.89,2801.05 L 5201.89,2801.05 Z " />
<path stroke="none" fill="#0000ff" transform="matrix(0.0833333 0 0 0.0833333 -56.6667 -193)" d="M 4963.15,2558.51 L 4968.5,2542.03 L 5079.64,2665.38 L 5068.51,2675.43 L 4963.15,2558.51 L 4963.15,2558.51 Z " />
<path stroke="none" fill="#0000ff" transform="matrix(0.0833333 0 0 0.0833333 -56.6667 -193)" d="M 5129.87,2812.55 L 5118.73,2822.59 L 5086.67,2787.01 L 5097.8,2776.96 L 5129.87,2812.55 L 5129.87,2812.55 Z " />
<path stroke="none" fill="#0000ff" transform="matrix(0.0833333 0 0 0.0833333 -56.6667 -193)" d="M 4938.44,2622.5 L 4949.58,2612.46 L 5034.21,2706.39 L 5023.07,2716.44 L 4938.44,2622.5 L 4938.44,2622.5 Z " />
<path stroke="none" fill="#0000ff" transform="matrix(0.0833333 0 0 0.0833333 -56.6667 -193)" d="M 4968.5,2542.03 L 4963.15,2558.51 L 4639.08,2627.51 L 4627.48,2614.64 L 4968.5,2542.03 Z " />
<path stroke="none" fill="#0000ff" transform="matrix(0.0833333 0 0 0.0833333 -56.6667 -193)" d="M 4627.48,2614.64 L 4639.08,2627.51 L 4536.8,2942.67 L 4519.86,2946.28 L 4627.48,2614.64 Z " />
<path stroke="none" fill="#0000ff" transform="matrix(0.0833333 0 0 0.0833333 -56.6667 -193)" d="M 4673.45,2671.26 L 4687.72,2675.89 L 4604.58,2932.07 L 4590.31,2927.44 L 4673.45,2671.26 Z " />
<path stroke="none" fill="#0000ff" transform="matrix(0.0833333 0 0 0.0833333 -56.6667 -193)" d="M 4519.86,2946.28 L 4536.8,2942.67 L 4758.6,3188.82 L 4755.92,3197.06 L 4747.45,3198.86 L 4519.86,2946.28 Z " />
<text x="0" y="0" stroke="none" fill="#0000ff" transform="matrix(0.0833333 0 0 0.0833333 376.241 27.0953)" font-style="normal" font-weight="normal" font-size="240px" font-family="Arial" >
R</text>
<text x="0" y="0" stroke="none" fill="#0000ff" transform="matrix(0.0833333 0 0 0.0833333 390.684 19.2619)" font-style="normal" font-weight="normal" font-size="180px" font-family="Arial" >
1</text>
<path stroke="none" fill="#0000ff" transform="matrix(0.0833333 0 0 0.0833333 -56.6667 -193)" d="M 4968.68,2839.62 L 4958.63,2828.48 L 5162.87,2644.15 L 5172.92,2655.28 L 4968.68,2839.62 Z " />
<text x="0" y="0" stroke="none" fill="#000000" transform="matrix(0.0833333 0 0 0.0833333 731.759 159.727)" font-style="normal" font-weight="bold" font-size="240px" font-family="Arial" >
EtOH</text>
<text x="0" y="0" stroke="none" fill="#000000" transform="matrix(0.0833333 0 0 0.0833333 449.951 205.886)" font-style="normal" font-weight="bold" font-size="203.782px" font-family="Arial" >
(</text>
<text x="0" y="0" stroke="none" fill="#000000" transform="matrix(0.0833333 0 0 0.0833333 455.606 205.886)" font-style="normal" font-weight="bold" font-size="203.782px" font-family="Symbol" >
±</text>
<text x="0" y="0" stroke="none" fill="#000000" transform="matrix(0.0833333 0 0 0.0833333 465.266 205.886)" font-style="normal" font-weight="bold" font-size="203.782px" font-family="Arial" >
)</text>
<text x="0" y="0" stroke="none" fill="#000000" transform="matrix(0.0833333 0 0 0.0833333 741.369 237.103)" font-style="normal" font-weight="bold" font-size="240px" font-family="Arial" >
VI</text>
</svg>
