<?xml version="1.0" standalone="no" ?>
<!DOCTYPE svg PUBLIC "-//W3C//DTD SVG 1.1//EN" "http://www.w3.org/Graphics/SVG/1.1/DTD/svg11.dtd">
<svg width="797px" height="250px" viewBox="0 0 797 250" style="background-color: #ffffff00" xmlns="http://www.w3.org/2000/svg" xmlns:xlink="http://www.w3.org/1999/xlink" version="1.1" >
<path stroke="none" fill="#000000" transform="matrix(0.0833333 0 0 0.0833333 -229.667 -190)" d="M 5467.36,4228.54 L 5562.36,4228.54 L 5562.36,4240.54 L 5467.36,4240.54 Z " />
<path stroke="none" fill="#000000" transform="matrix(0.0833333 0 0 0.0833333 -229.667 -190)" d="M 5520.86,4187.04 L 5520.86,4282.04 L 5508.86,4282.04 L 5508.86,4187.04 Z " />
<text x="0" y="0" stroke="none" fill="#0000ff" transform="matrix(0.0833333 0 0 0.0833333 322.242 193.009)" font-style="normal" font-weight="normal" font-size="240px" font-family="Arial" >
S</text>
<text x="0" y="0" stroke="none" fill="#0000ff" transform="matrix(0.0833333 0 0 0.0833333 321.69 147.297)" font-style="normal" font-weight="normal" font-size="240px" font-family="Arial" >
N</text>
<path stroke="none" fill="#0000ff" transform="matrix(0.0833333 0 0 0.0833333 -229.667 -190)" d="M 6381.66,4405.41 L 6380.8,4397.24 L 6388.3,4391.8 L 6599.67,4460.6 L 6595.03,4474.86 L 6381.66,4405.41 Z " />
<path stroke="none" fill="#0000ff" transform="matrix(0.0833333 0 0 0.0833333 -229.667 -190)" d="M 6778.54,4410.83 L 6766.41,4402.01 L 6892.99,4227.83 L 6911.54,4227.83 L 6778.54,4410.83 Z " />
<path stroke="none" fill="#0000ff" transform="matrix(0.0833333 0 0 0.0833333 -229.667 -190)" d="M 6911.54,4227.83 L 6892.99,4227.83 L 6787.78,4083.06 L 6799.92,4074.24 L 6911.54,4227.83 Z " />
<path stroke="none" fill="#0000ff" transform="matrix(0.0833333 0 0 0.0833333 -229.667 -190)" d="M 6832.89,4223.42 L 6820.76,4232.24 L 6738.41,4118.94 L 6750.55,4110.12 L 6832.89,4223.42 Z " />
<path stroke="none" fill="#0000ff" transform="matrix(0.0833333 0 0 0.0833333 -229.667 -190)" d="M 6580.36,3985.57 L 6585,3999.84 L 6388.3,4063.86 L 6380.8,4058.42 L 6381.66,4050.25 L 6580.36,3985.57 Z " />
<path stroke="none" fill="#0000ff" transform="matrix(0.0833333 0 0 0.0833333 -229.667 -190)" d="M 6751.03,3830.05 L 6736.77,3825.41 L 6802.01,3624.99 L 6813.59,3637.86 L 6751.03,3830.05 Z " />
<path stroke="none" fill="#0000ff" transform="matrix(0.0833333 0 0 0.0833333 -229.667 -190)" d="M 6813.59,3637.86 L 6802.01,3624.99 L 7133.27,3554.45 L 7144.86,3567.32 L 6813.59,3637.86 Z " />
<path stroke="none" fill="#0000ff" transform="matrix(0.0833333 0 0 0.0833333 -229.667 -190)" d="M 5786.34,4054.09 L 5801.34,4062.75 L 5801.34,4392.91 L 5786.34,4401.57 L 5786.34,4054.09 Z " />
<path stroke="none" fill="#0000ff" transform="matrix(0.0833333 0 0 0.0833333 -229.667 -190)" d="M 5847.33,4093.63 L 5862.33,4093.63 L 5862.33,4362.03 L 5847.33,4362.03 L 5847.33,4093.63 Z " />
<path stroke="none" fill="#0000ff" transform="matrix(0.0833333 0 0 0.0833333 -229.667 -190)" d="M 5786.34,4401.57 L 5801.34,4392.91 L 6087.32,4557.99 L 6087.32,4575.31 L 5786.34,4401.57 Z " />
<path stroke="none" fill="#0000ff" transform="matrix(0.0833333 0 0 0.0833333 -229.667 -190)" d="M 6087.32,4575.31 L 6087.32,4557.99 L 6373.3,4392.91 L 6380.8,4397.24 L 6381.66,4405.41 L 6087.32,4575.31 Z " />
<path stroke="none" fill="#0000ff" transform="matrix(0.0833333 0 0 0.0833333 -229.667 -190)" d="M 6091.07,4502.72 L 6083.57,4489.73 L 6316.06,4355.53 L 6323.56,4368.52 L 6091.07,4502.72 Z " />
<path stroke="none" fill="#0000ff" transform="matrix(0.0833333 0 0 0.0833333 -229.667 -190)" d="M 6388.3,4391.8 L 6380.8,4397.24 L 6373.3,4392.91 L 6373.3,4062.75 L 6380.8,4058.42 L 6388.3,4063.86 L 6388.3,4391.8 Z " />
<path stroke="none" fill="#0000ff" transform="matrix(0.0833333 0 0 0.0833333 -229.667 -190)" d="M 6381.66,4050.25 L 6380.8,4058.42 L 6373.3,4062.75 L 6087.32,3897.67 L 6087.32,3880.35 L 6381.66,4050.25 Z " />
<path stroke="none" fill="#0000ff" transform="matrix(0.0833333 0 0 0.0833333 -229.667 -190)" d="M 6323.56,4087.14 L 6316.06,4100.13 L 6083.57,3965.93 L 6091.07,3952.94 L 6323.56,4087.14 Z " />
<path stroke="none" fill="#0000ff" transform="matrix(0.0833333 0 0 0.0833333 -229.667 -190)" d="M 6087.32,3880.35 L 6087.32,3897.67 L 5801.34,4062.75 L 5786.34,4054.09 L 6087.32,3880.35 Z " />
<text x="0" y="0" stroke="none" fill="#0000ff" transform="matrix(0.0833333 0 0 0.0833333 303.715 133.782)" font-style="normal" font-weight="normal" font-size="240px" font-family="Arial" >
X</text>
<path stroke="none" fill="#0000ff" transform="matrix(0.0833333 0 0 0.0833333 -229.667 -190)" d="M 9190.02,4086.45 L 9205.02,4095.11 L 9205.02,4426.53 L 9190.02,4435.19 L 9190.02,4086.45 Z " />
<path stroke="none" fill="#0000ff" transform="matrix(0.0833333 0 0 0.0833333 -229.667 -190)" d="M 9251.23,4126.12 L 9266.23,4126.12 L 9266.23,4395.53 L 9251.23,4395.53 L 9251.23,4126.12 Z " />
<path stroke="none" fill="#0000ff" transform="matrix(0.0833333 0 0 0.0833333 -229.667 -190)" d="M 9190.02,4435.19 L 9205.02,4426.53 L 9491.95,4592.25 L 9491.94,4609.57 L 9190.02,4435.19 Z " />
<path stroke="none" fill="#0000ff" transform="matrix(0.0833333 0 0 0.0833333 -229.667 -190)" d="M 9491.94,4609.57 L 9491.95,4592.25 L 9779.18,4426.53 L 9786.68,4430.86 L 9786.68,4439.52 L 9491.94,4609.57 Z " />
<path stroke="none" fill="#0000ff" transform="matrix(0.0833333 0 0 0.0833333 -229.667 -190)" d="M 9495.71,4536.68 L 9488.21,4523.69 L 9721.69,4388.99 L 9729.18,4401.98 L 9495.71,4536.68 Z " />
<path stroke="none" fill="#0000ff" transform="matrix(0.0833333 0 0 0.0833333 -229.667 -190)" d="M 9794.18,4426.53 L 9786.68,4430.86 L 9779.18,4426.53 L 9779.18,4095.11 L 9786.68,4090.78 L 9794.18,4095.11 L 9794.18,4426.53 Z " />
<path stroke="none" fill="#0000ff" transform="matrix(0.0833333 0 0 0.0833333 -229.667 -190)" d="M 9786.68,4082.12 L 9786.68,4090.78 L 9779.18,4095.11 L 9491.95,3929.4 L 9491.94,3912.08 L 9786.68,4082.12 Z " />
<path stroke="none" fill="#0000ff" transform="matrix(0.0833333 0 0 0.0833333 -229.667 -190)" d="M 9729.18,4119.66 L 9721.69,4132.65 L 9488.21,3997.95 L 9495.71,3984.96 L 9729.18,4119.66 Z " />
<path stroke="none" fill="#0000ff" transform="matrix(0.0833333 0 0 0.0833333 -229.667 -190)" d="M 9491.94,3912.08 L 9491.95,3929.4 L 9205.02,4095.11 L 9190.02,4086.45 L 9491.94,3912.08 Z " />
<text x="0" y="0" stroke="none" fill="#0000ff" transform="matrix(0.0833333 0 0 0.0833333 603.756 201.242)" font-style="normal" font-weight="normal" font-size="240px" font-family="Arial" >
S</text>
<text x="0" y="0" stroke="none" fill="#0000ff" transform="matrix(0.0833333 0 0 0.0833333 603.204 144.561)" font-style="normal" font-weight="normal" font-size="240px" font-family="Arial" >
N</text>
<path stroke="none" fill="#0000ff" transform="matrix(0.0833333 0 0 0.0833333 -229.667 -190)" d="M 9786.68,4439.52 L 9786.68,4430.86 L 9794.18,4426.53 L 9984.81,4536.63 L 9977.31,4549.62 L 9786.68,4439.52 Z " />
<path stroke="none" fill="#6a0000" transform="matrix(0.0833333 0 0 0.0833333 -229.667 -190)" d="M 10183.3,4550.52 L 10175.8,4537.53 L 10368,4426.53 L 10375.5,4430.86 L 10366,4445.02 L 10183.3,4550.52 Z " />
<path stroke="none" fill="#0000ff" transform="matrix(0.0833333 0 0 0.0833333 -229.667 -190)" d="M 10383,4430.86 L 10375.5,4430.86 L 10368,4426.53 L 10368,4095.85 L 10375.5,4090.78 L 10383,4094.12 L 10383,4430.86 Z " />
<path stroke="none" fill="#0000ff" transform="matrix(0.0833333 0 0 0.0833333 -229.667 -190)" d="M 10375.2,4080.97 L 10375.5,4090.78 L 10368,4095.85 L 10186.5,4026.65 L 10225.5,3959.07 L 10375.2,4080.97 Z " />
<path stroke="none" fill="#0000ff" transform="matrix(0.0833333 0 0 0.0833333 -229.667 -190)" d="M 9951.49,3986.94 L 9958.99,3999.93 L 9794.18,4095.11 L 9786.68,4090.78 L 9786.68,4082.12 L 9951.49,3986.94 Z " />
<path stroke="none" fill="#6a0000" transform="matrix(0.0833333 0 0 0.0833333 -229.667 -190)" d="M 10383,4094.12 L 10375.5,4090.78 L 10375.2,4080.97 L 10619,3861.5 L 10637.1,3865.36 L 10383,4094.12 Z " />
<path stroke="none" fill="#008000" transform="matrix(0.0833333 0 0 0.0833333 -229.667 -190)" d="M 10637.1,3865.36 L 10619,3861.5 L 10485.2,3560.66 L 10489.8,3552.63 L 10498.2,3553.07 L 10637.1,3865.36 Z " />
<path stroke="none" fill="#6a0000" transform="matrix(0.0833333 0 0 0.0833333 -229.667 -190)" d="M 10485.3,3545.57 L 10489.8,3552.63 L 10485.2,3560.66 L 10157.8,3595.1 L 10145.4,3581.32 L 10485.3,3545.57 Z " />
<path stroke="none" fill="#6a0000" transform="matrix(0.0833333 0 0 0.0833333 -229.667 -190)" d="M 10451.2,3610.7 L 10452.8,3625.62 L 10203.1,3651.89 L 10201.5,3636.97 L 10451.2,3610.7 Z " />
<path stroke="none" fill="#0000ff" transform="matrix(0.0833333 0 0 0.0833333 -229.667 -190)" d="M 10145.4,3581.32 L 10157.8,3595.1 L 10114.8,3797.86 L 10100.2,3794.74 L 10145.4,3581.32 Z " />
<path stroke="none" fill="#ff0000" transform="matrix(0.0833333 0 0 0.0833333 -229.667 -190)" d="M 10498.2,3553.07 L 10489.8,3552.63 L 10485.3,3545.57 L 10651.2,3258.2 L 10668.5,3258.2 L 10498.2,3553.07 Z " />
<text x="0" y="0" stroke="none" fill="#ff0000" transform="matrix(0.0833333 0 0 0.0833333 637.265 64.8149)" font-style="normal" font-weight="normal" font-size="240px" font-family="Arial" >
H</text>
<path stroke="none" fill="#ff0000" transform="matrix(0.0833333 0 0 0.0833333 -229.667 -190)" d="M 10668.5,3258.2 L 10651.2,3258.2 L 10560.4,3101.01 L 10573.4,3093.51 L 10668.5,3258.2 Z " />
<path stroke="none" fill="#0000ff" transform="matrix(0.0833333 0 0 0.0833333 -229.667 -190)" d="M 10416.8,4463.38 L 10424.3,4450.39 L 10438.3,4456.16 L 10428.8,4472.62 L 10416.8,4463.38 Z " />
<path stroke="none" fill="#0000ff" transform="matrix(0.0833333 0 0 0.0833333 -229.667 -190)" d="M 10461,4497.39 L 10475.9,4471.62 L 10489.9,4477.39 L 10473,4506.63 L 10461,4497.39 Z " />
<path stroke="none" fill="#0000ff" transform="matrix(0.0833333 0 0 0.0833333 -229.667 -190)" d="M 10505.1,4531.41 L 10527.4,4492.86 L 10541.4,4498.62 L 10517.1,4540.65 L 10505.1,4531.41 Z " />
<path stroke="none" fill="#0000ff" transform="matrix(0.0833333 0 0 0.0833333 -229.667 -190)" d="M 10549.3,4565.42 L 10578.9,4514.09 L 10592.9,4519.86 L 10561.2,4574.66 L 10549.3,4565.42 Z " />
<path stroke="none" fill="#0000ff" transform="matrix(0.0833333 0 0 0.0833333 -229.667 -190)" d="M 10593.4,4599.44 L 10630.4,4535.32 L 10644.4,4541.09 L 10605.4,4608.68 L 10593.4,4599.44 Z " />
<path stroke="none" fill="#ff0000" transform="matrix(0.0833333 0 0 0.0833333 -229.667 -190)" d="M 10677.5,3881.56 L 10680.6,3866.88 L 10695.7,3868.04 L 10691.7,3886.63 L 10677.5,3881.56 Z " />
<path stroke="none" fill="#ff0000" transform="matrix(0.0833333 0 0 0.0833333 -229.667 -190)" d="M 10730,3900.24 L 10736.2,3871.12 L 10751.3,3872.27 L 10744.3,3905.31 L 10730,3900.24 Z " />
<path stroke="none" fill="#ff0000" transform="matrix(0.0833333 0 0 0.0833333 -229.667 -190)" d="M 10782.5,3918.92 L 10791.8,3875.36 L 10806.9,3876.51 L 10796.8,3923.99 L 10782.5,3918.92 Z " />
<path stroke="none" fill="#ff0000" transform="matrix(0.0833333 0 0 0.0833333 -229.667 -190)" d="M 10835.1,3937.6 L 10847.4,3879.6 L 10862.5,3880.75 L 10849.3,3942.67 L 10835.1,3937.6 Z " />
<path stroke="none" fill="#ff0000" transform="matrix(0.0833333 0 0 0.0833333 -229.667 -190)" d="M 10887.6,3956.28 L 10903,3883.84 L 10918.1,3884.99 L 10901.9,3961.34 L 10887.6,3956.28 Z " />
<path stroke="none" fill="#0000ff" transform="matrix(0.0833333 0 0 0.0833333 -229.667 -190)" d="M 10662.5,4596.58 L 10677.5,4605.24 L 10677.5,4936.66 L 10662.5,4945.32 L 10662.5,4596.58 Z " />
<path stroke="none" fill="#0000ff" transform="matrix(0.0833333 0 0 0.0833333 -229.667 -190)" d="M 10723.7,4636.24 L 10738.7,4636.24 L 10738.7,4905.65 L 10723.7,4905.65 L 10723.7,4636.24 Z " />
<path stroke="none" fill="#0000ff" transform="matrix(0.0833333 0 0 0.0833333 -229.667 -190)" d="M 10662.5,4945.32 L 10677.5,4936.66 L 10964.4,5102.37 L 10964.4,5119.69 L 10662.5,4945.32 Z " />
<path stroke="none" fill="#0000ff" transform="matrix(0.0833333 0 0 0.0833333 -229.667 -190)" d="M 10964.4,5119.69 L 10964.4,5102.37 L 11251.6,4936.66 L 11266.6,4945.32 L 10964.4,5119.69 Z " />
<path stroke="none" fill="#0000ff" transform="matrix(0.0833333 0 0 0.0833333 -229.667 -190)" d="M 10968.1,5046.81 L 10960.6,5033.81 L 11194.1,4899.12 L 11201.6,4912.11 L 10968.1,5046.81 Z " />
<path stroke="none" fill="#0000ff" transform="matrix(0.0833333 0 0 0.0833333 -229.667 -190)" d="M 11266.6,4945.32 L 11251.6,4936.66 L 11251.6,4823.17 L 11266.6,4823.17 L 11266.6,4945.32 L 11266.6,4945.32 Z " />
<path stroke="none" fill="#0000ff" transform="matrix(0.0833333 0 0 0.0833333 -229.667 -190)" d="M 11251.6,4605.24 L 11266.6,4596.57 L 11266.6,4728.17 L 11251.6,4728.17 L 11251.6,4605.24 L 11251.6,4605.24 Z " />
<path stroke="none" fill="#0000ff" transform="matrix(0.0833333 0 0 0.0833333 -229.667 -190)" d="M 11266.6,4596.57 L 11251.6,4605.24 L 10964.4,4439.52 L 10964.4,4422.2 L 11266.6,4596.57 Z " />
<path stroke="none" fill="#0000ff" transform="matrix(0.0833333 0 0 0.0833333 -229.667 -190)" d="M 11201.6,4629.78 L 11194.1,4642.78 L 10960.6,4508.08 L 10968.1,4495.09 L 11201.6,4629.78 Z " />
<path stroke="none" fill="#0000ff" transform="matrix(0.0833333 0 0 0.0833333 -229.667 -190)" d="M 10964.4,4422.2 L 10964.4,4439.52 L 10677.5,4605.24 L 10662.5,4596.58 L 10964.4,4422.2 Z " />
<text x="0" y="0" stroke="none" fill="#0000ff" transform="matrix(0.0833333 0 0 0.0833333 627.183 215.412)" font-style="normal" font-weight="normal" font-size="240px" font-family="Arial" >
OH</text>
<path stroke="none" fill="#0000ff" transform="matrix(0.0833333 0 0 0.0833333 -229.667 -190)" d="M 10366,4445.02 L 10375.5,4430.86 L 10383,4430.86 L 10414.6,4652.95 L 10336.5,4652.95 L 10366,4445.02 Z " />
<text x="0" y="0" stroke="none" fill="#0000ff" transform="matrix(0.0833333 0 0 0.0833333 723.317 215.806)" font-style="normal" font-weight="normal" font-size="240px" font-family="Arial" >
(R</text>
<text x="0" y="0" stroke="none" fill="#0000ff" transform="matrix(0.0833333 0 0 0.0833333 744.421 207.973)" font-style="normal" font-weight="normal" font-size="180px" font-family="Arial" >
1</text>
<text x="0" y="0" stroke="none" fill="#0000ff" transform="matrix(0.0833333 0 0 0.0833333 752.763 215.806)" font-style="normal" font-weight="normal" font-size="240px" font-family="Arial" >
)</text>
<text x="0" y="0" stroke="none" fill="#0000ff" transform="matrix(0.0833333 0 0 0.0833333 759.423 220.139)" font-style="normal" font-weight="normal" font-size="180px" font-family="Arial" >
n</text>
<path stroke="none" fill="#0000ff" transform="matrix(0.0833333 0 0 0.0833333 -229.667 -190)" d="M 11135.7,4783.17 L 11135.7,4768.17 L 11410.8,4768.17 L 11410.8,4783.17 L 11135.7,4783.17 Z " />
<path stroke="#0000ff" stroke-width="12" fill="none" transform="matrix(0.0833333 0 0 0.0833333 -229.667 -190)" d="M 6426.02,3583.05 A 86,86 0 1 1 6598.02,3583.05 A 86,86 0 1 1 6426.02,3583.05 Z " />
<path stroke="none" fill="#0000ff" transform="matrix(0.0833333 0 0 0.0833333 -229.667 -190)" d="M 6464.52,3577.05 L 6559.52,3577.05 L 6559.52,3589.05 L 6464.52,3589.05 Z " />
<path stroke="#0000ff" stroke-width="12" fill="none" transform="matrix(0.0833333 0 0 0.0833333 -229.667 -190)" d="M 6830.49,3953.56 A 86,86 0 1 1 7002.49,3953.56 A 86,86 0 1 1 6830.49,3953.56 Z " />
<path stroke="none" fill="#0000ff" transform="matrix(0.0833333 0 0 0.0833333 -229.667 -190)" d="M 6868.99,3947.56 L 6963.99,3947.56 L 6963.99,3959.56 L 6868.99,3959.56 Z " />
<path stroke="none" fill="#0000ff" transform="matrix(0.0833333 0 0 0.0833333 -229.667 -190)" d="M 6922.49,3906.06 L 6922.49,4001.06 L 6910.49,4001.06 L 6910.49,3906.06 Z " />
<text x="0" y="0" stroke="none" fill="#ff0000" transform="matrix(0.0833333 0 0 0.0833333 679.212 89.3503)" font-style="normal" font-weight="normal" font-size="240px" font-family="Arial" >
O</text>
<path stroke="none" fill="#ff0000" transform="matrix(0.0833333 0 0 0.0833333 -229.667 -190)" d="M 10642.2,3235.1 L 10642.2,3220.1 L 10878.5,3220.1 L 10878.5,3235.1 L 10642.2,3235.1 Z " />
<path stroke="none" fill="#ff0000" transform="matrix(0.0833333 0 0 0.0833333 -229.667 -190)" d="M 10642.2,3296.3 L 10642.2,3281.3 L 10878.5,3281.3 L 10878.5,3296.3 L 10642.2,3296.3 Z " />
<text x="0" y="0" stroke="none" fill="#000000" transform="matrix(0.0833333 0 0 0.0833333 129.427 241.314)" font-style="normal" font-weight="bold" font-size="240px" font-family="Arial" >
I</text>
<text x="0" y="0" stroke="none" fill="#000000" transform="matrix(0.0833333 0 0 0.0833333 321.414 241.314)" font-style="normal" font-weight="bold" font-size="240px" font-family="Arial" >
II</text>
<text x="0" y="0" stroke="none" fill="#000000" transform="matrix(0.0833333 0 0 0.0833333 613.269 241.314)" font-style="normal" font-weight="bold" font-size="240px" font-family="Arial" >
III</text>
<path stroke="none" fill="#000000" transform="matrix(0.0833333 0 0 0.0833333 -229.667 -190)" d="M 8946.56,4324.89 L 7669.2,4324.89 L 7669.2,4309.89 L 8946.56,4309.89 Z " />
<path stroke="none" fill="#000000" transform="matrix(0.0833333 0 0 0.0833333 -229.667 -190)" d="M 9076.81,4317.39 C 9076.81,4317.39 8926.81,4355.89 8926.81,4355.89 C 8926.81,4355.89 8945.56,4334.23 8945.56,4317.39 C 8945.56,4300.11 8926.81,4277.89 8926.81,4277.89 C 8926.81,4277.89 9076.81,4317.39 9076.81,4317.39 C 9076.81,4317.39 9076.81,4317.39 9076.81,4317.39 " />
<path stroke="#000000" stroke-width="1" fill="none" transform="matrix(0.0833333 0 0 0.0833333 -229.667 -190)" d="M 9076.81,4317.39 C 9076.81,4317.39 8926.81,4355.89 8926.81,4355.89 C 8926.81,4355.89 8945.56,4334.23 8945.56,4317.39 C 8945.56,4300.11 8926.81,4277.89 8926.81,4277.89 C 8926.81,4277.89 9076.81,4317.39 9076.81,4317.39 C 9076.81,4317.39 9076.81,4317.39 9076.81,4317.39 " />
<path stroke="none" fill="#ff0000" transform="matrix(0.0833333 0 0 0.0833333 -229.667 -190)" d="M 4047.4,4198.56 L 4039.9,4194.23 L 4039.9,4185.57 L 4333.3,4016.13 L 4333.3,4033.45 L 4047.4,4198.56 Z " />
<path stroke="none" fill="#ff0000" transform="matrix(0.0833333 0 0 0.0833333 -229.667 -190)" d="M 4333.3,4033.45 L 4333.3,4016.13 L 4626.69,4185.57 L 4626.69,4202.89 L 4333.3,4033.45 Z " />
<path stroke="none" fill="#ff0000" transform="matrix(0.0833333 0 0 0.0833333 -229.667 -190)" d="M 4360.05,3978.47 L 4367.55,3965.48 L 4630.46,4117.32 L 4622.96,4130.31 L 4360.05,3978.47 Z " />
<path stroke="none" fill="#ff0000" transform="matrix(0.0833333 0 0 0.0833333 -229.667 -190)" d="M 4626.69,4202.89 L 4626.69,4185.57 L 4920.41,4016.13 L 4920.4,4033.45 L 4626.69,4202.89 Z " />
<text x="0" y="0" stroke="none" fill="#ff0000" transform="matrix(0.0833333 0 0 0.0833333 195.768 169.553)" font-style="normal" font-weight="normal" font-size="240px" font-family="Arial" >
O</text>
<path stroke="none" fill="#ff0000" transform="matrix(0.0833333 0 0 0.0833333 -229.667 -190)" d="M 4920.4,4033.45 L 4920.41,4016.13 L 5113.71,4127.77 L 5106.21,4140.76 L 4920.4,4033.45 Z " />
<path stroke="none" fill="#ff0000" transform="matrix(0.0833333 0 0 0.0833333 -229.667 -190)" d="M 4916.64,4101.7 L 4924.14,4088.71 L 5083.21,4180.58 L 5075.71,4193.57 L 4916.64,4101.7 Z " />
<path stroke="none" fill="#ff0000" transform="matrix(0.0833333 0 0 0.0833333 -229.667 -190)" d="M 4039.9,4185.57 L 4039.9,4194.23 L 4032.4,4198.57 L 3745.4,4032.98 L 3745.4,4015.66 L 4039.9,4185.57 Z " />
<path stroke="none" fill="#ff0000" transform="matrix(0.0833333 0 0 0.0833333 -229.667 -190)" d="M 3982.45,4223.08 L 3974.95,4236.08 L 3741.66,4101.47 L 3749.16,4088.48 L 3982.45,4223.08 Z " />
<path stroke="none" fill="#ff0000" transform="matrix(0.0833333 0 0 0.0833333 -229.667 -190)" d="M 3745.4,4015.66 L 3745.4,4032.98 L 3458.5,4198.57 L 3443.5,4189.9 L 3745.4,4015.66 Z " />
<path stroke="none" fill="#ff0000" transform="matrix(0.0833333 0 0 0.0833333 -229.667 -190)" d="M 3443.5,4189.9 L 3458.5,4198.57 L 3458.5,4298.3 L 3443.5,4298.3 L 3443.5,4189.9 L 3443.5,4189.9 Z " />
<path stroke="none" fill="#ff0000" transform="matrix(0.0833333 0 0 0.0833333 -229.667 -190)" d="M 3458.5,4529.9 L 3443.5,4538.57 L 3443.5,4393.3 L 3458.5,4393.3 L 3458.5,4529.9 L 3458.5,4529.9 Z " />
<path stroke="none" fill="#ff0000" transform="matrix(0.0833333 0 0 0.0833333 -229.667 -190)" d="M 3504.7,4229.57 L 3519.7,4229.57 L 3519.7,4298.3 L 3504.7,4298.3 L 3504.7,4229.57 L 3504.7,4229.57 Z " />
<path stroke="none" fill="#ff0000" transform="matrix(0.0833333 0 0 0.0833333 -229.667 -190)" d="M 3519.7,4498.89 L 3504.7,4498.89 L 3504.7,4393.3 L 3519.7,4393.3 L 3519.7,4498.89 L 3519.7,4498.89 Z " />
<path stroke="none" fill="#ff0000" transform="matrix(0.0833333 0 0 0.0833333 -229.667 -190)" d="M 3443.5,4538.57 L 3458.5,4529.9 L 3745.4,4695.49 L 3745.4,4712.81 L 3443.5,4538.57 Z " />
<path stroke="none" fill="#ff0000" transform="matrix(0.0833333 0 0 0.0833333 -229.667 -190)" d="M 3745.4,4712.81 L 3745.4,4695.49 L 4032.4,4529.9 L 4047.4,4538.57 L 3745.4,4712.81 Z " />
<path stroke="none" fill="#ff0000" transform="matrix(0.0833333 0 0 0.0833333 -229.667 -190)" d="M 3749.16,4639.99 L 3741.66,4627 L 3974.95,4492.39 L 3982.45,4505.39 L 3749.16,4639.99 Z " />
<path stroke="none" fill="#ff0000" transform="matrix(0.0833333 0 0 0.0833333 -229.667 -190)" d="M 4047.4,4538.57 L 4032.4,4529.9 L 4032.4,4198.57 L 4039.9,4194.23 L 4047.4,4198.56 L 4047.4,4538.57 Z " />
<text x="0" y="0" stroke="none" fill="#ff0000" transform="matrix(0.0833333 0 0 0.0833333 3.45874 184.317)" font-style="normal" font-weight="normal" font-size="180px" font-family="Arial" >
m</text>
<text x="0" y="0" stroke="none" fill="#ff0000" transform="matrix(0.0833333 0 0 0.0833333 15.9539 179.983)" font-style="normal" font-weight="normal" font-size="240px" font-family="Arial" >
(R)</text>
<path stroke="none" fill="#ff0000" transform="matrix(0.0833333 0 0 0.0833333 -229.667 -190)" d="M 3580.65,4338.3 L 3580.65,4353.3 L 3311.5,4353.3 L 3311.5,4338.3 L 3580.65,4338.3 Z " />
<text x="0" y="0" stroke="none" fill="#0000ff" transform="matrix(0.0833333 0 0 0.0833333 376.443 135.623)" font-style="normal" font-weight="normal" font-size="240px" font-family="Arial" >
O</text>
<path stroke="none" fill="#0000ff" transform="matrix(0.0833333 0 0 0.0833333 -229.667 -190)" d="M 7144.4,3532.3 L 7155.54,3522.26 L 7314.85,3699.06 L 7303.7,3709.1 L 7144.4,3532.3 Z " />
<path stroke="none" fill="#0000ff" transform="matrix(0.0833333 0 0 0.0833333 -229.667 -190)" d="M 7098.93,3573.27 L 7110.08,3563.23 L 7269.38,3740.03 L 7258.24,3750.07 L 7098.93,3573.27 Z " />
<path stroke="none" fill="#0000ff" transform="matrix(0.0833333 0 0 0.0833333 -229.667 -190)" d="M 7144.86,3567.32 L 7133.27,3554.45 L 7235.55,3239.29 L 7244.02,3237.49 L 7249.81,3243.93 L 7144.86,3567.32 Z " />
<path stroke="none" fill="#0000ff" transform="matrix(0.0833333 0 0 0.0833333 -229.667 -190)" d="M 7249.81,3243.93 L 7244.02,3237.49 L 7246.69,3229.25 L 7570.76,3160.25 L 7582.36,3173.12 L 7249.81,3243.93 Z " />
<path stroke="none" fill="#0000ff" transform="matrix(0.0833333 0 0 0.0833333 -229.667 -190)" d="M 7267.39,3177.61 L 7264.27,3162.94 L 7527.69,3106.85 L 7530.82,3121.52 L 7267.39,3177.61 Z " />
<path stroke="none" fill="#0000ff" transform="matrix(0.0833333 0 0 0.0833333 -229.667 -190)" d="M 7582.36,3173.12 L 7570.76,3160.25 L 7673.04,2845.09 L 7689.98,2841.48 L 7582.36,3173.12 Z " />
<path stroke="none" fill="#0000ff" transform="matrix(0.0833333 0 0 0.0833333 -229.667 -190)" d="M 7689.98,2841.48 L 7673.04,2845.09 L 7578.66,2740.35 L 7590.04,2730.57 L 7689.98,2841.48 L 7689.98,2841.48 Z " />
<path stroke="none" fill="#0000ff" transform="matrix(0.0833333 0 0 0.0833333 -229.667 -190)" d="M 7451.24,2598.94 L 7456.59,2582.46 L 7526.43,2659.97 L 7515.05,2669.75 L 7451.24,2598.94 L 7451.24,2598.94 Z " />
<path stroke="none" fill="#0000ff" transform="matrix(0.0833333 0 0 0.0833333 -229.667 -190)" d="M 7617.97,2852.98 L 7606.82,2863.02 L 7532.22,2780.23 L 7543.6,2770.45 L 7617.97,2852.98 L 7617.97,2852.98 Z " />
<path stroke="none" fill="#0000ff" transform="matrix(0.0833333 0 0 0.0833333 -229.667 -190)" d="M 7426.53,2662.94 L 7437.68,2652.89 L 7479.99,2699.86 L 7468.61,2709.63 L 7426.53,2662.94 L 7426.53,2662.94 Z " />
<path stroke="none" fill="#0000ff" transform="matrix(0.0833333 0 0 0.0833333 -229.667 -190)" d="M 7456.59,2582.46 L 7451.24,2598.94 L 7127.17,2667.94 L 7115.58,2655.07 L 7456.59,2582.46 Z " />
<path stroke="none" fill="#0000ff" transform="matrix(0.0833333 0 0 0.0833333 -229.667 -190)" d="M 7115.58,2655.07 L 7127.17,2667.94 L 7024.89,2983.1 L 7007.95,2986.71 L 7115.58,2655.07 Z " />
<path stroke="none" fill="#0000ff" transform="matrix(0.0833333 0 0 0.0833333 -229.667 -190)" d="M 7161.54,2711.69 L 7175.81,2716.32 L 7092.67,2972.5 L 7078.41,2967.87 L 7161.54,2711.69 Z " />
<path stroke="none" fill="#0000ff" transform="matrix(0.0833333 0 0 0.0833333 -229.667 -190)" d="M 7007.95,2986.71 L 7024.89,2983.1 L 7246.69,3229.25 L 7244.02,3237.49 L 7235.55,3239.29 L 7007.95,2986.71 Z " />
<text x="0" y="0" stroke="none" fill="#0000ff" transform="matrix(0.0833333 0 0 0.0833333 415.161 26.7201)" font-style="normal" font-weight="normal" font-size="240px" font-family="Arial" >
(R</text>
<text x="0" y="0" stroke="none" fill="#0000ff" transform="matrix(0.0833333 0 0 0.0833333 436.264 18.8867)" font-style="normal" font-weight="normal" font-size="180px" font-family="Arial" >
1</text>
<text x="0" y="0" stroke="none" fill="#0000ff" transform="matrix(0.0833333 0 0 0.0833333 444.607 26.7201)" font-style="normal" font-weight="normal" font-size="240px" font-family="Arial" >
)</text>
<text x="0" y="0" stroke="none" fill="#0000ff" transform="matrix(0.0833333 0 0 0.0833333 451.267 31.0534)" font-style="normal" font-weight="normal" font-size="180px" font-family="Arial" >
n</text>
<path stroke="none" fill="#0000ff" transform="matrix(0.0833333 0 0 0.0833333 -229.667 -190)" d="M 7395.35,2845.05 L 7385.57,2833.67 L 7692.78,2569.84 L 7702.55,2581.22 L 7395.35,2845.05 Z " />
<text x="0" y="0" stroke="none" fill="#000000" transform="matrix(0.0833333 0 0 0.0833333 434.83 162.68)" font-style="normal" font-weight="bold" font-size="203.782px" font-family="Arial" >
Base</text>
<text x="0" y="0" stroke="none" fill="#000000" transform="matrix(0.0833333 0 0 0.0833333 427.297 189.369)" font-style="normal" font-weight="bold" font-size="203.782px" font-family="Arial" >
Solvent</text>
<path stroke="none" fill="#ff0000" transform="matrix(0.0833333 0 0 0.0833333 -229.667 -190)" d="M 10952.4,3932.17 L 10969.4,3935.76 L 11072,4250.82 L 11060.4,4263.7 L 10952.4,3932.17 Z " />
<path stroke="none" fill="#ff0000" transform="matrix(0.0833333 0 0 0.0833333 -229.667 -190)" d="M 11022.9,3950.94 L 11037.2,3946.29 L 11120.6,4202.39 L 11106.3,4207.04 L 11022.9,3950.94 Z " />
<path stroke="none" fill="#ff0000" transform="matrix(0.0833333 0 0 0.0833333 -229.667 -190)" d="M 11060.4,4263.7 L 11072,4250.82 L 11396.1,4319.51 L 11401.5,4335.98 L 11060.4,4263.7 Z " />
<path stroke="none" fill="#ff0000" transform="matrix(0.0833333 0 0 0.0833333 -229.667 -190)" d="M 11401.5,4335.98 L 11396.1,4319.51 L 11617.7,4073.14 L 11634.6,4076.73 L 11401.5,4335.98 Z " />
<path stroke="none" fill="#ff0000" transform="matrix(0.0833333 0 0 0.0833333 -229.667 -190)" d="M 11382.5,4265.57 L 11371.3,4255.54 L 11551.4,4055.27 L 11562.6,4065.3 L 11382.5,4265.57 Z " />
<path stroke="none" fill="#ff0000" transform="matrix(0.0833333 0 0 0.0833333 -229.667 -190)" d="M 11634.6,4076.73 L 11617.7,4073.14 L 11576.9,3947.81 L 11590.9,3942.38 L 11634.6,4076.73 L 11634.6,4076.73 Z " />
<path stroke="none" fill="#ff0000" transform="matrix(0.0833333 0 0 0.0833333 -229.667 -190)" d="M 11515.1,3758.08 L 11526.7,3745.2 L 11561.4,3851.91 L 11547.4,3857.34 L 11515.1,3758.08 L 11515.1,3758.08 Z " />
<path stroke="none" fill="#ff0000" transform="matrix(0.0833333 0 0 0.0833333 -229.667 -190)" d="M 11526.7,3745.2 L 11515.1,3758.08 L 11190.9,3689.39 L 11185.6,3672.92 L 11526.7,3745.2 Z " />
<path stroke="none" fill="#ff0000" transform="matrix(0.0833333 0 0 0.0833333 -229.667 -190)" d="M 11475.2,3796.85 L 11472.1,3811.53 L 11208.6,3755.69 L 11211.7,3741.01 L 11475.2,3796.85 Z " />
<path stroke="none" fill="#ff0000" transform="matrix(0.0833333 0 0 0.0833333 -229.667 -190)" d="M 11185.6,3672.92 L 11190.9,3689.39 L 10969.4,3935.76 L 10952.4,3932.17 L 11185.6,3672.92 Z " />
<text x="0" y="0" stroke="none" fill="#ff0000" transform="matrix(0.0833333 0 0 0.0833333 752.842 134.393)" font-style="normal" font-weight="normal" font-size="240px" font-family="Arial" >
(R)</text>
<text x="0" y="0" stroke="none" fill="#ff0000" transform="matrix(0.0833333 0 0 0.0833333 780.606 138.726)" font-style="normal" font-weight="normal" font-size="180px" font-family="Arial" >
m</text>
<path stroke="none" fill="#ff0000" transform="matrix(0.0833333 0 0 0.0833333 -229.667 -190)" d="M 11460.8,3949.88 L 11455.4,3935.89 L 11750.2,3821.62 L 11755.6,3835.61 L 11460.8,3949.88 Z " />
</svg>
