<?xml version="1.0" standalone="no" ?>
<!DOCTYPE svg PUBLIC "-//W3C//DTD SVG 1.1//EN" "http://www.w3.org/Graphics/SVG/1.1/DTD/svg11.dtd">
<svg width="832px" height="155px" viewBox="0 0 832 155" style="background-color: #ffffff00" xmlns="http://www.w3.org/2000/svg" xmlns:xlink="http://www.w3.org/1999/xlink" version="1.1" >
<path stroke="none" fill="#0000ff" transform="matrix(0.0833333 0 0 0.0833333 -217.667 -245)" d="M 10177.6,3627.34 L 10192.6,3636 L 10192.6,3967.34 L 10177.6,3976 L 10177.6,3627.34 Z " />
<path stroke="none" fill="#0000ff" transform="matrix(0.0833333 0 0 0.0833333 -217.667 -245)" d="M 10238.8,3667 L 10253.8,3667 L 10253.8,3936.33 L 10238.8,3936.33 L 10238.8,3667 Z " />
<path stroke="none" fill="#0000ff" transform="matrix(0.0833333 0 0 0.0833333 -217.667 -245)" d="M 10177.6,3976 L 10192.6,3967.34 L 10479.6,4133.01 L 10479.6,4150.33 L 10177.6,3976 Z " />
<path stroke="none" fill="#0000ff" transform="matrix(0.0833333 0 0 0.0833333 -217.667 -245)" d="M 10479.6,4150.33 L 10479.6,4133.01 L 10766.5,3967.34 L 10774,3971.67 L 10774,3980.33 L 10479.6,4150.33 Z " />
<path stroke="none" fill="#0000ff" transform="matrix(0.0833333 0 0 0.0833333 -217.667 -245)" d="M 10483.3,4077.49 L 10475.8,4064.5 L 10709.1,3929.84 L 10716.6,3942.83 L 10483.3,4077.49 Z " />
<path stroke="none" fill="#0000ff" transform="matrix(0.0833333 0 0 0.0833333 -217.667 -245)" d="M 10781.5,3967.34 L 10774,3971.67 L 10766.5,3967.34 L 10766.5,3636 L 10774,3631.67 L 10781.5,3636 L 10781.5,3967.34 Z " />
<path stroke="none" fill="#0000ff" transform="matrix(0.0833333 0 0 0.0833333 -217.667 -245)" d="M 10774,3623.01 L 10774,3631.67 L 10766.5,3636 L 10479.6,3470.33 L 10479.6,3453.01 L 10774,3623.01 Z " />
<path stroke="none" fill="#0000ff" transform="matrix(0.0833333 0 0 0.0833333 -217.667 -245)" d="M 10716.6,3660.51 L 10709.1,3673.5 L 10475.8,3538.83 L 10483.3,3525.84 L 10716.6,3660.51 Z " />
<path stroke="none" fill="#0000ff" transform="matrix(0.0833333 0 0 0.0833333 -217.667 -245)" d="M 10479.6,3453.01 L 10479.6,3470.33 L 10192.6,3636 L 10177.6,3627.34 L 10479.6,3453.01 Z " />
<text x="0" y="0" stroke="none" fill="#ff00ff" transform="matrix(0.0833333 0 0 0.0833333 697.483 107.972)" font-style="normal" font-weight="normal" font-size="240px" font-family="Arial" >
N</text>
<text x="0" y="0" stroke="none" fill="#ff00ff" transform="matrix(0.0833333 0 0 0.0833333 697.483 124.597)" font-style="normal" font-weight="normal" font-size="240px" font-family="Arial" >
H</text>
<path stroke="none" fill="#0000ff" transform="matrix(0.0833333 0 0 0.0833333 -217.667 -245)" d="M 10774,3980.33 L 10774,3971.67 L 10781.5,3967.34 L 10954.1,4067 L 10946.6,4079.99 L 10774,3980.33 Z " />
<path stroke="none" fill="#ff0000" transform="matrix(0.0833333 0 0 0.0833333 -217.667 -245)" d="M 11189.3,4080.56 L 11181.8,4067.57 L 11355.4,3967.34 L 11370.4,3976 L 11189.3,4080.56 Z " />
<path stroke="none" fill="#0000ff" transform="matrix(0.0833333 0 0 0.0833333 -217.667 -245)" d="M 11370.4,3976 L 11355.4,3967.34 L 11355.4,3636 L 11362.9,3631.67 L 11370.4,3657.38 L 11370.4,3976 Z " />
<path stroke="none" fill="#0000ff" transform="matrix(0.0833333 0 0 0.0833333 -217.667 -245)" d="M 11344.4,3612.32 L 11362.9,3631.67 L 11355.4,3636 L 11068.5,3470.33 L 11068.5,3453.01 L 11344.4,3612.32 Z " />
<path stroke="none" fill="#0000ff" transform="matrix(0.0833333 0 0 0.0833333 -217.667 -245)" d="M 11068.5,3453.01 L 11068.5,3470.33 L 10781.5,3636 L 10774,3631.67 L 10774,3623.01 L 11068.5,3453.01 Z " />
<text x="0" y="0" stroke="none" fill="#0000ff" transform="matrix(0.0833333 0 0 0.0833333 696.926 22.9723)" font-style="normal" font-weight="normal" font-size="240px" font-family="Arial" >
O</text>
<path stroke="none" fill="#0000ff" transform="matrix(0.0833333 0 0 0.0833333 -217.667 -245)" d="M 11045.4,3479.33 L 11030.4,3479.33 L 11030.4,3257.67 L 11045.4,3257.67 L 11045.4,3479.33 Z " />
<path stroke="none" fill="#0000ff" transform="matrix(0.0833333 0 0 0.0833333 -217.667 -245)" d="M 11106.6,3479.33 L 11091.6,3479.33 L 11091.6,3257.67 L 11106.6,3257.67 L 11106.6,3479.33 Z " />
<path stroke="none" fill="#0000ff" transform="matrix(0.0833333 0 0 0.0833333 -217.667 -245)" d="M 11370.4,3657.38 L 11362.9,3631.67 L 11344.4,3612.32 L 11649.9,3435.96 L 11657.4,3461.67 L 11675.9,3481.02 L 11370.4,3657.38 Z " />
<text x="0" y="0" stroke="none" fill="#008000" transform="matrix(0.0833333 0 0 0.0833333 747.109 107.972)" font-style="normal" font-weight="normal" font-size="240px" font-family="Arial" >
Ar</text>
<path stroke="none" fill="#008000" transform="matrix(0.0833333 0 0 0.0833333 -217.667 -245)" d="M 11395,4020.22 L 11421,3975.16 L 11434,3982.66 L 11408,4027.72 L 11395,4020.22 Z " />
<path stroke="none" fill="#008000" transform="matrix(0.0833333 0 0 0.0833333 -217.667 -245)" d="M 11447.8,4050.73 L 11473.8,4005.67 L 11486.8,4013.17 L 11460.8,4058.23 L 11447.8,4050.73 Z " />
<path stroke="none" fill="#008000" transform="matrix(0.0833333 0 0 0.0833333 -217.667 -245)" d="M 11500.6,4081.24 L 11526.7,4036.18 L 11539.7,4043.68 L 11513.6,4088.74 L 11500.6,4081.24 Z " />
<path stroke="none" fill="#008000" transform="matrix(0.0833333 0 0 0.0833333 -217.667 -245)" d="M 11553.5,4111.74 L 11579.5,4066.68 L 11592.5,4074.18 L 11566.5,4119.24 L 11553.5,4111.74 Z " />
<text x="0" y="0" stroke="none" fill="#0000ff" transform="matrix(0.0833333 0 0 0.0833333 771.095 65.4723)" font-style="normal" font-weight="normal" font-size="240px" font-family="Arial" >
CO</text>
<text x="0" y="0" stroke="none" fill="#0000ff" transform="matrix(0.0833333 0 0 0.0833333 801.095 69.8056)" font-style="normal" font-weight="normal" font-size="180px" font-family="Arial" >
2</text>
<text x="0" y="0" stroke="none" fill="#0000ff" transform="matrix(0.0833333 0 0 0.0833333 809.437 65.4723)" font-style="normal" font-weight="normal" font-size="240px" font-family="Arial" >
Et</text>
<path stroke="none" fill="#0000ff" transform="matrix(0.0833333 0 0 0.0833333 -217.667 -245)" d="M 11675.9,3481.02 L 11657.4,3461.67 L 11664.9,3457.34 L 11856.4,3567.92 L 11848.9,3580.91 L 11675.9,3481.02 Z " />
<text x="0" y="0" stroke="none" fill="#0000ff" transform="matrix(0.0833333 0 0 0.0833333 746.557 22.9723)" font-style="normal" font-weight="normal" font-size="240px" font-family="Arial" >
CO</text>
<text x="0" y="0" stroke="none" fill="#0000ff" transform="matrix(0.0833333 0 0 0.0833333 776.557 27.3056)" font-style="normal" font-weight="normal" font-size="180px" font-family="Arial" >
2</text>
<text x="0" y="0" stroke="none" fill="#0000ff" transform="matrix(0.0833333 0 0 0.0833333 784.9 22.9723)" font-style="normal" font-weight="normal" font-size="240px" font-family="Arial" >
Et</text>
<path stroke="none" fill="#0000ff" transform="matrix(0.0833333 0 0 0.0833333 -217.667 -245)" d="M 11664.9,3457.34 L 11657.4,3461.67 L 11649.9,3435.96 L 11649.9,3260.67 L 11664.9,3260.67 L 11664.9,3457.34 Z " />
<path stroke="none" fill="#000000" transform="matrix(0.0833333 0 0 0.0833333 -217.667 -245)" d="M 9912.3,3782.6 L 8750.28,3782.6 L 8750.28,3767.6 L 9912.3,3767.6 Z " />
<path stroke="none" fill="#000000" transform="matrix(0.0833333 0 0 0.0833333 -217.667 -245)" d="M 10042.5,3775.1 C 10042.5,3775.1 9892.55,3813.6 9892.55,3813.6 C 9892.55,3813.6 9911.3,3791.95 9911.3,3775.1 C 9911.3,3757.82 9892.55,3735.6 9892.55,3735.6 C 9892.55,3735.6 10042.5,3775.1 10042.5,3775.1 C 10042.5,3775.1 10042.5,3775.1 10042.5,3775.1 " />
<path stroke="#000000" stroke-width="1" fill="none" transform="matrix(0.0833333 0 0 0.0833333 -217.667 -245)" d="M 10042.5,3775.1 C 10042.5,3775.1 9892.55,3813.6 9892.55,3813.6 C 9892.55,3813.6 9911.3,3791.95 9911.3,3775.1 C 9911.3,3757.82 9892.55,3735.6 9892.55,3735.6 C 9892.55,3735.6 10042.5,3775.1 10042.5,3775.1 C 10042.5,3775.1 10042.5,3775.1 10042.5,3775.1 " />
<text x="0" y="0" stroke="none" fill="#800000" transform="matrix(0.0833333 0 0 0.0833333 230.234 81.7281)" font-style="normal" font-weight="normal" font-size="235.55px" font-family="Arial" >
SnCl</text>
<text x="0" y="0" stroke="none" fill="#800000" transform="matrix(0.0833333 0 0 0.0833333 272.78 85.9781)" font-style="normal" font-weight="normal" font-size="176.662px" font-family="Arial" >
4</text>
<text x="0" y="0" stroke="none" fill="#800000" transform="matrix(0.0833333 0 0 0.0833333 280.968 81.7281)" font-style="normal" font-weight="normal" font-size="235.55px" font-family="Arial" >
 </text>
<text x="0" y="0" stroke="none" fill="#800000" transform="matrix(0.0833333 0 0 0.0833333 286.421 81.7281)" font-style="normal" font-weight="normal" font-size="235.55px" font-family="Arial" >
(10 </text>
<text x="0" y="0" stroke="none" fill="#800000" transform="matrix(0.0833333 0 0 0.0833333 320.245 81.7281)" font-style="normal" font-weight="normal" font-size="235.55px" font-family="Arial" >
mol%)</text>
<text x="0" y="0" stroke="none" fill="#000000" transform="matrix(0.0833333 0 0 0.0833333 410.538 77.8294)" font-style="normal" font-weight="normal" font-size="235.55px" font-family="Arial" >
1,2-DCE</text>
<path stroke="none" fill="#0000ff" transform="matrix(0.0833333 0 0 0.0833333 -217.667 -245)" d="M 2663.63,3604.8 L 2678.63,3613.46 L 2678.63,3944.8 L 2663.63,3953.46 L 2663.63,3604.8 Z " />
<path stroke="none" fill="#0000ff" transform="matrix(0.0833333 0 0 0.0833333 -217.667 -245)" d="M 2724.83,3644.46 L 2739.83,3644.46 L 2739.83,3913.8 L 2724.83,3913.8 L 2724.83,3644.46 Z " />
<path stroke="none" fill="#0000ff" transform="matrix(0.0833333 0 0 0.0833333 -217.667 -245)" d="M 2663.63,3953.46 L 2678.63,3944.8 L 2965.58,4110.47 L 2965.58,4127.79 L 2663.63,3953.46 Z " />
<path stroke="none" fill="#0000ff" transform="matrix(0.0833333 0 0 0.0833333 -217.667 -245)" d="M 2965.58,4127.79 L 2965.58,4110.47 L 3252.53,3944.8 L 3260.03,3949.13 L 3260.03,3957.79 L 2965.58,4127.79 Z " />
<path stroke="none" fill="#0000ff" transform="matrix(0.0833333 0 0 0.0833333 -217.667 -245)" d="M 2969.33,4054.96 L 2961.83,4041.97 L 3195.08,3907.3 L 3202.58,3920.29 L 2969.33,4054.96 Z " />
<path stroke="none" fill="#0000ff" transform="matrix(0.0833333 0 0 0.0833333 -217.667 -245)" d="M 3267.53,3944.8 L 3260.03,3949.13 L 3252.53,3944.8 L 3252.53,3613.46 L 3260.03,3609.13 L 3267.53,3613.46 L 3267.53,3944.8 Z " />
<path stroke="none" fill="#0000ff" transform="matrix(0.0833333 0 0 0.0833333 -217.667 -245)" d="M 3260.03,3600.47 L 3260.03,3609.13 L 3252.53,3613.46 L 2965.58,3447.79 L 2965.58,3430.47 L 3260.03,3600.47 Z " />
<path stroke="none" fill="#0000ff" transform="matrix(0.0833333 0 0 0.0833333 -217.667 -245)" d="M 3202.58,3637.97 L 3195.08,3650.96 L 2961.83,3516.29 L 2969.33,3503.3 L 3202.58,3637.97 Z " />
<path stroke="none" fill="#0000ff" transform="matrix(0.0833333 0 0 0.0833333 -217.667 -245)" d="M 2965.58,3430.47 L 2965.58,3447.79 L 2678.63,3613.46 L 2663.63,3604.8 L 2965.58,3430.47 Z " />
<path stroke="none" fill="#0000ff" transform="matrix(0.0833333 0 0 0.0833333 -217.667 -245)" d="M 3267.53,3613.46 L 3260.03,3609.13 L 3260.03,3600.47 L 3550.73,3432.63 L 3558.23,3445.63 L 3267.53,3613.46 Z " />
<text x="0" y="0" stroke="none" fill="#0000ff" transform="matrix(0.0833333 0 0 0.0833333 70.7616 21.0942)" font-style="normal" font-weight="normal" font-size="240px" font-family="Arial" >
O</text>
<path stroke="none" fill="#0000ff" transform="matrix(0.0833333 0 0 0.0833333 -217.667 -245)" d="M 3531.38,3456.8 L 3516.38,3456.8 L 3516.38,3235.13 L 3531.38,3235.13 L 3531.38,3456.8 Z " />
<path stroke="none" fill="#0000ff" transform="matrix(0.0833333 0 0 0.0833333 -217.667 -245)" d="M 3592.58,3456.8 L 3577.58,3456.8 L 3577.58,3235.13 L 3592.58,3235.13 L 3592.58,3456.8 Z " />
<path stroke="none" fill="#0000ff" transform="matrix(0.0833333 0 0 0.0833333 -217.667 -245)" d="M 3586.53,3487.68 L 3612.55,3442.62 L 3625.54,3450.12 L 3599.52,3495.18 L 3586.53,3487.68 Z " />
<path stroke="none" fill="#0000ff" transform="matrix(0.0833333 0 0 0.0833333 -217.667 -245)" d="M 3634.37,3515.29 L 3660.38,3470.23 L 3673.37,3477.73 L 3647.36,3522.79 L 3634.37,3515.29 Z " />
<path stroke="none" fill="#0000ff" transform="matrix(0.0833333 0 0 0.0833333 -217.667 -245)" d="M 3682.2,3542.91 L 3708.22,3497.85 L 3721.21,3505.35 L 3695.19,3550.41 L 3682.2,3542.91 Z " />
<path stroke="none" fill="#0000ff" transform="matrix(0.0833333 0 0 0.0833333 -217.667 -245)" d="M 3730.03,3570.53 L 3756.05,3525.47 L 3769.04,3532.97 L 3743.03,3578.03 L 3730.03,3570.53 Z " />
<path stroke="none" fill="#0000ff" transform="matrix(0.0833333 0 0 0.0833333 -217.667 -245)" d="M 3777.87,3598.14 L 3803.88,3553.08 L 3816.88,3560.58 L 3790.86,3605.64 L 3777.87,3598.14 Z " />
<path stroke="none" fill="#0000ff" transform="matrix(0.0833333 0 0 0.0833333 -217.667 -245)" d="M 3835.94,3601.63 L 3861.92,3616.63 L 4018.93,3888.58 L 4018.93,3903.58 L 3992.91,3873.52 L 3835.94,3601.63 Z " />
<path stroke="none" fill="#0000ff" transform="matrix(0.0833333 0 0 0.0833333 -217.667 -245)" d="M 4044.94,3873.52 L 4018.93,3903.58 L 4018.93,3888.58 L 4175.94,3616.63 L 4188.93,3609.13 L 4190.54,3621.34 L 4044.94,3873.52 Z " />
<path stroke="none" fill="#0000ff" transform="matrix(0.0833333 0 0 0.0833333 -217.667 -245)" d="M 4183.92,3601.63 L 4188.93,3609.13 L 4175.94,3616.63 L 3861.92,3616.63 L 3835.94,3601.63 L 4183.92,3601.63 Z " />
<text x="0" y="0" stroke="none" fill="#ff00ff" transform="matrix(0.0833333 0 0 0.0833333 71.3182 106.094)" font-style="normal" font-weight="normal" font-size="240px" font-family="Arial" >
NH</text>
<text x="0" y="0" stroke="none" fill="#ff00ff" transform="matrix(0.0833333 0 0 0.0833333 100.205 110.428)" font-style="normal" font-weight="normal" font-size="180px" font-family="Arial" >
2</text>
<path stroke="none" fill="#0000ff" transform="matrix(0.0833333 0 0 0.0833333 -217.667 -245)" d="M 3260.03,3957.79 L 3260.03,3949.13 L 3267.53,3944.8 L 3440.15,4044.46 L 3432.65,4057.45 L 3260.03,3957.79 Z " />
<text x="0" y="0" stroke="none" fill="#008000" transform="matrix(0.0833333 0 0 0.0833333 110.574 116.465)" font-style="normal" font-weight="normal" font-size="240px" font-family="Arial" >
Ar</text>
<path stroke="none" fill="#008000" transform="matrix(0.0833333 0 0 0.0833333 -217.667 -245)" d="M 3992.91,3873.52 L 4018.93,3903.58 L 4044.94,3873.52 L 4044.94,4128.08 L 3992.91,4128.08 L 3992.91,3873.52 Z " />
<text x="0" y="0" stroke="none" fill="#0000ff" transform="matrix(0.0833333 0 0 0.0833333 144.224 83.6289)" font-style="normal" font-weight="normal" font-size="240px" font-family="Arial" >
CO</text>
<text x="0" y="0" stroke="none" fill="#0000ff" transform="matrix(0.0833333 0 0 0.0833333 174.224 87.9622)" font-style="normal" font-weight="normal" font-size="180px" font-family="Arial" >
2</text>
<text x="0" y="0" stroke="none" fill="#0000ff" transform="matrix(0.0833333 0 0 0.0833333 182.566 83.6289)" font-style="normal" font-weight="normal" font-size="240px" font-family="Arial" >
Et</text>
<path stroke="none" fill="#0000ff" transform="matrix(0.0833333 0 0 0.0833333 -217.667 -245)" d="M 4190.54,3621.34 L 4188.93,3609.13 L 4197.77,3607.37 L 4353.03,3762.63 L 4342.43,3773.24 L 4190.54,3621.34 Z " />
<text x="0" y="0" stroke="none" fill="#0000ff" transform="matrix(0.0833333 0 0 0.0833333 135.032 37.4176)" font-style="normal" font-weight="normal" font-size="240px" font-family="Arial" >
CO</text>
<text x="0" y="0" stroke="none" fill="#0000ff" transform="matrix(0.0833333 0 0 0.0833333 165.032 41.7509)" font-style="normal" font-weight="normal" font-size="180px" font-family="Arial" >
2</text>
<text x="0" y="0" stroke="none" fill="#0000ff" transform="matrix(0.0833333 0 0 0.0833333 173.374 37.4176)" font-style="normal" font-weight="normal" font-size="240px" font-family="Arial" >
Et</text>
<path stroke="none" fill="#0000ff" transform="matrix(0.0833333 0 0 0.0833333 -217.667 -245)" d="M 4197.77,3607.37 L 4188.93,3609.13 L 4183.92,3601.63 L 4259.73,3418.61 L 4273.58,3424.35 L 4197.77,3607.37 Z " />
<path stroke="none" fill="#000000" transform="matrix(0.0833333 0 0 0.0833333 -217.667 -245)" d="M 5107.55,3845.67 L 5202.55,3845.67 L 5202.55,3857.67 L 5107.55,3857.67 Z " />
<path stroke="none" fill="#000000" transform="matrix(0.0833333 0 0 0.0833333 -217.667 -245)" d="M 5161.05,3804.17 L 5161.05,3899.17 L 5149.05,3899.17 L 5149.05,3804.17 Z " />
<path stroke="none" fill="#000000" transform="matrix(0.0833333 0 0 0.0833333 -217.667 -245)" d="M 7297.75,3814.67 L 7392.75,3814.67 L 7392.75,3826.67 L 7297.75,3826.67 Z " />
<path stroke="none" fill="#000000" transform="matrix(0.0833333 0 0 0.0833333 -217.667 -245)" d="M 7351.25,3773.17 L 7351.25,3868.17 L 7339.25,3868.17 L 7339.25,3773.17 Z " />
<text x="0" y="0" stroke="none" fill="#000000" transform="matrix(0.0833333 0 0 0.0833333 80.6401 145.997)" font-style="normal" font-weight="bold" font-size="240px" font-family="Arial" >
I</text>
<text x="0" y="0" stroke="none" fill="#000000" transform="matrix(0.0833333 0 0 0.0833333 284.68 145.997)" font-style="normal" font-weight="bold" font-size="240px" font-family="Arial" >
II</text>
<text x="0" y="0" stroke="none" fill="#000000" transform="matrix(0.0833333 0 0 0.0833333 428.455 145.997)" font-style="normal" font-weight="bold" font-size="240px" font-family="Arial" >
IV</text>
<text x="0" y="0" stroke="none" fill="#000000" transform="matrix(0.0833333 0 0 0.0833333 698.786 145.997)" font-style="normal" font-weight="bold" font-size="240px" font-family="Arial" >
III</text>
</svg>
