<?xml version="1.0" standalone="no" ?>
<!DOCTYPE svg PUBLIC "-//W3C//DTD SVG 1.1//EN" "http://www.w3.org/Graphics/SVG/1.1/DTD/svg11.dtd">
<svg width="1144px" height="224px" viewBox="0 0 1144 224" style="background-color: #ffffff00" xmlns="http://www.w3.org/2000/svg" xmlns:xlink="http://www.w3.org/1999/xlink" version="1.1" >
<path stroke="none" fill="#000000" transform="matrix(0.0833333 0 0 0.0833333 -58.6667 -204)" d="M 2486.42,4293.75 L 2556.98,4293.75 L 2556.98,4305.75 L 2486.42,4305.75 Z " />
<path stroke="none" fill="#000000" transform="matrix(0.0833333 0 0 0.0833333 -58.6667 -204)" d="M 2527.7,4264.48 L 2527.7,4335.03 L 2515.7,4335.03 L 2515.7,4264.48 Z " />
<text x="0" y="0" stroke="none" fill="#ff0000" transform="matrix(0.0833333 0 0 0.0833333 4.19861 166.629)" font-style="normal" font-weight="normal" font-size="240px" font-family="Arial" >
R</text>
<path stroke="none" fill="#ff0000" transform="matrix(0.0833333 0 0 0.0833333 -58.6667 -204)" d="M 949.783,4299.4 L 942.281,4286.42 L 1134.44,4175.44 L 1134.44,4192.76 L 949.783,4299.4 Z " />
<path stroke="none" fill="#ff0000" transform="matrix(0.0833333 0 0 0.0833333 -58.6667 -204)" d="M 1134.44,4192.76 L 1134.44,4175.44 L 1427.84,4344.89 L 1427.83,4362.21 L 1134.44,4192.76 Z " />
<path stroke="none" fill="#ff0000" transform="matrix(0.0833333 0 0 0.0833333 -58.6667 -204)" d="M 1161.19,4137.78 L 1168.69,4124.79 L 1431.6,4276.63 L 1424.1,4289.62 L 1161.19,4137.78 Z " />
<path stroke="none" fill="#ff0000" transform="matrix(0.0833333 0 0 0.0833333 -58.6667 -204)" d="M 1427.83,4362.21 L 1427.84,4344.89 L 1721.55,4175.44 L 1721.55,4192.76 L 1427.83,4362.21 Z " />
<text x="0" y="0" stroke="none" fill="#ff0000" transform="matrix(0.0833333 0 0 0.0833333 100.196 168.829)" font-style="normal" font-weight="normal" font-size="240px" font-family="Arial" >
O</text>
<path stroke="none" fill="#ff0000" transform="matrix(0.0833333 0 0 0.0833333 -58.6667 -204)" d="M 1721.55,4192.76 L 1721.55,4175.44 L 1914.85,4287.08 L 1907.35,4300.07 L 1721.55,4192.76 Z " />
<path stroke="none" fill="#ff0000" transform="matrix(0.0833333 0 0 0.0833333 -58.6667 -204)" d="M 1717.78,4261.01 L 1725.28,4248.02 L 1884.35,4339.89 L 1876.85,4352.88 L 1717.78,4261.01 Z " />
<text x="0" y="0" stroke="none" fill="#0000ff" transform="matrix(0.0833333 0 0 0.0833333 1066.43 176.417)" font-style="normal" font-weight="normal" font-size="240px" font-family="Arial" >
N</text>
<text x="0" y="0" stroke="none" fill="#0000ff" transform="matrix(0.0833333 0 0 0.0833333 1066.43 193.042)" font-style="normal" font-weight="normal" font-size="240px" font-family="Arial" >
H</text>
<path stroke="none" fill="#0000ff" transform="matrix(0.0833333 0 0 0.0833333 -58.6667 -204)" d="M 13303.5,4273.73 L 13321.1,4268 L 13479.7,4383.17 L 13470.8,4395.31 L 13303.5,4273.73 Z " />
<path stroke="none" fill="#6a0000" transform="matrix(0.0833333 0 0 0.0833333 -58.6667 -204)" d="M 13321.1,4268 L 13303.5,4273.73 L 13409.2,3948.34 L 13417.6,3947.03 L 13423,3954.53 L 13321.1,4268 Z " />
<path stroke="none" fill="#ff0000" transform="matrix(0.0833333 0 0 0.0833333 -58.6667 -204)" d="M 13423,3954.53 L 13417.6,3947.03 L 13421.4,3939.53 L 13754.2,3939.53 L 13758.1,3947.03 L 13752.6,3954.53 L 13423,3954.53 Z " />
<path stroke="none" fill="#6a0000" transform="matrix(0.0833333 0 0 0.0833333 -58.6667 -204)" d="M 13752.6,3954.53 L 13758.1,3947.03 L 13766.4,3948.34 L 13872.1,4273.73 L 13854.5,4268 L 13752.6,3954.53 Z " />
<path stroke="none" fill="#6a0000" transform="matrix(0.0833333 0 0 0.0833333 -58.6667 -204)" d="M 13706.4,4010.64 L 13720.7,4006 L 13798.4,4245.14 L 13784.1,4249.77 L 13706.4,4010.64 Z " />
<path stroke="none" fill="#0000ff" transform="matrix(0.0833333 0 0 0.0833333 -58.6667 -204)" d="M 13854.5,4268 L 13872.1,4273.73 L 13703.9,4395.93 L 13695.1,4383.8 L 13854.5,4268 Z " />
<path stroke="none" fill="#ff0000" transform="matrix(0.0833333 0 0 0.0833333 -58.6667 -204)" d="M 13766.4,3948.34 L 13758.1,3947.03 L 13754.2,3939.53 L 13949.6,3670.65 L 13966.8,3672.46 L 13766.4,3948.34 Z " />
<text x="0" y="0" stroke="none" fill="#ff0000" transform="matrix(0.0833333 0 0 0.0833333 1085.75 83.8743)" font-style="normal" font-weight="normal" font-size="240px" font-family="Arial" >
H</text>
<path stroke="none" fill="#ff0000" transform="matrix(0.0833333 0 0 0.0833333 -58.6667 -204)" d="M 13966.8,3672.46 L 13949.6,3670.65 L 13874.8,3502.77 L 13888.5,3496.66 L 13966.8,3672.46 Z " />
<text x="0" y="0" stroke="none" fill="#ff0000" transform="matrix(0.0833333 0 0 0.0833333 1124.96 112.762)" font-style="normal" font-weight="normal" font-size="240px" font-family="Arial" >
O</text>
<path stroke="none" fill="#ff0000" transform="matrix(0.0833333 0 0 0.0833333 -58.6667 -204)" d="M 13943,3646.69 L 13944.6,3631.77 L 14180.6,3656.57 L 14179,3671.49 L 13943,3646.69 Z " />
<path stroke="none" fill="#ff0000" transform="matrix(0.0833333 0 0 0.0833333 -58.6667 -204)" d="M 13936.6,3707.64 L 13938.2,3692.72 L 14174.2,3717.53 L 14172.6,3732.45 L 13936.6,3707.64 Z " />
<path stroke="none" fill="#0000ff" transform="matrix(0.0833333 0 0 0.0833333 -58.6667 -204)" d="M 13006.5,4368.19 L 12996.5,4379.34 L 12746.6,4154.39 L 12748.4,4145.92 L 12756.7,4143.25 L 13006.5,4368.19 Z " />
<text x="0" y="0" stroke="none" fill="#ff0000" transform="matrix(0.0833333 0 0 0.0833333 1035.56 109.796)" font-style="normal" font-weight="normal" font-size="240px" font-family="Arial" >
R</text>
<path stroke="none" fill="#ff0000" transform="matrix(0.0833333 0 0 0.0833333 -58.6667 -204)" d="M 13421.4,3939.53 L 13417.6,3947.03 L 13409.2,3948.34 L 13307.4,3808.2 L 13319.6,3799.38 L 13421.4,3939.53 Z " />
<path stroke="none" fill="#0000ff" transform="matrix(0.0833333 0 0 0.0833333 -58.6667 -204)" d="M 12742,4140.13 L 12748.4,4145.92 L 12746.6,4154.39 L 12422.8,4259.61 L 12426.4,4242.67 L 12742,4140.13 Z " />
<path stroke="none" fill="#0000ff" transform="matrix(0.0833333 0 0 0.0833333 -58.6667 -204)" d="M 12693.5,4091.43 L 12698.2,4105.7 L 12441.6,4189.05 L 12437,4174.79 L 12693.5,4091.43 Z " />
<path stroke="none" fill="#0000ff" transform="matrix(0.0833333 0 0 0.0833333 -58.6667 -204)" d="M 12426.4,4242.67 L 12422.8,4259.61 L 12163.3,4025.98 L 12179.8,4020.63 L 12426.4,4242.67 Z " />
<path stroke="none" fill="#0000ff" transform="matrix(0.0833333 0 0 0.0833333 -58.6667 -204)" d="M 12179.8,4020.63 L 12163.3,4025.98 L 12194,3881.87 L 12208.4,3886.2 L 12179.8,4020.63 L 12179.8,4020.63 Z " />
<path stroke="none" fill="#0000ff" transform="matrix(0.0833333 0 0 0.0833333 -58.6667 -204)" d="M 12235.9,3684.45 L 12248.8,3696.04 L 12228.2,3792.96 L 12213.8,3788.64 L 12235.9,3684.45 L 12235.9,3684.45 Z " />
<path stroke="none" fill="#0000ff" transform="matrix(0.0833333 0 0 0.0833333 -58.6667 -204)" d="M 12246.2,4002.99 L 12231.5,3999.87 L 12252.9,3899.54 L 12267.3,3903.87 L 12246.2,4002.99 L 12246.2,4002.99 Z " />
<path stroke="none" fill="#0000ff" transform="matrix(0.0833333 0 0 0.0833333 -58.6667 -204)" d="M 12287.6,3736.04 L 12302.3,3739.16 L 12287.1,3810.63 L 12272.7,3806.31 L 12287.6,3736.04 L 12287.6,3736.04 Z " />
<path stroke="none" fill="#0000ff" transform="matrix(0.0833333 0 0 0.0833333 -58.6667 -204)" d="M 12248.8,3696.04 L 12235.9,3684.45 L 12568,3576.55 L 12564.4,3593.49 L 12248.8,3696.04 Z " />
<path stroke="none" fill="#0000ff" transform="matrix(0.0833333 0 0 0.0833333 -58.6667 -204)" d="M 12564.4,3593.49 L 12568,3576.55 L 12827.5,3810.18 L 12811,3815.54 L 12564.4,3593.49 Z " />
<path stroke="none" fill="#0000ff" transform="matrix(0.0833333 0 0 0.0833333 -58.6667 -204)" d="M 12546.5,3659.82 L 12556.5,3648.67 L 12756.9,3829.16 L 12746.9,3840.3 L 12546.5,3659.82 Z " />
<path stroke="none" fill="#0000ff" transform="matrix(0.0833333 0 0 0.0833333 -58.6667 -204)" d="M 12811,3815.54 L 12827.5,3810.18 L 12756.7,4143.25 L 12748.4,4145.92 L 12742,4140.13 L 12811,3815.54 Z " />
<text x="0" y="0" stroke="none" fill="#0000ff" transform="matrix(0.0833333 0 0 0.0833333 1011.11 196.069)" font-style="normal" font-weight="normal" font-size="240px" font-family="Arial" >
O</text>
<path stroke="none" fill="#0000ff" transform="matrix(0.0833333 0 0 0.0833333 -58.6667 -204)" d="M 13027.8,4361.05 L 13042.5,4364.17 L 12992.7,4598.71 L 12978,4595.6 L 13027.8,4361.05 Z " />
<path stroke="none" fill="#0000ff" transform="matrix(0.0833333 0 0 0.0833333 -58.6667 -204)" d="M 12967.9,4348.53 L 12982.5,4351.64 L 12932.7,4585.97 L 12918,4582.85 L 12967.9,4348.53 Z " />
<text x="0" y="0" stroke="none" fill="#0000ff" transform="matrix(0.0833333 0 0 0.0833333 921.339 109.179)" font-style="normal" font-weight="normal" font-size="180px" font-family="Arial" >
1</text>
<text x="0" y="0" stroke="none" fill="#0000ff" transform="matrix(0.0833333 0 0 0.0833333 929.681 117.012)" font-style="normal" font-weight="normal" font-size="240px" font-family="Arial" >
R</text>
<path stroke="none" fill="#0000ff" transform="matrix(0.0833333 0 0 0.0833333 -58.6667 -204)" d="M 12359.4,3874.1 L 12355.1,3888.46 L 12061.8,3800.46 L 12066.1,3786.1 L 12359.4,3874.1 Z " />
<path stroke="none" fill="#000000" transform="matrix(0.0833333 0 0 0.0833333 -58.6667 -204)" d="M 11682.9,4282.59 L 10667.2,4282.59 L 10667.2,4267.59 L 11682.9,4267.59 Z " />
<path stroke="none" fill="#000000" transform="matrix(0.0833333 0 0 0.0833333 -58.6667 -204)" d="M 11813.2,4275.09 C 11813.2,4275.09 11663.2,4313.59 11663.2,4313.59 C 11663.2,4313.59 11681.9,4291.93 11681.9,4275.09 C 11681.9,4257.81 11663.2,4235.59 11663.2,4235.59 C 11663.2,4235.59 11813.2,4275.09 11813.2,4275.09 C 11813.2,4275.09 11813.2,4275.09 11813.2,4275.09 " />
<path stroke="#000000" stroke-width="1" fill="none" transform="matrix(0.0833333 0 0 0.0833333 -58.6667 -204)" d="M 11813.2,4275.09 C 11813.2,4275.09 11663.2,4313.59 11663.2,4313.59 C 11663.2,4313.59 11681.9,4291.93 11681.9,4275.09 C 11681.9,4257.81 11663.2,4235.59 11663.2,4235.59 C 11663.2,4235.59 11813.2,4275.09 11813.2,4275.09 C 11813.2,4275.09 11813.2,4275.09 11813.2,4275.09 " />
<text x="0" y="0" stroke="none" fill="#440021" transform="matrix(0.0833333 0 0 0.0833333 420.998 171.764)" font-style="normal" font-weight="normal" font-size="240px" font-family="Arial" >
N</text>
<text x="0" y="0" stroke="none" fill="#440021" transform="matrix(0.0833333 0 0 0.0833333 420.998 188.389)" font-style="normal" font-weight="normal" font-size="240px" font-family="Arial" >
H</text>
<path stroke="none" fill="#440021" transform="matrix(0.0833333 0 0 0.0833333 -58.6667 -204)" d="M 5511.75,3964.79 L 5526.75,3975.68 L 5526.75,4304.55 L 5511.75,4315.45 L 5511.75,3964.79 Z " />
<path stroke="none" fill="#440021" transform="matrix(0.0833333 0 0 0.0833333 -58.6667 -204)" d="M 5511.75,4315.45 L 5526.75,4304.55 L 5724.7,4368.93 L 5720.07,4383.19 L 5511.75,4315.45 Z " />
<path stroke="none" fill="#440021" transform="matrix(0.0833333 0 0 0.0833333 -58.6667 -204)" d="M 5931.11,4306.3 L 5918.97,4297.48 L 6033.32,4140.27 L 6051.87,4140.28 L 5931.11,4306.3 Z " />
<path stroke="none" fill="#440021" transform="matrix(0.0833333 0 0 0.0833333 -58.6667 -204)" d="M 6051.87,4140.28 L 6033.32,4140.27 L 5839.78,3873.88 L 5845.51,3856.25 L 6051.87,4140.28 Z " />
<path stroke="none" fill="#440021" transform="matrix(0.0833333 0 0 0.0833333 -58.6667 -204)" d="M 5845.51,3856.25 L 5839.78,3873.88 L 5526.75,3975.68 L 5511.75,3964.79 L 5845.51,3856.25 Z " />
<path stroke="none" fill="#440021" transform="matrix(0.0833333 0 0 0.0833333 -58.6667 -204)" d="M 6094.64,4147.77 L 6094.64,4132.77 L 6109.64,4130.77 L 6109.64,4149.78 L 6094.64,4147.77 Z " />
<path stroke="none" fill="#440021" transform="matrix(0.0833333 0 0 0.0833333 -58.6667 -204)" d="M 6149.89,4155.15 L 6149.89,4125.39 L 6164.89,4123.39 L 6164.89,4157.16 L 6149.89,4155.15 Z " />
<path stroke="none" fill="#440021" transform="matrix(0.0833333 0 0 0.0833333 -58.6667 -204)" d="M 6205.13,4162.53 L 6205.13,4118.01 L 6220.13,4116.01 L 6220.13,4164.54 L 6205.13,4162.53 Z " />
<path stroke="none" fill="#440021" transform="matrix(0.0833333 0 0 0.0833333 -58.6667 -204)" d="M 6260.38,4169.91 L 6260.38,4110.63 L 6275.38,4108.63 L 6275.38,4171.92 L 6260.38,4169.91 Z " />
<path stroke="none" fill="#440021" transform="matrix(0.0833333 0 0 0.0833333 -58.6667 -204)" d="M 6315.63,4177.29 L 6315.63,4103.25 L 6330.63,4101.25 L 6330.63,4179.3 L 6315.63,4177.29 Z " />
<path stroke="none" fill="#440021" transform="matrix(0.0833333 0 0 0.0833333 -58.6667 -204)" d="M 6392.45,4132.77 L 6382.67,4140.27 L 6375.17,4139.29 L 6462.48,3813.78 L 6470.84,3811.53 L 6476.96,3817.66 L 6392.45,4132.77 Z " />
<path stroke="none" fill="#440021" transform="matrix(0.0833333 0 0 0.0833333 -58.6667 -204)" d="M 6390.17,4147.77 L 6382.67,4140.27 L 6392.45,4132.77 L 6719.25,4132.77 L 6722.75,4140.27 L 6717.5,4147.77 L 6390.17,4147.77 Z " />
<path stroke="none" fill="#440021" transform="matrix(0.0833333 0 0 0.0833333 -58.6667 -204)" d="M 6476.96,3817.66 L 6470.84,3811.53 L 6473.08,3803.17 L 6793.14,3717.55 L 6805.39,3729.8 L 6476.96,3817.66 Z " />
<path stroke="none" fill="#440021" transform="matrix(0.0833333 0 0 0.0833333 -58.6667 -204)" d="M 6491.06,3750.54 L 6487.18,3736.05 L 6747.35,3666.46 L 6751.23,3680.95 L 6491.06,3750.54 Z " />
<path stroke="none" fill="#440021" transform="matrix(0.0833333 0 0 0.0833333 -58.6667 -204)" d="M 6805.39,3729.8 L 6793.14,3717.55 L 6878.76,3397.49 L 6895.49,3393.01 L 6805.39,3729.8 Z " />
<path stroke="none" fill="#440021" transform="matrix(0.0833333 0 0 0.0833333 -58.6667 -204)" d="M 6895.49,3393.01 L 6878.76,3397.49 L 6644.62,3163.04 L 6649.11,3146.31 L 6895.49,3393.01 Z " />
<path stroke="none" fill="#440021" transform="matrix(0.0833333 0 0 0.0833333 -58.6667 -204)" d="M 6824.19,3408.23 L 6813.57,3418.83 L 6623.25,3228.25 L 6633.86,3217.65 L 6824.19,3408.23 Z " />
<path stroke="none" fill="#440021" transform="matrix(0.0833333 0 0 0.0833333 -58.6667 -204)" d="M 6649.11,3146.31 L 6644.62,3163.04 L 6324.25,3248.97 L 6312,3236.72 L 6649.11,3146.31 Z " />
<path stroke="none" fill="#440021" transform="matrix(0.0833333 0 0 0.0833333 -58.6667 -204)" d="M 6312,3236.72 L 6324.25,3248.97 L 6238.63,3569.03 L 6221.9,3573.52 L 6312,3236.72 Z " />
<path stroke="none" fill="#440021" transform="matrix(0.0833333 0 0 0.0833333 -58.6667 -204)" d="M 6360.86,3290.86 L 6375.35,3294.74 L 6305.76,3554.89 L 6291.27,3551.01 L 6360.86,3290.86 Z " />
<path stroke="none" fill="#440021" transform="matrix(0.0833333 0 0 0.0833333 -58.6667 -204)" d="M 6221.9,3573.52 L 6238.63,3569.03 L 6473.08,3803.17 L 6470.84,3811.53 L 6462.48,3813.78 L 6221.9,3573.52 Z " />
<path stroke="none" fill="#440021" transform="matrix(0.0833333 0 0 0.0833333 -58.6667 -204)" d="M 6717.5,4147.77 L 6722.75,4140.27 L 6731.28,4141.78 L 6844.65,4453.12 L 6833.52,4466.39 L 6717.5,4147.77 Z " />
<path stroke="none" fill="#440021" transform="matrix(0.0833333 0 0 0.0833333 -58.6667 -204)" d="M 6785.3,4155.1 L 6799.39,4149.97 L 6891.55,4403.05 L 6877.45,4408.18 L 6785.3,4155.1 Z " />
<path stroke="none" fill="#440021" transform="matrix(0.0833333 0 0 0.0833333 -58.6667 -204)" d="M 6833.52,4466.39 L 6844.65,4453.12 L 7170.96,4510.61 L 7176.89,4526.88 L 6833.52,4466.39 Z " />
<path stroke="none" fill="#440021" transform="matrix(0.0833333 0 0 0.0833333 -58.6667 -204)" d="M 7176.89,4526.88 L 7170.96,4510.61 L 7383.91,4256.76 L 7400.97,4259.76 L 7176.89,4526.88 Z " />
<path stroke="none" fill="#440021" transform="matrix(0.0833333 0 0 0.0833333 -58.6667 -204)" d="M 7155.49,4457.16 L 7144,4447.52 L 7317.1,4241.18 L 7328.59,4250.82 L 7155.49,4457.16 Z " />
<path stroke="none" fill="#440021" transform="matrix(0.0833333 0 0 0.0833333 -58.6667 -204)" d="M 7400.97,4259.76 L 7383.91,4256.76 L 7270.54,3945.42 L 7281.67,3932.15 L 7400.97,4259.76 Z " />
<path stroke="none" fill="#440021" transform="matrix(0.0833333 0 0 0.0833333 -58.6667 -204)" d="M 7281.67,3932.15 L 7270.54,3945.42 L 6944.23,3887.93 L 6938.3,3871.65 L 7281.67,3932.15 Z " />
<path stroke="none" fill="#440021" transform="matrix(0.0833333 0 0 0.0833333 -58.6667 -204)" d="M 7231.99,3985.54 L 7229.39,4000.31 L 6964.14,3953.58 L 6966.74,3938.8 L 7231.99,3985.54 Z " />
<path stroke="none" fill="#440021" transform="matrix(0.0833333 0 0 0.0833333 -58.6667 -204)" d="M 6938.3,3871.65 L 6944.23,3887.93 L 6731.28,4141.78 L 6722.75,4140.27 L 6719.25,4132.77 L 6938.3,3871.65 Z " />
<text x="0" y="0" stroke="none" fill="#440021" transform="matrix(0.0833333 0 0 0.0833333 465.444 183.074)" font-style="normal" font-weight="normal" font-size="240px" font-family="Arial" >
OTMS</text>
<path stroke="none" fill="#440021" transform="matrix(0.0833333 0 0 0.0833333 -58.6667 -204)" d="M 6375.17,4139.29 L 6382.67,4140.27 L 6390.17,4147.77 L 6390.17,4432.89 L 6375.17,4432.89 L 6375.17,4139.29 Z " />
<path stroke="none" fill="#0000ff" transform="matrix(0.0833333 0 0 0.0833333 -58.6667 -204)" d="M 13260.5,4280.12 L 13265.2,4294.36 L 13251.7,4301.08 L 13245.6,4282.82 L 13260.5,4280.12 Z " />
<path stroke="none" fill="#0000ff" transform="matrix(0.0833333 0 0 0.0833333 -58.6667 -204)" d="M 13208.8,4289.5 L 13218.1,4317.7 L 13204.5,4324.42 L 13193.9,4292.2 L 13208.8,4289.5 Z " />
<path stroke="none" fill="#0000ff" transform="matrix(0.0833333 0 0 0.0833333 -58.6667 -204)" d="M 13157.1,4298.88 L 13171,4341.04 L 13157.4,4347.76 L 13142.1,4301.58 L 13157.1,4298.88 Z " />
<path stroke="none" fill="#0000ff" transform="matrix(0.0833333 0 0 0.0833333 -58.6667 -204)" d="M 13105.3,4308.26 L 13123.9,4364.37 L 13110.3,4371.1 L 13090.4,4310.96 L 13105.3,4308.26 Z " />
<path stroke="none" fill="#0000ff" transform="matrix(0.0833333 0 0 0.0833333 -58.6667 -204)" d="M 13053.6,4317.64 L 13076.8,4387.71 L 13063.2,4394.44 L 13038.7,4320.34 L 13053.6,4317.64 Z " />
<path stroke="none" fill="#000000" transform="matrix(0.0833333 0 0 0.0833333 -58.6667 -204)" d="M 5048.54,4293.75 L 5119.1,4293.75 L 5119.1,4305.75 L 5048.54,4305.75 Z " />
<path stroke="none" fill="#000000" transform="matrix(0.0833333 0 0 0.0833333 -58.6667 -204)" d="M 5089.82,4264.48 L 5089.82,4335.03 L 5077.82,4335.03 L 5077.82,4264.48 Z " />
<text x="0" y="0" stroke="none" fill="#008000" transform="matrix(0.0833333 0 0 0.0833333 631.855 188.694)" font-style="normal" font-weight="bold" font-size="240px" font-family="Arial" >
N</text>
<path stroke="none" fill="#008000" transform="matrix(0.0833333 0 0 0.0833333 -58.6667 -204)" d="M 8070.98,4103.5 L 8085.98,4112.16 L 8085.98,4443.5 L 8070.98,4452.16 L 8070.98,4103.5 Z " />
<path stroke="none" fill="#008000" transform="matrix(0.0833333 0 0 0.0833333 -58.6667 -204)" d="M 8132.18,4143.16 L 8147.18,4143.16 L 8147.18,4412.49 L 8132.18,4412.49 L 8132.18,4143.16 Z " />
<path stroke="none" fill="#008000" transform="matrix(0.0833333 0 0 0.0833333 -58.6667 -204)" d="M 8070.98,4452.16 L 8085.98,4443.5 L 8254.6,4540.85 L 8247.1,4553.84 L 8070.98,4452.16 Z " />
<path stroke="none" fill="#008000" transform="matrix(0.0833333 0 0 0.0833333 -58.6667 -204)" d="M 8497.76,4554.41 L 8490.26,4541.42 L 8659.87,4443.5 L 8674.87,4452.16 L 8497.76,4554.41 Z " />
<path stroke="none" fill="#008000" transform="matrix(0.0833333 0 0 0.0833333 -58.6667 -204)" d="M 8467.16,4501.41 L 8459.66,4488.42 L 8602.42,4406 L 8609.92,4418.99 L 8467.16,4501.41 Z " />
<path stroke="none" fill="#008000" transform="matrix(0.0833333 0 0 0.0833333 -58.6667 -204)" d="M 8674.87,4452.16 L 8659.87,4443.5 L 8659.87,4112.16 L 8674.87,4103.5 L 8674.87,4452.16 Z " />
<path stroke="none" fill="#008000" transform="matrix(0.0833333 0 0 0.0833333 -58.6667 -204)" d="M 8674.87,4103.5 L 8659.87,4112.16 L 8372.93,3946.49 L 8372.93,3937.83 L 8380.43,3933.5 L 8674.87,4103.5 Z " />
<path stroke="none" fill="#008000" transform="matrix(0.0833333 0 0 0.0833333 -58.6667 -204)" d="M 8609.92,4136.66 L 8602.42,4149.65 L 8369.18,4014.99 L 8376.68,4002 L 8609.92,4136.66 Z " />
<path stroke="none" fill="#008000" transform="matrix(0.0833333 0 0 0.0833333 -58.6667 -204)" d="M 8365.43,3933.5 L 8372.93,3937.83 L 8372.93,3946.49 L 8085.98,4112.16 L 8070.98,4103.5 L 8365.43,3933.5 Z " />
<text x="0" y="0" stroke="none" fill="#008000" transform="matrix(0.0833333 0 0 0.0833333 631.855 103.694)" font-style="normal" font-weight="bold" font-size="240px" font-family="Arial" >
N</text>
<path stroke="none" fill="#008000" transform="matrix(0.0833333 0 0 0.0833333 -58.6667 -204)" d="M 8380.43,3933.5 L 8372.93,3937.83 L 8365.43,3933.5 L 8365.43,3725.83 L 8380.43,3725.83 L 8380.43,3933.5 Z " />
<text x="0" y="0" stroke="none" fill="#008000" transform="matrix(0.0833333 0 0 0.0833333 592.318 89.5271)" font-style="normal" font-weight="bold" font-size="240px" font-family="Arial" >
Me</text>
<path stroke="none" fill="#008000" transform="matrix(0.0833333 0 0 0.0833333 -58.6667 -204)" d="M 8254.6,3520.85 L 8247.1,3533.84 L 8175.38,3492.44 L 8182.88,3479.44 L 8254.6,3520.85 Z " />
<text x="0" y="0" stroke="none" fill="#008000" transform="matrix(0.0833333 0 0 0.0833333 655.284 89.5271)" font-style="normal" font-weight="bold" font-size="240px" font-family="Arial" >
Me</text>
<path stroke="none" fill="#008000" transform="matrix(0.0833333 0 0 0.0833333 -58.6667 -204)" d="M 8497.76,3534.41 L 8490.26,3521.42 L 8528.66,3499.25 L 8536.16,3512.24 L 8497.76,3534.41 Z " />
<path stroke="none" fill="#000000" transform="matrix(0.0833333 0 0 0.0833333 -58.6667 -204)" d="M 7662.32,4293.75 L 7732.87,4293.75 L 7732.87,4305.75 L 7662.32,4305.75 Z " />
<path stroke="none" fill="#000000" transform="matrix(0.0833333 0 0 0.0833333 -58.6667 -204)" d="M 7703.59,4264.48 L 7703.59,4335.03 L 7691.59,4335.03 L 7691.59,4264.48 Z " />
<path stroke="none" fill="#000000" transform="matrix(0.0833333 0 0 0.0833333 -58.6667 -204)" d="M 9046.69,4293.75 L 9117.24,4293.75 L 9117.24,4305.75 L 9046.69,4305.75 Z " />
<path stroke="none" fill="#000000" transform="matrix(0.0833333 0 0 0.0833333 -58.6667 -204)" d="M 9087.97,4264.48 L 9087.97,4335.03 L 9075.97,4335.03 L 9075.97,4264.48 Z " />
<text x="0" y="0" stroke="none" fill="#000000" transform="matrix(0.0833333 0 0 0.0833333 719.143 158.512)" font-style="normal" font-weight="bold" font-size="203.782px" font-family="Arial" >
dry </text>
<text x="0" y="0" stroke="none" fill="#000000" transform="matrix(0.0833333 0 0 0.0833333 750.288 158.512)" font-style="normal" font-weight="bold" font-size="203.782px" font-family="Arial" >
toluene</text>
<text x="0" y="0" stroke="none" fill="#000000" transform="matrix(0.0833333 0 0 0.0833333 50.6441 214.803)" font-style="normal" font-weight="bold" font-size="240px" font-family="Arial" >
I</text>
<text x="0" y="0" stroke="none" fill="#000000" transform="matrix(0.0833333 0 0 0.0833333 248.658 214.803)" font-style="normal" font-weight="bold" font-size="240px" font-family="Arial" >
II</text>
<text x="0" y="0" stroke="none" fill="#000000" transform="matrix(0.0833333 0 0 0.0833333 446.671 214.803)" font-style="normal" font-weight="bold" font-size="240px" font-family="Arial" >
IV</text>
<text x="0" y="0" stroke="none" fill="#000000" transform="matrix(0.0833333 0 0 0.0833333 629.601 214.803)" font-style="normal" font-weight="bold" font-size="240px" font-family="Arial" >
V</text>
<text x="0" y="0" stroke="none" fill="#000000" transform="matrix(0.0833333 0 0 0.0833333 1063.1 214.803)" font-style="normal" font-weight="bold" font-size="240px" font-family="Arial" >
III</text>
<text x="0" y="0" stroke="none" fill="#000000" transform="matrix(0.0833333 0 0 0.0833333 732.912 214.803)" font-style="normal" font-weight="bold" font-size="240px" font-family="Arial" >
VI</text>
<text x="0" y="0" stroke="none" fill="#0000ff" transform="matrix(0.0833333 0 0 0.0833333 246.385 186.342)" font-style="normal" font-weight="normal" font-size="240px" font-family="Arial" >
S</text>
<text x="0" y="0" stroke="none" fill="#0000ff" transform="matrix(0.0833333 0 0 0.0833333 245.833 140.79)" font-style="normal" font-weight="normal" font-size="240px" font-family="Arial" >
N</text>
<path stroke="none" fill="#0000ff" transform="matrix(0.0833333 0 0 0.0833333 -58.6667 -204)" d="M 3412.15,4491.06 L 3427.15,4480.17 L 3637.39,4548.61 L 3632.75,4562.87 L 3412.15,4491.06 Z " />
<path stroke="none" fill="#0000ff" transform="matrix(0.0833333 0 0 0.0833333 -58.6667 -204)" d="M 3816.26,4498.84 L 3804.13,4490.02 L 3930.02,4316.8 L 3948.56,4316.8 L 3816.26,4498.84 Z " />
<path stroke="none" fill="#0000ff" transform="matrix(0.0833333 0 0 0.0833333 -58.6667 -204)" d="M 3948.56,4316.8 L 3930.02,4316.8 L 3825.5,4172.98 L 3837.64,4164.16 L 3948.56,4316.8 Z " />
<path stroke="none" fill="#0000ff" transform="matrix(0.0833333 0 0 0.0833333 -58.6667 -204)" d="M 3870.18,4312.39 L 3858.04,4321.2 L 3776.31,4208.74 L 3788.44,4199.92 L 3870.18,4312.39 Z " />
<path stroke="none" fill="#0000ff" transform="matrix(0.0833333 0 0 0.0833333 -58.6667 -204)" d="M 3618.08,4075.5 L 3622.72,4089.76 L 3427.15,4153.42 L 3419.65,4147.97 L 3420.5,4139.81 L 3618.08,4075.5 Z " />
<path stroke="none" fill="#0000ff" transform="matrix(0.0833333 0 0 0.0833333 -58.6667 -204)" d="M 3788.75,3919.98 L 3774.49,3915.33 L 3839.36,3716.04 L 3850.95,3728.9 L 3788.75,3919.98 Z " />
<path stroke="none" fill="#0000ff" transform="matrix(0.0833333 0 0 0.0833333 -58.6667 -204)" d="M 3850.95,3728.9 L 3839.36,3716.04 L 4169.47,3645.75 L 4181.06,3658.61 L 3850.95,3728.9 Z " />
<text x="0" y="0" stroke="none" fill="#0000ff" transform="matrix(0.0833333 0 0 0.0833333 179.711 135.429)" font-style="normal" font-weight="normal" font-size="240px" font-family="Arial" >
Me</text>
<path stroke="none" fill="#0000ff" transform="matrix(0.0833333 0 0 0.0833333 -58.6667 -204)" d="M 3427.15,4480.17 L 3412.15,4491.06 L 3412.15,4152.3 L 3419.65,4147.97 L 3427.15,4153.42 L 3427.15,4480.17 Z " />
<path stroke="none" fill="#0000ff" transform="matrix(0.0833333 0 0 0.0833333 -58.6667 -204)" d="M 3487.92,4441.49 L 3472.92,4441.49 L 3472.92,4192.11 L 3487.92,4192.11 L 3487.92,4441.49 Z " />
<path stroke="none" fill="#0000ff" transform="matrix(0.0833333 0 0 0.0833333 -58.6667 -204)" d="M 3420.5,4139.81 L 3419.65,4147.97 L 3412.15,4152.3 L 3227.35,4045.63 L 3234.85,4032.64 L 3420.5,4139.81 Z " />
<text x="0" y="0" stroke="none" fill="#0000ff" transform="matrix(0.0833333 0 0 0.0833333 235.337 123.369)" font-style="normal" font-weight="normal" font-size="240px" font-family="Arial" >
Br</text>
<path stroke="#0000ff" stroke-width="12" fill="none" transform="matrix(0.0833333 0 0 0.0833333 -58.6667 -204)" d="M 3825.25,4008.51 A 62,62 0 1 1 3949.25,4008.51 A 62,62 0 1 1 3825.25,4008.51 Z " />
<path stroke="none" fill="#0000ff" transform="matrix(0.0833333 0 0 0.0833333 -58.6667 -204)" d="M 3851.53,4002.06 L 3922.09,4002.06 L 3922.09,4014.06 L 3851.53,4014.06 Z " />
<path stroke="none" fill="#0000ff" transform="matrix(0.0833333 0 0 0.0833333 -58.6667 -204)" d="M 3892.81,3972.79 L 3892.81,4043.34 L 3880.81,4043.34 L 3880.81,3972.79 Z " />
<path stroke="#0000ff" stroke-width="12" fill="none" transform="matrix(0.0833333 0 0 0.0833333 -58.6667 -204)" d="M 3501.37,3636.01 A 62,62 0 1 1 3625.37,3636.01 A 62,62 0 1 1 3501.37,3636.01 Z " />
<path stroke="none" fill="#0000ff" transform="matrix(0.0833333 0 0 0.0833333 -58.6667 -204)" d="M 3527.65,3629.57 L 3598.2,3629.57 L 3598.2,3641.57 L 3527.65,3641.57 Z " />
<path stroke="none" fill="#0000ff" transform="matrix(0.0833333 0 0 0.0833333 -58.6667 -204)" d="M 4181.06,3658.61 L 4169.47,3645.75 L 4271.74,3330.59 L 4280.21,3328.78 L 4286.01,3335.22 L 4181.06,3658.61 Z " />
<text x="0" y="0" stroke="none" fill="#0000ff" transform="matrix(0.0833333 0 0 0.0833333 300.46 129.272)" font-style="normal" font-weight="bold" font-size="240px" font-family="Arial" >
O</text>
<path stroke="none" fill="#0000ff" transform="matrix(0.0833333 0 0 0.0833333 -58.6667 -204)" d="M 4180.6,3623.59 L 4191.74,3613.55 L 4346.37,3785.16 L 4335.23,3795.2 L 4180.6,3623.59 Z " />
<path stroke="none" fill="#0000ff" transform="matrix(0.0833333 0 0 0.0833333 -58.6667 -204)" d="M 4135.13,3664.56 L 4146.28,3654.52 L 4300.91,3826.13 L 4289.76,3836.17 L 4135.13,3664.56 Z " />
<path stroke="none" fill="#0000ff" transform="matrix(0.0833333 0 0 0.0833333 -58.6667 -204)" d="M 4286.01,3335.22 L 4280.21,3328.78 L 4282.89,3320.55 L 4606.96,3251.54 L 4618.56,3264.41 L 4286.01,3335.22 Z " />
<path stroke="none" fill="#0000ff" transform="matrix(0.0833333 0 0 0.0833333 -58.6667 -204)" d="M 4303.59,3268.9 L 4300.47,3254.23 L 4563.89,3198.14 L 4567.02,3212.81 L 4303.59,3268.9 Z " />
<path stroke="none" fill="#0000ff" transform="matrix(0.0833333 0 0 0.0833333 -58.6667 -204)" d="M 4618.56,3264.41 L 4606.96,3251.54 L 4709.24,2936.38 L 4726.18,2932.77 L 4618.56,3264.41 Z " />
<path stroke="none" fill="#0000ff" transform="matrix(0.0833333 0 0 0.0833333 -58.6667 -204)" d="M 4726.18,2932.77 L 4709.24,2936.38 L 4656.39,2877.73 L 4667.53,2867.68 L 4726.18,2932.77 L 4726.18,2932.77 Z " />
<path stroke="none" fill="#0000ff" transform="matrix(0.0833333 0 0 0.0833333 -58.6667 -204)" d="M 4487.44,2690.23 L 4492.79,2673.75 L 4603.93,2797.1 L 4592.8,2807.15 L 4487.44,2690.23 L 4487.44,2690.23 Z " />
<path stroke="none" fill="#0000ff" transform="matrix(0.0833333 0 0 0.0833333 -58.6667 -204)" d="M 4654.16,2944.27 L 4643.02,2954.32 L 4610.96,2918.73 L 4622.09,2908.68 L 4654.16,2944.27 L 4654.16,2944.27 Z " />
<path stroke="none" fill="#0000ff" transform="matrix(0.0833333 0 0 0.0833333 -58.6667 -204)" d="M 4462.73,2754.23 L 4473.87,2744.19 L 4558.5,2838.11 L 4547.37,2848.16 L 4462.73,2754.23 L 4462.73,2754.23 Z " />
<path stroke="none" fill="#0000ff" transform="matrix(0.0833333 0 0 0.0833333 -58.6667 -204)" d="M 4492.79,2673.75 L 4487.44,2690.23 L 4163.37,2759.23 L 4151.77,2746.36 L 4492.79,2673.75 Z " />
<path stroke="none" fill="#0000ff" transform="matrix(0.0833333 0 0 0.0833333 -58.6667 -204)" d="M 4151.77,2746.36 L 4163.37,2759.23 L 4061.09,3074.39 L 4044.15,3078 L 4151.77,2746.36 Z " />
<path stroke="none" fill="#0000ff" transform="matrix(0.0833333 0 0 0.0833333 -58.6667 -204)" d="M 4197.74,2802.98 L 4212.01,2807.61 L 4128.87,3063.79 L 4114.6,3059.16 L 4197.74,2802.98 Z " />
<path stroke="none" fill="#0000ff" transform="matrix(0.0833333 0 0 0.0833333 -58.6667 -204)" d="M 4044.15,3078 L 4061.09,3074.39 L 4282.89,3320.55 L 4280.21,3328.78 L 4271.74,3330.59 L 4044.15,3078 Z " />
<text x="0" y="0" stroke="none" fill="#0000ff" transform="matrix(0.0833333 0 0 0.0833333 334.599 27.1138)" font-style="normal" font-weight="bold" font-size="240px" font-family="Arial" >
R</text>
<text x="0" y="0" stroke="none" fill="#0000ff" transform="matrix(0.0833333 0 0 0.0833333 349.042 19.2388)" font-style="normal" font-weight="bold" font-size="180px" font-family="Arial" >
1</text>
<path stroke="none" fill="#0000ff" transform="matrix(0.0833333 0 0 0.0833333 -58.6667 -204)" d="M 4492.97,2971.34 L 4482.92,2960.2 L 4689.35,2773.9 L 4699.4,2785.03 L 4492.97,2971.34 Z " />
</svg>
