<?xml version="1.0" standalone="no" ?>
<!DOCTYPE svg PUBLIC "-//W3C//DTD SVG 1.1//EN" "http://www.w3.org/Graphics/SVG/1.1/DTD/svg11.dtd">
<svg width="799px" height="250px" viewBox="0 0 799 250" style="background-color: #ffffff00" xmlns="http://www.w3.org/2000/svg" xmlns:xlink="http://www.w3.org/1999/xlink" version="1.1" >
<path stroke="none" fill="#000000" transform="matrix(0.0833333 0 0 0.0833333 -228.667 -190)" d="M 5472.41,4228.54 L 5567.41,4228.54 L 5567.41,4240.54 L 5472.41,4240.54 Z " />
<path stroke="none" fill="#000000" transform="matrix(0.0833333 0 0 0.0833333 -228.667 -190)" d="M 5525.91,4187.04 L 5525.91,4282.04 L 5513.91,4282.04 L 5513.91,4187.04 Z " />
<text x="0" y="0" stroke="none" fill="#0000ff" transform="matrix(0.0833333 0 0 0.0833333 323.663 193.009)" font-style="normal" font-weight="normal" font-size="240px" font-family="Arial" >
S</text>
<text x="0" y="0" stroke="none" fill="#0000ff" transform="matrix(0.0833333 0 0 0.0833333 323.111 147.297)" font-style="normal" font-weight="normal" font-size="240px" font-family="Arial" >
N</text>
<path stroke="none" fill="#0000ff" transform="matrix(0.0833333 0 0 0.0833333 -228.667 -190)" d="M 6386.71,4405.41 L 6385.86,4397.24 L 6393.36,4391.8 L 6604.73,4460.6 L 6600.08,4474.86 L 6386.71,4405.41 Z " />
<path stroke="none" fill="#0000ff" transform="matrix(0.0833333 0 0 0.0833333 -228.667 -190)" d="M 6783.6,4410.83 L 6771.46,4402.01 L 6898.05,4227.83 L 6916.59,4227.83 L 6783.6,4410.83 Z " />
<path stroke="none" fill="#0000ff" transform="matrix(0.0833333 0 0 0.0833333 -228.667 -190)" d="M 6916.59,4227.83 L 6898.05,4227.83 L 6792.84,4083.06 L 6804.97,4074.24 L 6916.59,4227.83 Z " />
<path stroke="none" fill="#0000ff" transform="matrix(0.0833333 0 0 0.0833333 -228.667 -190)" d="M 6837.94,4223.42 L 6825.81,4232.24 L 6743.47,4118.94 L 6755.6,4110.12 L 6837.94,4223.42 Z " />
<path stroke="none" fill="#0000ff" transform="matrix(0.0833333 0 0 0.0833333 -228.667 -190)" d="M 6585.41,3985.57 L 6590.06,3999.84 L 6393.36,4063.86 L 6385.86,4058.42 L 6386.71,4050.25 L 6585.41,3985.57 Z " />
<path stroke="none" fill="#0000ff" transform="matrix(0.0833333 0 0 0.0833333 -228.667 -190)" d="M 6756.08,3830.05 L 6741.82,3825.41 L 6807.06,3624.99 L 6818.64,3637.86 L 6756.08,3830.05 Z " />
<path stroke="none" fill="#0000ff" transform="matrix(0.0833333 0 0 0.0833333 -228.667 -190)" d="M 6818.64,3637.86 L 6807.06,3624.99 L 7138.32,3554.45 L 7149.92,3567.32 L 6818.64,3637.86 Z " />
<path stroke="none" fill="#0000ff" transform="matrix(0.0833333 0 0 0.0833333 -228.667 -190)" d="M 5791.4,4054.09 L 5806.4,4062.75 L 5806.4,4392.91 L 5791.4,4401.57 L 5791.4,4054.09 Z " />
<path stroke="none" fill="#0000ff" transform="matrix(0.0833333 0 0 0.0833333 -228.667 -190)" d="M 5852.39,4093.63 L 5867.39,4093.63 L 5867.39,4362.03 L 5852.39,4362.03 L 5852.39,4093.63 Z " />
<path stroke="none" fill="#0000ff" transform="matrix(0.0833333 0 0 0.0833333 -228.667 -190)" d="M 5791.4,4401.57 L 5806.4,4392.91 L 6092.38,4557.99 L 6092.38,4575.31 L 5791.4,4401.57 Z " />
<path stroke="none" fill="#0000ff" transform="matrix(0.0833333 0 0 0.0833333 -228.667 -190)" d="M 6092.38,4575.31 L 6092.38,4557.99 L 6378.36,4392.91 L 6385.86,4397.24 L 6386.71,4405.41 L 6092.38,4575.31 Z " />
<path stroke="none" fill="#0000ff" transform="matrix(0.0833333 0 0 0.0833333 -228.667 -190)" d="M 6096.13,4502.72 L 6088.63,4489.73 L 6321.11,4355.53 L 6328.61,4368.52 L 6096.13,4502.72 Z " />
<path stroke="none" fill="#0000ff" transform="matrix(0.0833333 0 0 0.0833333 -228.667 -190)" d="M 6393.36,4391.8 L 6385.86,4397.24 L 6378.36,4392.91 L 6378.36,4062.75 L 6385.86,4058.42 L 6393.36,4063.86 L 6393.36,4391.8 Z " />
<path stroke="none" fill="#0000ff" transform="matrix(0.0833333 0 0 0.0833333 -228.667 -190)" d="M 6386.71,4050.25 L 6385.86,4058.42 L 6378.36,4062.75 L 6092.38,3897.67 L 6092.38,3880.35 L 6386.71,4050.25 Z " />
<path stroke="none" fill="#0000ff" transform="matrix(0.0833333 0 0 0.0833333 -228.667 -190)" d="M 6328.61,4087.14 L 6321.11,4100.13 L 6088.63,3965.93 L 6096.13,3952.94 L 6328.61,4087.14 Z " />
<path stroke="none" fill="#0000ff" transform="matrix(0.0833333 0 0 0.0833333 -228.667 -190)" d="M 6092.38,3880.35 L 6092.38,3897.67 L 5806.4,4062.75 L 5791.4,4054.09 L 6092.38,3880.35 Z " />
<text x="0" y="0" stroke="none" fill="#0000ff" transform="matrix(0.0833333 0 0 0.0833333 305.137 133.782)" font-style="normal" font-weight="normal" font-size="240px" font-family="Arial" >
X</text>
<path stroke="none" fill="#0000ff" transform="matrix(0.0833333 0 0 0.0833333 -228.667 -190)" d="M 9195.07,4086.45 L 9210.07,4095.11 L 9210.07,4426.53 L 9195.07,4435.19 L 9195.07,4086.45 Z " />
<path stroke="none" fill="#0000ff" transform="matrix(0.0833333 0 0 0.0833333 -228.667 -190)" d="M 9256.29,4126.12 L 9271.29,4126.12 L 9271.29,4395.53 L 9256.29,4395.53 L 9256.29,4126.12 Z " />
<path stroke="none" fill="#0000ff" transform="matrix(0.0833333 0 0 0.0833333 -228.667 -190)" d="M 9195.07,4435.19 L 9210.07,4426.53 L 9497,4592.25 L 9497,4609.57 L 9195.07,4435.19 Z " />
<path stroke="none" fill="#0000ff" transform="matrix(0.0833333 0 0 0.0833333 -228.667 -190)" d="M 9497,4609.57 L 9497,4592.25 L 9784.24,4426.53 L 9791.74,4430.86 L 9791.73,4439.52 L 9497,4609.57 Z " />
<path stroke="none" fill="#0000ff" transform="matrix(0.0833333 0 0 0.0833333 -228.667 -190)" d="M 9500.76,4536.68 L 9493.27,4523.69 L 9726.74,4388.99 L 9734.23,4401.98 L 9500.76,4536.68 Z " />
<path stroke="none" fill="#0000ff" transform="matrix(0.0833333 0 0 0.0833333 -228.667 -190)" d="M 9799.24,4426.53 L 9791.74,4430.86 L 9784.24,4426.53 L 9784.24,4095.11 L 9791.74,4090.78 L 9799.24,4095.11 L 9799.24,4426.53 Z " />
<path stroke="none" fill="#0000ff" transform="matrix(0.0833333 0 0 0.0833333 -228.667 -190)" d="M 9791.73,4082.12 L 9791.74,4090.78 L 9784.24,4095.11 L 9497,3929.4 L 9497,3912.08 L 9791.73,4082.12 Z " />
<path stroke="none" fill="#0000ff" transform="matrix(0.0833333 0 0 0.0833333 -228.667 -190)" d="M 9734.23,4119.66 L 9726.74,4132.65 L 9493.27,3997.95 L 9500.76,3984.96 L 9734.23,4119.66 Z " />
<path stroke="none" fill="#0000ff" transform="matrix(0.0833333 0 0 0.0833333 -228.667 -190)" d="M 9497,3912.08 L 9497,3929.4 L 9210.07,4095.11 L 9195.07,4086.45 L 9497,3912.08 Z " />
<text x="0" y="0" stroke="none" fill="#0000ff" transform="matrix(0.0833333 0 0 0.0833333 605.177 201.242)" font-style="normal" font-weight="normal" font-size="240px" font-family="Arial" >
S</text>
<text x="0" y="0" stroke="none" fill="#0000ff" transform="matrix(0.0833333 0 0 0.0833333 604.625 144.561)" font-style="normal" font-weight="normal" font-size="240px" font-family="Arial" >
N</text>
<path stroke="none" fill="#0000ff" transform="matrix(0.0833333 0 0 0.0833333 -228.667 -190)" d="M 9791.73,4439.52 L 9791.74,4430.86 L 9799.24,4426.53 L 9989.86,4536.63 L 9982.36,4549.62 L 9791.73,4439.52 Z " />
<path stroke="none" fill="#6a0000" transform="matrix(0.0833333 0 0 0.0833333 -228.667 -190)" d="M 10188.4,4550.52 L 10180.9,4537.53 L 10373.1,4426.53 L 10380.6,4430.86 L 10371.1,4445.02 L 10188.4,4550.52 Z " />
<path stroke="none" fill="#0000ff" transform="matrix(0.0833333 0 0 0.0833333 -228.667 -190)" d="M 10388.1,4430.86 L 10380.6,4430.86 L 10373.1,4426.53 L 10373.1,4095.85 L 10380.6,4090.78 L 10388.1,4094.12 L 10388.1,4430.86 Z " />
<path stroke="none" fill="#0000ff" transform="matrix(0.0833333 0 0 0.0833333 -228.667 -190)" d="M 10380.3,4080.97 L 10380.6,4090.78 L 10373.1,4095.85 L 10191.5,4026.65 L 10230.6,3959.07 L 10380.3,4080.97 Z " />
<path stroke="none" fill="#0000ff" transform="matrix(0.0833333 0 0 0.0833333 -228.667 -190)" d="M 9956.54,3986.94 L 9964.04,3999.93 L 9799.24,4095.11 L 9791.74,4090.78 L 9791.73,4082.12 L 9956.54,3986.94 Z " />
<path stroke="none" fill="#6a0000" transform="matrix(0.0833333 0 0 0.0833333 -228.667 -190)" d="M 10388.1,4094.12 L 10380.6,4090.78 L 10380.3,4080.97 L 10624.1,3861.5 L 10642.2,3865.36 L 10388.1,4094.12 Z " />
<path stroke="none" fill="#008000" transform="matrix(0.0833333 0 0 0.0833333 -228.667 -190)" d="M 10642.2,3865.36 L 10624.1,3861.5 L 10490.3,3560.66 L 10494.9,3552.63 L 10503.3,3553.07 L 10642.2,3865.36 Z " />
<path stroke="none" fill="#6a0000" transform="matrix(0.0833333 0 0 0.0833333 -228.667 -190)" d="M 10490.3,3545.57 L 10494.9,3552.63 L 10490.3,3560.66 L 10162.9,3595.1 L 10150.5,3581.32 L 10490.3,3545.57 Z " />
<path stroke="none" fill="#6a0000" transform="matrix(0.0833333 0 0 0.0833333 -228.667 -190)" d="M 10456.3,3610.7 L 10457.8,3625.62 L 10208.1,3651.89 L 10206.6,3636.97 L 10456.3,3610.7 Z " />
<path stroke="none" fill="#0000ff" transform="matrix(0.0833333 0 0 0.0833333 -228.667 -190)" d="M 10150.5,3581.32 L 10162.9,3595.1 L 10119.9,3797.86 L 10105.2,3794.74 L 10150.5,3581.32 Z " />
<path stroke="none" fill="#ff0000" transform="matrix(0.0833333 0 0 0.0833333 -228.667 -190)" d="M 10503.3,3553.07 L 10494.9,3552.63 L 10490.3,3545.57 L 10656.3,3258.2 L 10673.6,3258.2 L 10503.3,3553.07 Z " />
<text x="0" y="0" stroke="none" fill="#ff0000" transform="matrix(0.0833333 0 0 0.0833333 638.686 64.8149)" font-style="normal" font-weight="normal" font-size="240px" font-family="Arial" >
H</text>
<path stroke="none" fill="#ff0000" transform="matrix(0.0833333 0 0 0.0833333 -228.667 -190)" d="M 10673.6,3258.2 L 10656.3,3258.2 L 10565.5,3101.01 L 10578.5,3093.51 L 10673.6,3258.2 Z " />
<path stroke="none" fill="#0000ff" transform="matrix(0.0833333 0 0 0.0833333 -228.667 -190)" d="M 10421.9,4463.38 L 10429.4,4450.39 L 10443.4,4456.16 L 10433.9,4472.62 L 10421.9,4463.38 Z " />
<path stroke="none" fill="#0000ff" transform="matrix(0.0833333 0 0 0.0833333 -228.667 -190)" d="M 10466,4497.39 L 10480.9,4471.62 L 10494.9,4477.39 L 10478,4506.63 L 10466,4497.39 Z " />
<path stroke="none" fill="#0000ff" transform="matrix(0.0833333 0 0 0.0833333 -228.667 -190)" d="M 10510.2,4531.41 L 10532.4,4492.86 L 10546.4,4498.62 L 10522.2,4540.65 L 10510.2,4531.41 Z " />
<path stroke="none" fill="#0000ff" transform="matrix(0.0833333 0 0 0.0833333 -228.667 -190)" d="M 10554.3,4565.42 L 10584,4514.09 L 10597.9,4519.86 L 10566.3,4574.66 L 10554.3,4565.42 Z " />
<path stroke="none" fill="#0000ff" transform="matrix(0.0833333 0 0 0.0833333 -228.667 -190)" d="M 10598.5,4599.44 L 10635.5,4535.32 L 10649.5,4541.09 L 10610.4,4608.68 L 10598.5,4599.44 Z " />
<path stroke="none" fill="#ff0000" transform="matrix(0.0833333 0 0 0.0833333 -228.667 -190)" d="M 10682.5,3881.56 L 10685.6,3866.88 L 10700.7,3868.04 L 10696.8,3886.63 L 10682.5,3881.56 Z " />
<path stroke="none" fill="#ff0000" transform="matrix(0.0833333 0 0 0.0833333 -228.667 -190)" d="M 10735.1,3900.24 L 10741.2,3871.12 L 10756.3,3872.27 L 10749.3,3905.31 L 10735.1,3900.24 Z " />
<path stroke="none" fill="#ff0000" transform="matrix(0.0833333 0 0 0.0833333 -228.667 -190)" d="M 10787.6,3918.92 L 10796.8,3875.36 L 10811.9,3876.51 L 10801.9,3923.99 L 10787.6,3918.92 Z " />
<path stroke="none" fill="#ff0000" transform="matrix(0.0833333 0 0 0.0833333 -228.667 -190)" d="M 10840.1,3937.6 L 10852.4,3879.6 L 10867.5,3880.75 L 10854.4,3942.67 L 10840.1,3937.6 Z " />
<path stroke="none" fill="#ff0000" transform="matrix(0.0833333 0 0 0.0833333 -228.667 -190)" d="M 10892.7,3956.28 L 10908,3883.84 L 10923.1,3884.99 L 10906.9,3961.34 L 10892.7,3956.28 Z " />
<path stroke="none" fill="#0000ff" transform="matrix(0.0833333 0 0 0.0833333 -228.667 -190)" d="M 10667.5,4596.58 L 10682.5,4605.24 L 10682.5,4936.66 L 10667.5,4945.32 L 10667.5,4596.58 Z " />
<path stroke="none" fill="#0000ff" transform="matrix(0.0833333 0 0 0.0833333 -228.667 -190)" d="M 10728.7,4636.24 L 10743.7,4636.24 L 10743.7,4905.65 L 10728.7,4905.65 L 10728.7,4636.24 Z " />
<path stroke="none" fill="#0000ff" transform="matrix(0.0833333 0 0 0.0833333 -228.667 -190)" d="M 10667.5,4945.32 L 10682.5,4936.66 L 10969.4,5102.37 L 10969.4,5119.69 L 10667.5,4945.32 Z " />
<path stroke="none" fill="#0000ff" transform="matrix(0.0833333 0 0 0.0833333 -228.667 -190)" d="M 10969.4,5119.69 L 10969.4,5102.37 L 11256.7,4936.66 L 11271.7,4945.32 L 10969.4,5119.69 Z " />
<path stroke="none" fill="#0000ff" transform="matrix(0.0833333 0 0 0.0833333 -228.667 -190)" d="M 10973.2,5046.81 L 10965.7,5033.81 L 11199.2,4899.12 L 11206.7,4912.11 L 10973.2,5046.81 Z " />
<path stroke="none" fill="#0000ff" transform="matrix(0.0833333 0 0 0.0833333 -228.667 -190)" d="M 11271.7,4945.32 L 11256.7,4936.66 L 11256.7,4823.17 L 11271.7,4823.17 L 11271.7,4945.32 L 11271.7,4945.32 Z " />
<path stroke="none" fill="#0000ff" transform="matrix(0.0833333 0 0 0.0833333 -228.667 -190)" d="M 11256.7,4605.24 L 11271.7,4596.57 L 11271.7,4728.17 L 11256.7,4728.17 L 11256.7,4605.24 L 11256.7,4605.24 Z " />
<path stroke="none" fill="#0000ff" transform="matrix(0.0833333 0 0 0.0833333 -228.667 -190)" d="M 11271.7,4596.57 L 11256.7,4605.24 L 10969.4,4439.52 L 10969.4,4422.2 L 11271.7,4596.57 Z " />
<path stroke="none" fill="#0000ff" transform="matrix(0.0833333 0 0 0.0833333 -228.667 -190)" d="M 11206.7,4629.78 L 11199.2,4642.78 L 10965.7,4508.08 L 10973.2,4495.09 L 11206.7,4629.78 Z " />
<path stroke="none" fill="#0000ff" transform="matrix(0.0833333 0 0 0.0833333 -228.667 -190)" d="M 10969.4,4422.2 L 10969.4,4439.52 L 10682.5,4605.24 L 10667.5,4596.58 L 10969.4,4422.2 Z " />
<text x="0" y="0" stroke="none" fill="#0000ff" transform="matrix(0.0833333 0 0 0.0833333 628.604 215.412)" font-style="normal" font-weight="normal" font-size="240px" font-family="Arial" >
OH</text>
<path stroke="none" fill="#0000ff" transform="matrix(0.0833333 0 0 0.0833333 -228.667 -190)" d="M 10371.1,4445.02 L 10380.6,4430.86 L 10388.1,4430.86 L 10419.6,4652.95 L 10341.6,4652.95 L 10371.1,4445.02 Z " />
<text x="0" y="0" stroke="none" fill="#0000ff" transform="matrix(0.0833333 0 0 0.0833333 724.738 215.806)" font-style="normal" font-weight="normal" font-size="240px" font-family="Arial" >
(R</text>
<text x="0" y="0" stroke="none" fill="#0000ff" transform="matrix(0.0833333 0 0 0.0833333 745.842 207.973)" font-style="normal" font-weight="normal" font-size="180px" font-family="Arial" >
1</text>
<text x="0" y="0" stroke="none" fill="#0000ff" transform="matrix(0.0833333 0 0 0.0833333 754.184 215.806)" font-style="normal" font-weight="normal" font-size="240px" font-family="Arial" >
)</text>
<text x="0" y="0" stroke="none" fill="#0000ff" transform="matrix(0.0833333 0 0 0.0833333 760.844 220.139)" font-style="normal" font-weight="normal" font-size="180px" font-family="Arial" >
n</text>
<path stroke="none" fill="#0000ff" transform="matrix(0.0833333 0 0 0.0833333 -228.667 -190)" d="M 11140.7,4783.17 L 11140.7,4768.17 L 11415.9,4768.17 L 11415.9,4783.17 L 11140.7,4783.17 Z " />
<path stroke="#0000ff" stroke-width="12" fill="none" transform="matrix(0.0833333 0 0 0.0833333 -228.667 -190)" d="M 6431.08,3583.05 A 86,86 0 1 1 6603.08,3583.05 A 86,86 0 1 1 6431.08,3583.05 Z " />
<path stroke="none" fill="#0000ff" transform="matrix(0.0833333 0 0 0.0833333 -228.667 -190)" d="M 6469.58,3577.05 L 6564.58,3577.05 L 6564.58,3589.05 L 6469.58,3589.05 Z " />
<path stroke="#0000ff" stroke-width="12" fill="none" transform="matrix(0.0833333 0 0 0.0833333 -228.667 -190)" d="M 6835.55,3953.56 A 86,86 0 1 1 7007.55,3953.56 A 86,86 0 1 1 6835.55,3953.56 Z " />
<path stroke="none" fill="#0000ff" transform="matrix(0.0833333 0 0 0.0833333 -228.667 -190)" d="M 6874.05,3947.56 L 6969.05,3947.56 L 6969.05,3959.56 L 6874.05,3959.56 Z " />
<path stroke="none" fill="#0000ff" transform="matrix(0.0833333 0 0 0.0833333 -228.667 -190)" d="M 6927.55,3906.06 L 6927.55,4001.06 L 6915.55,4001.06 L 6915.55,3906.06 Z " />
<text x="0" y="0" stroke="none" fill="#ff0000" transform="matrix(0.0833333 0 0 0.0833333 680.633 89.3503)" font-style="normal" font-weight="normal" font-size="240px" font-family="Arial" >
O</text>
<path stroke="none" fill="#ff0000" transform="matrix(0.0833333 0 0 0.0833333 -228.667 -190)" d="M 10647.3,3235.1 L 10647.3,3220.1 L 10883.6,3220.1 L 10883.6,3235.1 L 10647.3,3235.1 Z " />
<path stroke="none" fill="#ff0000" transform="matrix(0.0833333 0 0 0.0833333 -228.667 -190)" d="M 10647.3,3296.3 L 10647.3,3281.3 L 10883.6,3281.3 L 10883.6,3296.3 L 10647.3,3296.3 Z " />
<text x="0" y="0" stroke="none" fill="#000000" transform="matrix(0.0833333 0 0 0.0833333 130.849 241.314)" font-style="normal" font-weight="bold" font-size="240px" font-family="Arial" >
I</text>
<text x="0" y="0" stroke="none" fill="#000000" transform="matrix(0.0833333 0 0 0.0833333 322.835 241.314)" font-style="normal" font-weight="bold" font-size="240px" font-family="Arial" >
II</text>
<text x="0" y="0" stroke="none" fill="#000000" transform="matrix(0.0833333 0 0 0.0833333 614.69 241.314)" font-style="normal" font-weight="bold" font-size="240px" font-family="Arial" >
III</text>
<path stroke="none" fill="#000000" transform="matrix(0.0833333 0 0 0.0833333 -228.667 -190)" d="M 8951.62,4324.89 L 7674.25,4324.89 L 7674.25,4309.89 L 8951.62,4309.89 Z " />
<path stroke="none" fill="#000000" transform="matrix(0.0833333 0 0 0.0833333 -228.667 -190)" d="M 9081.87,4317.39 C 9081.87,4317.39 8931.87,4355.89 8931.87,4355.89 C 8931.87,4355.89 8950.62,4334.23 8950.62,4317.39 C 8950.62,4300.11 8931.87,4277.89 8931.87,4277.89 C 8931.87,4277.89 9081.87,4317.39 9081.87,4317.39 C 9081.87,4317.39 9081.87,4317.39 9081.87,4317.39 " />
<path stroke="#000000" stroke-width="1" fill="none" transform="matrix(0.0833333 0 0 0.0833333 -228.667 -190)" d="M 9081.87,4317.39 C 9081.87,4317.39 8931.87,4355.89 8931.87,4355.89 C 8931.87,4355.89 8950.62,4334.23 8950.62,4317.39 C 8950.62,4300.11 8931.87,4277.89 8931.87,4277.89 C 8931.87,4277.89 9081.87,4317.39 9081.87,4317.39 C 9081.87,4317.39 9081.87,4317.39 9081.87,4317.39 " />
<path stroke="none" fill="#ff0000" transform="matrix(0.0833333 0 0 0.0833333 -228.667 -190)" d="M 4052.45,4198.56 L 4044.95,4194.23 L 4044.95,4185.57 L 4338.35,4016.13 L 4338.35,4033.45 L 4052.45,4198.56 Z " />
<path stroke="none" fill="#ff0000" transform="matrix(0.0833333 0 0 0.0833333 -228.667 -190)" d="M 4338.35,4033.45 L 4338.35,4016.13 L 4631.75,4185.57 L 4631.74,4202.89 L 4338.35,4033.45 Z " />
<path stroke="none" fill="#ff0000" transform="matrix(0.0833333 0 0 0.0833333 -228.667 -190)" d="M 4365.1,3978.47 L 4372.6,3965.48 L 4635.51,4117.32 L 4628.01,4130.31 L 4365.1,3978.47 Z " />
<path stroke="none" fill="#ff0000" transform="matrix(0.0833333 0 0 0.0833333 -228.667 -190)" d="M 4631.74,4202.89 L 4631.75,4185.57 L 4925.46,4016.13 L 4925.46,4033.45 L 4631.74,4202.89 Z " />
<text x="0" y="0" stroke="none" fill="#ff0000" transform="matrix(0.0833333 0 0 0.0833333 197.189 169.553)" font-style="normal" font-weight="normal" font-size="240px" font-family="Arial" >
O</text>
<path stroke="none" fill="#ff0000" transform="matrix(0.0833333 0 0 0.0833333 -228.667 -190)" d="M 4925.46,4033.45 L 4925.46,4016.13 L 5118.76,4127.77 L 5111.26,4140.76 L 4925.46,4033.45 Z " />
<path stroke="none" fill="#ff0000" transform="matrix(0.0833333 0 0 0.0833333 -228.667 -190)" d="M 4921.69,4101.7 L 4929.19,4088.71 L 5088.26,4180.58 L 5080.76,4193.57 L 4921.69,4101.7 Z " />
<path stroke="none" fill="#ff0000" transform="matrix(0.0833333 0 0 0.0833333 -228.667 -190)" d="M 4044.95,4185.57 L 4044.95,4194.23 L 4037.45,4198.57 L 3750.46,4032.98 L 3750.46,4015.66 L 4044.95,4185.57 Z " />
<path stroke="none" fill="#ff0000" transform="matrix(0.0833333 0 0 0.0833333 -228.667 -190)" d="M 3987.5,4223.08 L 3980.01,4236.08 L 3746.71,4101.47 L 3754.21,4088.48 L 3987.5,4223.08 Z " />
<path stroke="none" fill="#ff0000" transform="matrix(0.0833333 0 0 0.0833333 -228.667 -190)" d="M 3750.46,4015.66 L 3750.46,4032.98 L 3463.56,4198.57 L 3448.56,4189.9 L 3750.46,4015.66 Z " />
<path stroke="none" fill="#ff0000" transform="matrix(0.0833333 0 0 0.0833333 -228.667 -190)" d="M 3448.56,4189.9 L 3463.56,4198.57 L 3463.56,4298.3 L 3448.56,4298.3 L 3448.56,4189.9 L 3448.56,4189.9 Z " />
<path stroke="none" fill="#ff0000" transform="matrix(0.0833333 0 0 0.0833333 -228.667 -190)" d="M 3463.56,4529.9 L 3448.56,4538.57 L 3448.56,4393.3 L 3463.56,4393.3 L 3463.56,4529.9 L 3463.56,4529.9 Z " />
<path stroke="none" fill="#ff0000" transform="matrix(0.0833333 0 0 0.0833333 -228.667 -190)" d="M 3509.76,4229.57 L 3524.76,4229.57 L 3524.76,4298.3 L 3509.76,4298.3 L 3509.76,4229.57 L 3509.76,4229.57 Z " />
<path stroke="none" fill="#ff0000" transform="matrix(0.0833333 0 0 0.0833333 -228.667 -190)" d="M 3524.76,4498.89 L 3509.76,4498.89 L 3509.76,4393.3 L 3524.76,4393.3 L 3524.76,4498.89 L 3524.76,4498.89 Z " />
<path stroke="none" fill="#ff0000" transform="matrix(0.0833333 0 0 0.0833333 -228.667 -190)" d="M 3448.56,4538.57 L 3463.56,4529.9 L 3750.46,4695.49 L 3750.46,4712.81 L 3448.56,4538.57 Z " />
<path stroke="none" fill="#ff0000" transform="matrix(0.0833333 0 0 0.0833333 -228.667 -190)" d="M 3750.46,4712.81 L 3750.46,4695.49 L 4037.45,4529.9 L 4052.45,4538.57 L 3750.46,4712.81 Z " />
<path stroke="none" fill="#ff0000" transform="matrix(0.0833333 0 0 0.0833333 -228.667 -190)" d="M 3754.21,4639.99 L 3746.71,4627 L 3980.01,4492.39 L 3987.5,4505.39 L 3754.21,4639.99 Z " />
<path stroke="none" fill="#ff0000" transform="matrix(0.0833333 0 0 0.0833333 -228.667 -190)" d="M 4052.45,4538.57 L 4037.45,4529.9 L 4037.45,4198.57 L 4044.95,4194.23 L 4052.45,4198.56 L 4052.45,4538.57 Z " />
<text x="0" y="0" stroke="none" fill="#ff0000" transform="matrix(0.0833333 0 0 0.0833333 4.0376 184.275)" font-style="normal" font-weight="bold" font-size="180px" font-family="Arial" >
m</text>
<text x="0" y="0" stroke="none" fill="#ff0000" transform="matrix(0.0833333 0 0 0.0833333 17.375 180.025)" font-style="normal" font-weight="bold" font-size="240px" font-family="Arial" >
(R)</text>
<path stroke="none" fill="#ff0000" transform="matrix(0.0833333 0 0 0.0833333 -228.667 -190)" d="M 3585.7,4338.3 L 3585.7,4353.3 L 3312.45,4353.3 L 3312.45,4338.3 L 3585.7,4338.3 Z " />
<text x="0" y="0" stroke="none" fill="#0000ff" transform="matrix(0.0833333 0 0 0.0833333 377.864 135.665)" font-style="normal" font-weight="bold" font-size="240px" font-family="Arial" >
O</text>
<path stroke="none" fill="#0000ff" transform="matrix(0.0833333 0 0 0.0833333 -228.667 -190)" d="M 7149.45,3532.3 L 7160.6,3522.26 L 7315.23,3693.87 L 7304.08,3703.91 L 7149.45,3532.3 Z " />
<path stroke="none" fill="#0000ff" transform="matrix(0.0833333 0 0 0.0833333 -228.667 -190)" d="M 7103.99,3573.27 L 7115.13,3563.23 L 7269.76,3734.84 L 7258.62,3744.88 L 7103.99,3573.27 Z " />
<path stroke="none" fill="#0000ff" transform="matrix(0.0833333 0 0 0.0833333 -228.667 -190)" d="M 7149.92,3567.32 L 7138.32,3554.45 L 7240.6,3239.29 L 7249.07,3237.49 L 7254.87,3243.93 L 7149.92,3567.32 Z " />
<path stroke="none" fill="#0000ff" transform="matrix(0.0833333 0 0 0.0833333 -228.667 -190)" d="M 7254.87,3243.93 L 7249.07,3237.49 L 7251.74,3229.25 L 7575.82,3160.25 L 7587.41,3173.12 L 7254.87,3243.93 Z " />
<path stroke="none" fill="#0000ff" transform="matrix(0.0833333 0 0 0.0833333 -228.667 -190)" d="M 7272.45,3177.61 L 7269.32,3162.94 L 7532.75,3106.85 L 7535.87,3121.52 L 7272.45,3177.61 Z " />
<path stroke="none" fill="#0000ff" transform="matrix(0.0833333 0 0 0.0833333 -228.667 -190)" d="M 7587.41,3173.12 L 7575.82,3160.25 L 7678.1,2845.09 L 7695.04,2841.48 L 7587.41,3173.12 Z " />
<path stroke="none" fill="#0000ff" transform="matrix(0.0833333 0 0 0.0833333 -228.667 -190)" d="M 7695.04,2841.48 L 7678.1,2845.09 L 7583.72,2740.35 L 7595.1,2730.57 L 7695.04,2841.48 L 7695.04,2841.48 Z " />
<path stroke="none" fill="#0000ff" transform="matrix(0.0833333 0 0 0.0833333 -228.667 -190)" d="M 7456.3,2598.94 L 7461.64,2582.46 L 7531.49,2659.97 L 7520.1,2669.75 L 7456.3,2598.94 L 7456.3,2598.94 Z " />
<path stroke="none" fill="#0000ff" transform="matrix(0.0833333 0 0 0.0833333 -228.667 -190)" d="M 7623.02,2852.98 L 7611.88,2863.02 L 7537.27,2780.23 L 7548.66,2770.45 L 7623.02,2852.98 L 7623.02,2852.98 Z " />
<path stroke="none" fill="#0000ff" transform="matrix(0.0833333 0 0 0.0833333 -228.667 -190)" d="M 7431.59,2662.94 L 7442.73,2652.89 L 7485.05,2699.86 L 7473.66,2709.63 L 7431.59,2662.94 L 7431.59,2662.94 Z " />
<path stroke="none" fill="#0000ff" transform="matrix(0.0833333 0 0 0.0833333 -228.667 -190)" d="M 7461.64,2582.46 L 7456.3,2598.94 L 7132.22,2667.94 L 7120.63,2655.07 L 7461.64,2582.46 Z " />
<path stroke="none" fill="#0000ff" transform="matrix(0.0833333 0 0 0.0833333 -228.667 -190)" d="M 7120.63,2655.07 L 7132.22,2667.94 L 7029.95,2983.1 L 7013.01,2986.71 L 7120.63,2655.07 Z " />
<path stroke="none" fill="#0000ff" transform="matrix(0.0833333 0 0 0.0833333 -228.667 -190)" d="M 7166.6,2711.69 L 7180.86,2716.32 L 7097.73,2972.5 L 7083.46,2967.87 L 7166.6,2711.69 Z " />
<path stroke="none" fill="#0000ff" transform="matrix(0.0833333 0 0 0.0833333 -228.667 -190)" d="M 7013.01,2986.71 L 7029.95,2983.1 L 7251.74,3229.25 L 7249.07,3237.49 L 7240.6,3239.29 L 7013.01,2986.71 Z " />
<text x="0" y="0" stroke="none" fill="#0000ff" transform="matrix(0.0833333 0 0 0.0833333 416.582 26.7617)" font-style="normal" font-weight="bold" font-size="240px" font-family="Arial" >
(R</text>
<text x="0" y="0" stroke="none" fill="#0000ff" transform="matrix(0.0833333 0 0 0.0833333 437.685 18.8867)" font-style="normal" font-weight="bold" font-size="180px" font-family="Arial" >
1</text>
<text x="0" y="0" stroke="none" fill="#0000ff" transform="matrix(0.0833333 0 0 0.0833333 446.028 26.7617)" font-style="normal" font-weight="bold" font-size="240px" font-family="Arial" >
)</text>
<text x="0" y="0" stroke="none" fill="#0000ff" transform="matrix(0.0833333 0 0 0.0833333 452.688 31.0117)" font-style="normal" font-weight="bold" font-size="180px" font-family="Arial" >
n</text>
<path stroke="none" fill="#0000ff" transform="matrix(0.0833333 0 0 0.0833333 -228.667 -190)" d="M 7400.4,2845.05 L 7390.63,2833.67 L 7698.08,2569.63 L 7707.85,2581.01 L 7400.4,2845.05 Z " />
<text x="0" y="0" stroke="none" fill="#000000" transform="matrix(0.0833333 0 0 0.0833333 436.251 162.68)" font-style="normal" font-weight="bold" font-size="203.782px" font-family="Arial" >
Base</text>
<text x="0" y="0" stroke="none" fill="#000000" transform="matrix(0.0833333 0 0 0.0833333 428.718 189.369)" font-style="normal" font-weight="bold" font-size="203.782px" font-family="Arial" >
Solvent</text>
<path stroke="none" fill="#ff0000" transform="matrix(0.0833333 0 0 0.0833333 -228.667 -190)" d="M 10957.5,3932.17 L 10974.4,3935.76 L 11077,4250.82 L 11065.4,4263.7 L 10957.5,3932.17 Z " />
<path stroke="none" fill="#ff0000" transform="matrix(0.0833333 0 0 0.0833333 -228.667 -190)" d="M 11028,3950.94 L 11042.2,3946.29 L 11125.6,4202.39 L 11111.4,4207.04 L 11028,3950.94 Z " />
<path stroke="none" fill="#ff0000" transform="matrix(0.0833333 0 0 0.0833333 -228.667 -190)" d="M 11065.4,4263.7 L 11077,4250.82 L 11401.2,4319.51 L 11406.5,4335.98 L 11065.4,4263.7 Z " />
<path stroke="none" fill="#ff0000" transform="matrix(0.0833333 0 0 0.0833333 -228.667 -190)" d="M 11406.5,4335.98 L 11401.2,4319.51 L 11622.7,4073.14 L 11639.7,4076.73 L 11406.5,4335.98 Z " />
<path stroke="none" fill="#ff0000" transform="matrix(0.0833333 0 0 0.0833333 -228.667 -190)" d="M 11387.5,4265.57 L 11376.4,4255.54 L 11556.5,4055.27 L 11567.6,4065.3 L 11387.5,4265.57 Z " />
<path stroke="none" fill="#ff0000" transform="matrix(0.0833333 0 0 0.0833333 -228.667 -190)" d="M 11639.7,4076.73 L 11622.7,4073.14 L 11581.9,3947.81 L 11595.9,3942.38 L 11639.7,4076.73 L 11639.7,4076.73 Z " />
<path stroke="none" fill="#ff0000" transform="matrix(0.0833333 0 0 0.0833333 -228.667 -190)" d="M 11520.1,3758.08 L 11531.7,3745.2 L 11566.5,3851.91 L 11552.5,3857.34 L 11520.1,3758.08 L 11520.1,3758.08 Z " />
<path stroke="none" fill="#ff0000" transform="matrix(0.0833333 0 0 0.0833333 -228.667 -190)" d="M 11531.7,3745.2 L 11520.1,3758.08 L 11196,3689.39 L 11190.6,3672.92 L 11531.7,3745.2 Z " />
<path stroke="none" fill="#ff0000" transform="matrix(0.0833333 0 0 0.0833333 -228.667 -190)" d="M 11480.2,3796.85 L 11477.1,3811.53 L 11213.6,3755.69 L 11216.8,3741.01 L 11480.2,3796.85 Z " />
<path stroke="none" fill="#ff0000" transform="matrix(0.0833333 0 0 0.0833333 -228.667 -190)" d="M 11190.6,3672.92 L 11196,3689.39 L 10974.4,3935.76 L 10957.5,3932.17 L 11190.6,3672.92 Z " />
<text x="0" y="0" stroke="none" fill="#ff0000" transform="matrix(0.0833333 0 0 0.0833333 754.264 134.434)" font-style="normal" font-weight="bold" font-size="240px" font-family="Arial" >
(R)</text>
<text x="0" y="0" stroke="none" fill="#ff0000" transform="matrix(0.0833333 0 0 0.0833333 782.027 138.684)" font-style="normal" font-weight="bold" font-size="180px" font-family="Arial" >
m</text>
<path stroke="none" fill="#ff0000" transform="matrix(0.0833333 0 0 0.0833333 -228.667 -190)" d="M 11465.9,3949.88 L 11460.5,3935.89 L 11754.2,3822.02 L 11759.7,3836.01 L 11465.9,3949.88 Z " />
</svg>
